<?xml version="1.0" encoding="utf-8"?>
<!-- Generator: Adobe Illustrator 16.0.0, SVG Export Plug-In . SVG Version: 6.00 Build 0)  -->
<!DOCTYPE svg PUBLIC "-//W3C//DTD SVG 1.1//EN" "http://www.w3.org/Graphics/SVG/1.1/DTD/svg11.dtd">
<svg version="1.1" id="Layer_1" xmlns="http://www.w3.org/2000/svg" xmlns:xlink="http://www.w3.org/1999/xlink" x="0px" y="0px"
	 width="91px" height="134px" viewBox="0 0 91 134" enable-background="new 0 0 91 134" xml:space="preserve">
<g>
	<path fill="#35495E" d="M35.447,14.863c0-7.937,5.342-14.371,11.935-14.371c6.592,0,11.936,6.434,11.936,14.371
		c0,7.938-5.344,14.371-11.936,14.371C40.789,29.234,35.447,22.801,35.447,14.863L35.447,14.863z"/>
	<path fill="#35495E" d="M90.695,84.319C77.19,65.071,56.053,54.845,36.133,60.185C9.363,67.356-5.22,100.067,2.97,133.645
		C3.007,132.833,17.942,36.349,90.695,84.319L90.695,84.319z"/>
	<path fill="#35495E" d="M1.99,74.474c0,0,4.035-15.15,37.549-21.5C73.64,46.51,80.653,11.498,80.653,11.498
		c-0.035-0.095-7.322,19.705-39.978,23.872C8.62,39.464,1.797,74.113,1.99,74.474L1.99,74.474z"/>
</g>
<path fill="#35495E" d="M-40.333,47.333c0-11.597-9.4-21-21-21c-11.598,0-21,9.403-21,21c0,10.003,6.996,18.367,16.362,20.479
	l4.638,7.999l4.635-7.999C-47.332,65.701-40.333,57.336-40.333,47.333z"/>
</svg>
