<?xml version="1.0" encoding="utf-8"?>
<!-- Generator: Adobe Illustrator 16.0.0, SVG Export Plug-In . SVG Version: 6.00 Build 0)  -->
<!DOCTYPE svg PUBLIC "-//W3C//DTD SVG 1.1//EN" "http://www.w3.org/Graphics/SVG/1.1/DTD/svg11.dtd">
<svg version="1.1" id="Layer_1" xmlns="http://www.w3.org/2000/svg" xmlns:xlink="http://www.w3.org/1999/xlink" x="0px" y="0px"
	 width="126px" height="140px" viewBox="0 0 126 140" enable-background="new 0 0 126 140" xml:space="preserve">
<g>
	<g>
		<g>
			<path fill="#ECF0F0" d="M42.413,91.16c0-1.799-0.09-2.237-1.11-2.359l-0.725-0.072c-0.181-0.146-0.158-0.512,0.023-0.607
				c1.223-0.122,2.763-0.194,4.869-0.194c1.427,0,2.785,0.121,3.804,0.681c0.974,0.512,1.721,1.485,1.721,3.043
				c0,1.75-0.952,2.649-2.311,3.332c0,0.244,0.181,0.315,0.431,0.365c1.223,0.243,3.035,1.459,3.035,4.062
				c0,2.821-1.948,4.721-6.024,4.721c-0.656,0-1.766-0.073-2.717-0.073c-0.997,0-1.766,0.049-2.604,0.073
				c-0.136-0.073-0.181-0.463-0.045-0.608l0.408-0.072c1.2-0.195,1.245-0.486,1.245-3.041V91.16z M44.27,94.396
				c0,0.682,0.022,0.729,1.177,0.682c2.31-0.098,3.555-0.828,3.555-3.113c0-2.385-1.653-3.285-3.374-3.285
				c-0.498,0-0.838,0.049-1.042,0.146c-0.227,0.072-0.317,0.193-0.317,0.633L44.27,94.396L44.27,94.396z M44.27,100.041
				c0,0.875,0.045,2.117,0.476,2.652c0.43,0.559,1.109,0.68,1.789,0.68c2.015,0,3.555-0.973,3.555-3.404
				c0-1.924-0.906-4.16-4.506-4.16c-1.223,0-1.313,0.146-1.313,0.633L44.27,100.041L44.27,100.041z"/>
		</g>
		<g>
			<path fill="#ECF0F0" d="M52.828,96.197c0-4.865,3.396-8.588,8.061-8.588c5.231,0,7.858,4.062,7.858,8.344
				c0,4.914-3.488,8.49-7.858,8.49C55.862,104.443,52.828,100.576,52.828,96.197z M66.48,96.707c0-4.014-1.651-8.344-5.977-8.344
				c-2.355,0-5.412,1.729-5.412,7.055c0,3.602,1.631,8.271,6.091,8.271C63.9,103.689,66.48,101.5,66.48,96.707z"/>
		</g>
		<g>
			<path fill="#ECF0F0" d="M73.434,104.443c-1.901,0-3.103-0.631-3.533-0.9c-0.271-0.535-0.564-2.262-0.61-3.404
				c0.112-0.17,0.453-0.219,0.544-0.074c0.339,1.242,1.27,3.625,3.895,3.625c1.901,0,2.832-1.338,2.832-2.797
				c0-1.069-0.205-2.264-1.857-3.406l-2.15-1.508c-1.133-0.803-2.445-2.188-2.445-4.186c0-2.311,1.676-4.184,4.619-4.184
				c0.701,0,1.517,0.121,2.105,0.315c0.294,0.072,0.611,0.146,0.792,0.146c0.204,0.585,0.408,1.947,0.408,2.969
				c-0.091,0.146-0.454,0.219-0.567,0.074c-0.293-1.168-0.904-2.75-3.078-2.75c-2.22,0-2.695,1.582-2.695,2.701
				c0,1.41,1.088,2.408,1.926,2.992l1.812,1.217c1.426,0.947,2.83,2.358,2.83,4.67C78.257,102.619,76.377,104.443,73.434,104.443z"
				/>
		</g>
		<g>
			<path fill="#ECF0F0" d="M86.34,100.406c0,2.555,0.045,2.895,1.358,3.041l0.725,0.072c0.138,0.098,0.091,0.535-0.045,0.608
				c-1.291-0.051-2.062-0.073-2.967-0.073s-1.698,0.022-3.147,0.073c-0.136-0.073-0.181-0.487,0-0.608l0.814-0.072
				c1.292-0.123,1.404-0.486,1.404-3.041V89.531c0-0.754,0-0.779-0.681-0.779h-1.243c-0.975,0-2.221,0.049-2.785,0.609
				c-0.545,0.535-0.771,1.07-1.021,1.678c-0.183,0.146-0.498,0.025-0.588-0.17c0.362-1.094,0.701-2.652,0.86-3.625
				c0.066-0.049,0.361-0.073,0.43,0c0.136,0.777,0.883,0.754,1.925,0.754h9.171c1.223,0,1.428-0.049,1.768-0.682
				c0.113-0.049,0.361-0.023,0.406,0.074c-0.25,0.996-0.406,2.967-0.34,3.696c-0.091,0.195-0.476,0.195-0.589,0.049
				c-0.067-0.606-0.228-1.508-0.565-1.774c-0.521-0.414-1.381-0.609-2.627-0.609h-1.607c-0.68,0-0.656,0.025-0.656,0.828V100.406z"
				/>
		</g>
		<g>
			<path fill="#ECF0F0" d="M91.842,96.197c0-4.865,3.396-8.588,8.062-8.588c5.229,0,7.855,4.062,7.855,8.344
				c0,4.914-3.486,8.49-7.855,8.49C94.876,104.443,91.842,100.576,91.842,96.197z M105.496,96.707c0-4.014-1.654-8.344-5.979-8.344
				c-2.355,0-5.412,1.729-5.412,7.055c0,3.602,1.631,8.271,6.09,8.271C102.914,103.689,105.496,101.5,105.496,96.707z"/>
		</g>
		<g>
			<path fill="#ECF0F0" d="M122.455,99.92c0,0.729,0,3.623,0.066,4.256c-0.043,0.146-0.181,0.268-0.43,0.268
				c-0.271-0.411-0.929-1.264-2.898-3.672l-5.252-6.424c-0.611-0.754-2.152-2.748-2.627-3.283h-0.047
				c-0.091,0.291-0.113,0.853-0.113,1.58v5.306c0,1.143,0.047,4.305,0.408,5.034c0.158,0.269,0.588,0.414,1.155,0.464l0.701,0.071
				c0.138,0.195,0.113,0.486-0.046,0.609c-1.018-0.051-1.811-0.074-2.648-0.074c-0.951,0-1.562,0.023-2.354,0.074
				c-0.157-0.123-0.181-0.463-0.045-0.609l0.61-0.071c0.521-0.05,0.883-0.222,0.996-0.486c0.317-0.877,0.295-3.844,0.295-5.012
				v-7.031c0-0.683-0.022-1.19-0.498-1.752c-0.316-0.341-0.86-0.511-1.403-0.584l-0.386-0.049c-0.135-0.146-0.135-0.511,0.045-0.607
				c0.951,0.072,2.151,0.072,2.56,0.072c0.362,0,0.747-0.024,1.042-0.072c0.452,1.24,3.146,4.451,3.872,5.353l2.196,2.652
				c1.539,1.896,2.672,3.233,3.736,4.401h0.045c0.09-0.121,0.09-0.51,0.09-1.021v-5.205c0-1.146-0.021-4.308-0.453-5.037
				c-0.135-0.219-0.497-0.365-1.402-0.486l-0.385-0.049c-0.159-0.146-0.137-0.535,0.045-0.607c1.042,0.049,1.812,0.072,2.673,0.072
				c0.974,0,1.562-0.023,2.331-0.072c0.182,0.121,0.182,0.463,0.046,0.607l-0.317,0.049c-0.724,0.121-1.178,0.316-1.268,0.512
				c-0.386,0.875-0.34,3.893-0.34,5.012V99.92L122.455,99.92z"/>
		</g>
		<g>
			<path fill="#ECF0F0" d="M16.817,106.676c0.4,0,1-0.023,1.601-0.047c0.578-0.025,1.778-0.168,2.334-0.168
				c1.734,0,3.179,0.502,4.046,1.527c0.822,0.908,1.133,2.104,1.133,3.104c0,2.175-1,3.25-1.823,3.822
				c-0.8,0.621-1.867,0.765-2.423,0.765c-0.267,0-0.556-0.048-0.689-0.095c-0.133-0.049-0.267-0.121-0.267-0.217
				c0-0.048,0.067-0.119,0.245-0.095c0.178,0.023,0.244,0.023,0.422,0.023c0.733,0,2.779-0.668,2.779-4.037
				c0-0.859-0.222-2.197-1.045-3.152c-0.689-0.885-1.445-1.266-2.445-1.266c-0.355,0-0.822,0.07-0.978,0.143
				c-0.089,0.023-0.178,0.191-0.178,0.406c0,0.43,0,5.471,0,8.025c0,2.557,0.066,4.107,0.111,4.777c0.044,0.932,0.333,1.17,1,1.266
				c0.333,0.072,0.445,0.119,0.445,0.24c0,0.119-0.156,0.166-0.378,0.166c-0.556,0-1.201-0.119-2.245-0.119
				c-0.667,0-1.356,0.096-1.624,0.096c-0.155,0-0.378-0.049-0.378-0.143c0-0.098,0.089-0.168,0.378-0.217
				c0.667-0.144,0.912-0.312,0.956-1.099c0.044-0.551,0.066-3.225,0.066-6.95c0-2.316-0.088-5.039-0.155-5.591
				c-0.022-0.452-0.267-0.717-0.912-0.786c-0.111-0.025-0.355-0.072-0.355-0.216C16.44,106.771,16.618,106.676,16.817,106.676z"/>
		</g>
		<g>
			<path fill="#ECF0F0" d="M27.978,121.104c-0.311-0.383-0.4-1.004-0.422-1.457c0-0.789,0-4.826-0.045-5.231
				c-0.021-0.431-0.244-0.621-0.489-0.787c-0.2-0.146-0.267-0.215-0.267-0.287c0-0.071,0.111-0.118,0.355-0.118
				c0.734,0,1.534-0.216,1.867-0.312c0.067-0.022,0.134,0.118,0.111,0.262c-0.066,1.361-0.089,4.611-0.066,5.709
				c0.022,1.004,0.2,1.388,0.333,1.576c0.289,0.383,0.778,0.599,1.245,0.599c0.778,0,1.312-0.191,1.89-0.765
				c0.245-0.237,0.377-0.574,0.4-1.101c0.044-0.645,0.044-1.575,0.044-2.436c0-0.357-0.022-1.48-0.022-2.102
				c-0.022-0.812-0.245-0.932-0.978-1.1c-0.245-0.048-0.356-0.119-0.356-0.191c0-0.096,0.2-0.143,0.333-0.143
				c0.289,0,0.556,0,0.934,0c0.934,0,1.29-0.144,1.534-0.144c0.067,0,0.111,0.094,0.089,0.262c-0.111,1.123-0.156,3.513-0.156,6.281
				c0,0.573,0,0.957,0.044,1.219c0.044,0.238,0.111,0.287,0.289,0.265c0.223-0.072,0.778-0.215,0.912-0.215
				c0.156,0,0.267,0.143,0.267,0.262c0,0.096-0.2,0.143-0.422,0.19c-0.267,0.023-1.645,0.312-2.29,0.646
				c-0.178,0.096-0.222,0.072-0.267,0c-0.044-0.072-0.044-0.191-0.044-0.453c0-0.24,0.022-0.766,0.022-0.932
				c0-0.072-0.022-0.238-0.067-0.168c-0.489,0.479-1.134,1.004-1.534,1.17c-0.422,0.19-0.934,0.358-1.312,0.358
				C29.067,121.963,28.467,121.771,27.978,121.104z"/>
		</g>
		<g>
			<path fill="#ECF0F0" d="M43.673,120.363c-0.889,1.002-2.246,1.646-3.423,1.646c-0.779,0-1.824-0.237-2.557-0.598
				c-0.156-0.095-0.311-0.047-0.645,0.071c-0.067,0.025-0.134-0.096-0.111-0.166c0.044-0.336,0.089-0.86,0.134-2.174
				c0.044-1.17,0.155-6.449,0.155-7.858c0-1.72-0.044-3.701-0.067-4.084c-0.044-0.479-0.133-0.572-0.6-0.908
				c-0.178-0.119-0.267-0.19-0.267-0.263c0-0.071,0.112-0.168,0.445-0.215c0.422-0.071,1.112-0.264,1.579-0.479
				c0.2-0.096,0.311-0.096,0.355-0.096c0.045,0,0.089,0.096,0.067,0.43c-0.067,1.434-0.111,4.85-0.111,8.002
				c0,0.119,0.089,0.145,0.111,0.119c0.511-0.406,1.312-0.811,2.379-0.811c1.201,0,2.157,0.668,2.668,1.289
				c0.689,0.812,1,1.887,1,2.864C44.784,118.619,44.318,119.621,43.673,120.363z M42.384,114.869
				c-0.4-0.502-1.268-1.172-2.268-1.172c-0.667,0-1.156,0.24-1.333,0.406c-0.089,0.071-0.178,0.311-0.201,0.646
				c-0.044,0.381-0.022,2.244-0.022,3.176c0,0.886,0.111,2.127,0.311,2.558c0.134,0.285,0.422,0.477,0.6,0.596
				c0.356,0.264,1.023,0.455,1.49,0.455c0.4,0,1.112-0.287,1.534-0.859c0.489-0.646,0.778-1.863,0.778-2.963
				C43.273,116.803,42.984,115.656,42.384,114.869z"/>
		</g>
		<g>
			<path fill="#ECF0F0" d="M48.452,115.943c0,3.01,0.022,4.133,0.044,4.586c0.022,0.645,0.156,0.812,0.778,0.932
				c0.133,0.023,0.289,0.096,0.289,0.168c0,0.096-0.156,0.166-0.445,0.166c-0.355,0-1.156-0.047-1.534-0.047
				c-0.578,0-1.156,0.047-1.489,0.047c-0.267,0-0.378-0.023-0.378-0.143c0-0.12,0.111-0.144,0.4-0.215
				c0.556-0.119,0.689-0.334,0.778-1.386c0.044-0.885,0.133-4.922,0.156-7.786c0-1.937,0.022-3.896,0-4.945
				c0-0.525-0.044-0.646-0.623-1.027c-0.156-0.094-0.222-0.143-0.222-0.215c0-0.07,0.133-0.143,0.333-0.191
				c0.645-0.143,1.179-0.357,1.667-0.549c0.067-0.023,0.178-0.07,0.267-0.07c0.044,0,0.067,0.144,0.067,0.262
				c0,0.169-0.089,4.3-0.089,7.884L48.452,115.943L48.452,115.943z"/>
		</g>
		<g>
			<path fill="#ECF0F0" d="M51.275,113.602c0.6-0.166,1.134-0.403,1.601-0.619c0.178-0.119,0.289-0.168,0.333-0.168
				c0.067,0,0.111,0.072,0.089,0.334c-0.045,0.479-0.045,1.937-0.045,3.463c0,2.009,0,3.775,0.045,4.183
				c0.044,0.478,0.266,0.597,0.623,0.69c0.222,0.05,0.333,0.097,0.333,0.191c0,0.119-0.178,0.168-0.355,0.168
				c-0.2,0-1.023-0.096-1.623-0.096c-0.733,0-1.089,0.047-1.334,0.047c-0.156,0-0.312-0.047-0.312-0.143s0.112-0.168,0.423-0.215
				c0.489-0.146,0.689-0.334,0.711-1.314c0.022-0.717,0.066-5.062,0.066-5.303c0-0.334-0.022-0.478-0.645-0.836
				c-0.111-0.07-0.178-0.144-0.178-0.191C51.008,113.723,51.075,113.65,51.275,113.602z M53.499,109.709
				c0,0.646-0.534,0.908-0.823,0.908c-0.4,0-0.733-0.406-0.733-0.885c0-0.597,0.422-0.933,0.778-0.933
				C53.232,108.801,53.499,109.303,53.499,109.709z"/>
		</g>
		<g>
			<path fill="#ECF0F0" d="M57.033,117.018c0,1.603,0.578,2.604,1.111,3.105c0.578,0.574,1.4,0.836,2.067,0.836
				c0.957,0,1.534-0.166,2.312-0.906c0.044-0.049,0.156-0.072,0.156,0c0,0.094-0.044,0.215-0.178,0.381
				c-0.4,0.574-1.423,1.576-3.068,1.576c-1,0-2.045-0.406-2.779-1.17c-0.712-0.764-1.112-1.91-1.112-3.225
				c0-1.504,0.689-2.65,1.356-3.32c0.688-0.693,1.845-1.385,3.29-1.385c0.956,0,1.645,0.287,2.023,0.598
				c0.245,0.143,0.311,0.334,0.311,0.453c0,0.453-0.4,0.764-0.556,0.764c-0.089,0-0.245-0.094-0.378-0.238
				c-0.356-0.383-0.912-0.788-1.245-0.979c-0.267-0.145-0.601-0.191-0.845-0.191C58.567,113.316,57.033,114.271,57.033,117.018z"/>
		</g>
		<g>
			<path fill="#ECF0F0" d="M74.527,106.771c0.113,0.049,0.156,0.19,0.156,0.262c0,0.646,0.066,1.338,0.09,1.602
				c0.045,0.311-0.022,0.477-0.111,0.477s-0.155-0.118-0.2-0.381c-0.178-0.621-0.399-1.1-0.845-1.41
				c-0.489-0.405-1.223-0.62-1.801-0.62c-1.045,0-2.602,0.954-2.602,2.938c0,1.313,0.778,2.174,1.578,2.771
				c0.867,0.62,1.578,1.17,2.289,1.721c0.846,0.646,2.113,1.72,2.113,3.797c0,2.652-2.336,4.253-4.646,4.253
				c-0.979,0-2.335-0.265-3.023-0.669c-0.244-0.145-0.334-0.311-0.379-0.646c-0.043-0.381-0.222-1.17-0.222-1.742
				c-0.022-0.264,0.022-0.455,0.111-0.455c0.088,0,0.155,0.145,0.243,0.479c0.4,1.791,1.847,2.604,3.27,2.604
				c1.778,0,2.936-1.528,2.936-3.104c0-1.625-1.067-2.531-2.668-3.679c-1.713-1.241-3.068-2.532-3.068-4.586
				c0-1.313,0.534-2.342,1.423-3.082c0.601-0.502,1.578-0.955,2.868-0.955C73.062,106.342,74.15,106.652,74.527,106.771z"/>
		</g>
		<g>
			<path fill="#ECF0F0" d="M78.463,117.018c0,1.603,0.578,2.604,1.111,3.105c0.578,0.574,1.4,0.836,2.068,0.836
				c0.955,0,1.533-0.166,2.312-0.906c0.045-0.049,0.155-0.072,0.155,0c0,0.094-0.045,0.215-0.178,0.381
				c-0.399,0.574-1.423,1.576-3.068,1.576c-1,0-2.045-0.406-2.778-1.17c-0.711-0.764-1.112-1.91-1.112-3.225
				c0-1.504,0.69-2.65,1.356-3.32c0.69-0.693,1.846-1.385,3.291-1.385c0.956,0,1.646,0.287,2.022,0.598
				c0.244,0.143,0.312,0.334,0.312,0.453c0,0.453-0.399,0.764-0.556,0.764c-0.088,0-0.244-0.094-0.379-0.238
				c-0.354-0.383-0.912-0.788-1.244-0.979c-0.268-0.145-0.601-0.191-0.846-0.191C79.997,113.316,78.463,114.271,78.463,117.018z"/>
		</g>
		<g>
			<path fill="#ECF0F0" d="M87.488,114.631c-0.111,0.094-0.223,0.381-0.223,0.883c-0.021,3.582,0.067,4.729,0.11,5.135
				c0.067,0.431,0.224,0.718,0.712,0.812c0.334,0.072,0.489,0.119,0.489,0.24c0,0.07-0.134,0.143-0.333,0.143
				c-0.623,0-1.201-0.096-1.846-0.096c-0.689,0-1.022,0.096-1.445,0.096c-0.244,0-0.355-0.049-0.355-0.143
				c0-0.098,0.09-0.145,0.355-0.217c0.646-0.166,0.8-0.238,0.822-1.146c0.066-0.955,0.09-3.152,0.09-6.951
				c0-3.604,0.044-5.062,0-5.971c-0.022-0.764-0.178-0.836-0.667-1.123c-0.089-0.07-0.156-0.119-0.156-0.191
				c0-0.069,0.134-0.143,0.378-0.215c0.689-0.215,1.2-0.334,1.623-0.572c0.111-0.071,0.178-0.096,0.223-0.096
				c0.067,0,0.135,0.168,0.11,0.502c-0.021,0.646-0.11,8.049-0.088,8.504c0,0.096,0.065,0.119,0.088,0.07
				c0.269-0.262,0.89-0.74,1.334-0.979c0.379-0.215,0.956-0.406,1.558-0.406c0.688,0,1.467,0.262,2,1.074
				c0.223,0.311,0.467,1.051,0.489,2.557c0.022,1.791,0.022,3.271,0.045,4.18c0,0.479,0.089,0.646,0.757,0.764
				c0.287,0.072,0.354,0.119,0.354,0.218c0,0.094-0.155,0.166-0.354,0.166c-0.58,0-1.002-0.119-1.602-0.119
				c-0.756,0-0.936,0.097-1.445,0.097c-0.267,0-0.355-0.072-0.355-0.144c0-0.099,0.111-0.146,0.334-0.191
				c0.601-0.145,0.645-0.311,0.734-1.004c0.043-0.549,0.088-1.6,0.088-4.084c0-0.598-0.065-1.269-0.334-1.791
				c-0.289-0.526-0.777-0.885-1.533-0.885C88.512,113.746,87.844,114.225,87.488,114.631z"/>
		</g>
		<g>
			<path fill="#ECF0F0" d="M103.451,117.424c0,1.816-1,3.105-1.713,3.703c-0.688,0.574-1.711,0.908-2.512,0.908
				c-2.289,0-4.313-1.936-4.313-4.42c0-1.814,0.778-2.984,1.603-3.701c0.6-0.502,1.601-1.004,2.666-1.004
				C101.605,112.91,103.451,114.893,103.451,117.424z M96.516,117.09c0,1.004,0.223,2.27,0.934,3.273
				c0.601,0.883,1.4,1.266,2.09,1.266c0.533,0,1.045-0.264,1.4-0.598c0.332-0.334,0.934-1.48,0.934-3.201
				c0-2.27-1.066-4.514-3.023-4.514C97.716,113.316,96.516,114.605,96.516,117.09z"/>
		</g>
		<g>
			<path fill="#ECF0F0" d="M113.455,117.424c0,1.816-1.001,3.105-1.712,3.703c-0.688,0.574-1.712,0.908-2.513,0.908
				c-2.291,0-4.312-1.936-4.312-4.42c0-1.814,0.777-2.984,1.6-3.701c0.602-0.502,1.603-1.004,2.67-1.004
				C111.609,112.91,113.455,114.893,113.455,117.424z M106.518,117.09c0,1.004,0.225,2.27,0.936,3.273
				c0.602,0.883,1.4,1.266,2.09,1.266c0.533,0,1.045-0.264,1.4-0.598c0.332-0.334,0.935-1.48,0.935-3.201
				c0-2.27-1.067-4.514-3.024-4.514C107.721,113.316,106.518,114.605,106.518,117.09z"/>
		</g>
		<g>
			<path fill="#ECF0F0" d="M117.123,115.943c0,3.01,0.021,4.133,0.044,4.586c0.022,0.645,0.155,0.812,0.778,0.932
				c0.134,0.023,0.287,0.096,0.287,0.168c0,0.096-0.153,0.166-0.443,0.166c-0.355,0-1.155-0.047-1.533-0.047
				c-0.579,0-1.156,0.047-1.488,0.047c-0.269,0-0.379-0.023-0.379-0.143c0-0.12,0.11-0.144,0.399-0.215
				c0.556-0.119,0.688-0.334,0.778-1.386c0.043-0.885,0.133-4.922,0.154-7.786c0-1.937,0.022-3.896,0-4.945
				c0-0.525-0.045-0.646-0.621-1.027c-0.156-0.094-0.224-0.143-0.224-0.215c0-0.07,0.134-0.143,0.333-0.191
				c0.646-0.143,1.18-0.357,1.668-0.549c0.066-0.023,0.178-0.07,0.268-0.07c0.045,0,0.066,0.144,0.066,0.262
				c0,0.169-0.089,4.3-0.089,7.884L117.123,115.943L117.123,115.943z"/>
		</g>
		<g>
			<path fill="#ECF0F0" d="M121.034,114.75c0,1.002,0.846,1.576,1.401,1.934c1.443,1.004,2.021,1.603,2.021,2.818
				c0,1.051-0.711,1.697-1.155,2.008c-0.489,0.334-1.245,0.525-1.778,0.525c-0.578,0-1.09-0.145-1.756-0.432
				c-0.179-0.07-0.334-0.238-0.334-0.381c0-0.334-0.045-0.933-0.066-1.195c-0.045-0.312,0.021-0.381,0.066-0.381
				c0.066,0,0.135,0,0.289,0.453c0.178,0.598,0.533,1.026,0.935,1.289c0.333,0.239,0.667,0.286,1,0.286
				c0.622,0,1.444-0.62,1.444-1.6c0-0.908-0.578-1.41-1.467-2.009c-0.957-0.668-1.846-1.551-1.846-2.604
				c0-0.859,0.355-1.504,0.845-1.887c0.399-0.357,1.022-0.668,1.867-0.668c0.601,0,1.245,0.168,1.513,0.262
				c0.045,0.049,0.11,0.145,0.11,0.215c0.022,0.264,0.11,0.742,0.134,1.123c0,0.264-0.045,0.383-0.111,0.383
				c-0.088,0-0.133-0.119-0.199-0.287c-0.11-0.356-0.2-0.69-0.533-0.979c-0.245-0.191-0.623-0.359-1.045-0.359
				C121.657,113.268,121.034,113.793,121.034,114.75z"/>
		</g>
	</g>
	<g>
		<g>
			<path fill="#ECF0F0" d="M19.249,132.887c0,0.479,0.053,0.479,0.583,0.479h1.203c0.726,0,1.292-0.035,1.504-0.105
				c0.194-0.071,0.336-0.159,0.442-0.618l0.16-0.709c0.088-0.105,0.389-0.105,0.459,0c0,0.426-0.071,1.133-0.071,1.787
				c0,0.637,0.071,1.309,0.071,1.717c-0.071,0.104-0.336,0.104-0.459,0l-0.177-0.691c-0.071-0.318-0.23-0.564-0.566-0.672
				c-0.248-0.07-0.69-0.088-1.362-0.088h-1.203c-0.53,0-0.583,0.018-0.583,0.479v2.459c0,1.857,0.035,2.123,1.079,2.211l0.602,0.053
				c0.106,0.07,0.071,0.392-0.035,0.443c-1.044-0.035-1.646-0.053-2.354-0.053c-0.778,0-1.38,0.018-2.212,0.053
				c-0.106-0.053-0.141-0.336-0.035-0.443l0.442-0.053c1.026-0.123,1.062-0.354,1.062-2.211v-6.369c0-1.859-0.035-2.106-1.062-2.229
				l-0.283-0.035c-0.106-0.069-0.07-0.39,0.036-0.44c0.743,0.032,1.345,0.053,2.052,0.053h3.256c1.132,0,2.159,0,2.389-0.053
				c0,0.812,0.017,1.661,0.053,2.334c-0.053,0.106-0.301,0.159-0.424,0.053c-0.142-0.795-0.354-1.432-1.239-1.68
				c-0.389-0.089-0.973-0.107-1.716-0.107h-1.079c-0.531,0-0.531,0.037-0.531,0.709v3.729H19.249z"/>
		</g>
		<g>
			<path fill="#ECF0F0" d="M31.28,136.02c0,2.211-1.522,3.806-3.733,3.806c-2.035,0-3.627-1.435-3.627-3.646
				c0-2.229,1.681-3.82,3.768-3.82C29.669,132.357,31.28,133.844,31.28,136.02z M27.476,132.887c-1.168,0-2.035,1.115-2.035,3.062
				c0,1.61,0.725,3.346,2.282,3.346c1.557,0,2.035-1.629,2.035-2.989C29.758,134.799,29.156,132.887,27.476,132.887z"/>
		</g>
		<g>
			<path fill="#ECF0F0" d="M37.277,132.658c0.142,0.123,0.266,0.406,0.266,0.707c0,0.318-0.177,0.654-0.389,0.654
				c-0.088,0-0.177-0.035-0.248-0.123c-0.389-0.479-1.044-0.939-1.769-0.939c-1.238,0-2.442,0.975-2.442,2.85
				c0,1.381,0.956,3.025,2.849,3.025c1.026,0,1.557-0.459,1.963-1.061c0.142-0.037,0.301,0.088,0.319,0.246
				c-0.602,1.311-1.929,1.807-2.955,1.807c-0.938,0-1.805-0.303-2.424-0.902c-0.619-0.604-1.026-1.469-1.026-2.619
				c0-1.912,1.345-3.945,4.282-3.945C36.109,132.357,36.799,132.445,37.277,132.658z"/>
		</g>
		<g>
			<path fill="#ECF0F0" d="M39.56,136.975c0,1.221,0.301,2.035,1.646,2.035c0.478,0,1.044-0.195,1.433-0.531
				c0.23-0.213,0.354-0.479,0.354-1.024v-2.902c0-1.149-0.124-1.186-0.655-1.397l-0.23-0.088c-0.124-0.07-0.124-0.318,0.018-0.39
				c0.708-0.018,1.681-0.143,2.07-0.317c0.088,0.018,0.142,0.053,0.159,0.123c-0.035,0.336-0.053,0.885-0.053,1.539v2.973
				c0,1.398,0.053,1.93,0.548,1.93c0.213,0,0.442-0.037,0.69-0.09c0.106,0.09,0.124,0.443-0.018,0.514
				c-0.69,0.142-1.716,0.318-2.318,0.654c-0.088,0-0.177-0.053-0.212-0.123v-0.727c0-0.158-0.054-0.248-0.16-0.248
				c-0.531,0.336-1.397,0.922-2.441,0.922c-1.557,0-2.141-0.779-2.141-2.213v-2.955c0-1.113,0-1.273-0.531-1.504l-0.212-0.088
				c-0.106-0.088-0.088-0.336,0.036-0.389c0.814-0.019,1.504-0.179,1.893-0.318c0.106,0.018,0.159,0.053,0.177,0.123
				c-0.036,0.301-0.053,0.672-0.053,1.539V136.975z"/>
		</g>
		<g>
			<path fill="#ECF0F0" d="M49.538,132.676c0.159,0.389,0.283,0.955,0.283,1.432c-0.071,0.125-0.336,0.16-0.425,0.056
				c-0.301-0.779-0.832-1.293-1.557-1.293c-0.69,0-1.132,0.442-1.132,1.08c0,0.725,0.744,1.114,1.362,1.469
				c0.938,0.529,1.805,1.131,1.805,2.39c0,1.344-1.238,2.018-2.547,2.018c-0.832,0-1.451-0.178-1.893-0.531
				c-0.142-0.336-0.248-1.203-0.213-1.787c0.089-0.107,0.319-0.125,0.407-0.018c0.301,0.973,0.867,1.822,1.876,1.822
				c0.637,0,1.185-0.373,1.185-1.133c0-0.814-0.708-1.257-1.362-1.63c-1.027-0.582-1.752-1.2-1.752-2.176
				c0-1.291,1.062-2.017,2.406-2.017C48.724,132.357,49.379,132.533,49.538,132.676z"/>
		</g>
		<g>
			<path fill="#ECF0F0" d="M60.578,136.02c0,2.211-1.521,3.806-3.733,3.806c-2.035,0-3.627-1.435-3.627-3.646
				c0-2.229,1.681-3.82,3.768-3.82C58.968,132.357,60.578,133.844,60.578,136.02z M56.774,132.887c-1.168,0-2.035,1.115-2.035,3.062
				c0,1.61,0.725,3.346,2.282,3.346s2.035-1.629,2.035-2.989C59.057,134.799,58.455,132.887,56.774,132.887z"/>
		</g>
		<g>
			<path fill="#ECF0F0" d="M61.817,134.498c0-0.691,0-0.779-0.478-1.098l-0.159-0.105c-0.071-0.072-0.071-0.266,0.017-0.318
				c0.407-0.143,1.416-0.602,1.77-0.867c0.071,0,0.159,0.035,0.195,0.123c-0.036,0.408-0.036,0.672-0.036,0.832
				c0,0.105,0.07,0.195,0.194,0.195c0.743-0.461,1.575-0.902,2.478-0.902c1.47,0,2.07,1.009,2.07,2.193v3.043
				c0,1.273,0.034,1.451,0.673,1.539l0.389,0.053c0.123,0.09,0.09,0.392-0.035,0.443c-0.531-0.035-1.045-0.053-1.664-0.053
				c-0.637,0-1.166,0.018-1.645,0.053c-0.124-0.053-0.16-0.354-0.036-0.443l0.336-0.053c0.655-0.105,0.673-0.266,0.673-1.539v-2.637
				c0-1.008-0.459-1.752-1.662-1.752c-0.672,0-1.256,0.283-1.504,0.619c-0.229,0.301-0.266,0.549-0.266,1.062v2.706
				c0,1.273,0.036,1.435,0.672,1.539l0.319,0.054c0.124,0.09,0.088,0.391-0.035,0.442c-0.479-0.035-0.991-0.053-1.611-0.053
				c-0.637,0-1.167,0.018-1.663,0.053c-0.124-0.053-0.16-0.354-0.036-0.442l0.372-0.054c0.654-0.088,0.672-0.266,0.672-1.539
				L61.817,134.498L61.817,134.498z"/>
		</g>
		<g>
			<path fill="#ECF0F0" d="M74.573,129.119c1.292-1.008,2.937-1.504,4.776-1.504c0.955,0,2.301,0.195,3.131,0.424
				c0.213,0.053,0.338,0.088,0.496,0.072c0.019,0.406,0.105,1.521,0.248,2.6c-0.088,0.125-0.354,0.143-0.479,0.035
				c-0.266-1.203-1.061-2.582-3.627-2.582c-2.707,0-5.008,1.715-5.008,5.379c0,3.715,2.354,5.768,5.256,5.768
				c2.281,0,3.291-1.485,3.697-2.53c0.125-0.089,0.39-0.054,0.461,0.071c-0.125,0.92-0.584,2.086-0.851,2.424
				c-0.213,0.035-0.425,0.105-0.618,0.177c-0.391,0.144-1.664,0.407-2.796,0.407c-1.593,0-3.114-0.319-4.405-1.186
				c-1.416-0.973-2.514-2.584-2.514-4.867C72.344,131.844,73.229,130.162,74.573,129.119z"/>
		</g>
		<g>
			<path fill="#ECF0F0" d="M84.32,129.596c0-1.043-0.018-1.15-0.547-1.469l-0.178-0.105c-0.089-0.053-0.089-0.301,0-0.354
				c0.442-0.143,1.273-0.406,1.911-0.744c0.07,0,0.142,0.037,0.177,0.107c-0.019,0.531-0.053,1.414-0.053,2.193v3.717
				c0,0.158,0.018,0.301,0.07,0.336c0.637-0.496,1.486-0.92,2.388-0.92c1.683,0,2.283,1.043,2.283,2.281v2.954
				c0,1.273,0.035,1.47,0.672,1.539l0.478,0.054c0.125,0.09,0.09,0.391-0.033,0.442c-0.639-0.035-1.15-0.053-1.771-0.053
				c-0.638,0-1.168,0.018-1.646,0.053c-0.124-0.053-0.159-0.354-0.036-0.442l0.354-0.054c0.654-0.104,0.672-0.266,0.672-1.539
				v-2.528c0-1.133-0.549-1.896-1.682-1.896c-0.602,0-1.062,0.213-1.381,0.479c-0.316,0.266-0.37,0.354-0.37,0.973v2.973
				c0,1.273,0.034,1.451,0.672,1.539l0.371,0.053c0.124,0.07,0.089,0.392-0.034,0.443c-0.531-0.035-1.045-0.053-1.664-0.053
				c-0.637,0-1.168,0.018-1.733,0.053c-0.124-0.053-0.159-0.354-0.035-0.443l0.442-0.053c0.653-0.07,0.672-0.266,0.672-1.539
				V129.596L84.32,129.596z"/>
		</g>
		<g>
			<path fill="#ECF0F0" d="M92.496,134.498c0-0.691,0-0.779-0.479-1.098l-0.16-0.105c-0.069-0.072-0.069-0.266,0.019-0.318
				c0.407-0.143,1.417-0.602,1.823-0.867c0.089,0,0.158,0.035,0.177,0.105c-0.035,0.619-0.069,1.469-0.069,2.195v3.184
				c0,1.273,0.034,1.451,0.672,1.539l0.371,0.053c0.123,0.09,0.088,0.392-0.035,0.443c-0.53-0.035-1.045-0.053-1.664-0.053
				c-0.637,0-1.168,0.018-1.662,0.053c-0.123-0.053-0.159-0.354-0.035-0.443l0.372-0.053c0.653-0.088,0.672-0.266,0.672-1.539
				L92.496,134.498L92.496,134.498z M93.945,128.766c0,0.619-0.441,0.9-0.92,0.9c-0.549,0-0.901-0.389-0.901-0.865
				c0-0.584,0.442-0.938,0.955-0.938C93.609,127.863,93.945,128.27,93.945,128.766z"/>
		</g>
		<g>
			<path fill="#ECF0F0" d="M97.061,137.594c0,1.273,0.037,1.451,0.672,1.539l0.427,0.053c0.123,0.09,0.088,0.392-0.036,0.443
				c-0.584-0.035-1.098-0.053-1.717-0.053c-0.637,0-1.168,0.018-1.698,0.053c-0.124-0.053-0.159-0.354-0.035-0.443l0.407-0.053
				c0.654-0.088,0.673-0.266,0.673-1.539v-7.998c0-1.043-0.019-1.15-0.549-1.469l-0.177-0.105c-0.09-0.053-0.09-0.301,0-0.354
				c0.441-0.143,1.272-0.406,1.91-0.744c0.069,0,0.143,0.037,0.176,0.107c-0.016,0.531-0.053,1.414-0.053,2.193V137.594
				L97.061,137.594z"/>
		</g>
		<g>
			<path fill="#ECF0F0" d="M104.951,136.992c0,1.398,0.018,2.053,0.514,2.053c0.194,0,0.495-0.088,0.762-0.178
				c0.123,0.035,0.142,0.479-0.019,0.566c-0.743,0.104-1.841,0.371-2.336,0.565c-0.106,0-0.194-0.054-0.194-0.142v-0.301
				c0-0.266,0-0.479-0.035-0.549h-0.069c-0.779,0.529-1.382,0.814-2.229,0.814c-1.965,0-3.273-1.541-3.273-3.398
				c0-2.477,1.875-4.068,4.281-4.068c0.603,0,0.99,0.088,1.187,0.158c0.088,0,0.106-0.104,0.106-0.248v-2.672
				c0-1.043-0.02-1.15-0.549-1.469l-0.178-0.105c-0.088-0.053-0.088-0.301,0-0.354c0.441-0.143,1.273-0.406,1.91-0.744
				c0.07,0,0.143,0.037,0.178,0.107c-0.018,0.531-0.054,1.414-0.054,2.193L104.951,136.992L104.951,136.992z M103.643,134.338
				c0-0.354-0.069-0.514-0.193-0.689c-0.266-0.371-0.797-0.744-1.486-0.744c-1.609,0-2.441,1.398-2.441,2.938
				c0,1.611,0.901,3.134,2.637,3.134c0.478,0,1.078-0.213,1.361-0.496c0.105-0.105,0.125-0.371,0.125-0.654v-3.488H103.643z"/>
		</g>
		<g>
			<path fill="#ECF0F0" d="M107.074,134.498c0-0.691,0-0.779-0.479-1.098l-0.158-0.105c-0.07-0.072-0.07-0.266,0.018-0.318
				c0.406-0.143,1.345-0.602,1.786-0.867c0.09,0.019,0.143,0.054,0.143,0.123v1.027c0,0.088,0.019,0.141,0.054,0.158
				c0.619-0.514,1.291-1.061,1.945-1.061c0.442,0,0.797,0.283,0.797,0.707c0,0.584-0.479,0.813-0.762,0.813
				c-0.177,0-0.266-0.055-0.389-0.125c-0.266-0.176-0.531-0.283-0.779-0.283c-0.283,0-0.495,0.16-0.637,0.354
				c-0.178,0.248-0.229,0.762-0.229,1.363v2.405c0,1.273,0.035,1.486,0.707,1.539l0.638,0.054c0.123,0.09,0.088,0.391-0.035,0.442
				c-0.832-0.035-1.346-0.053-1.965-0.053c-0.637,0-1.168,0.018-1.627,0.053c-0.123-0.053-0.16-0.354-0.035-0.442l0.336-0.054
				c0.654-0.104,0.673-0.266,0.673-1.539L107.074,134.498L107.074,134.498z"/>
		</g>
		<g>
			<path fill="#ECF0F0" d="M112.223,135.047c-0.459,0-0.478,0.035-0.478,0.477c0,1.787,1.044,3.31,2.938,3.31
				c0.582,0,1.078-0.176,1.627-0.867c0.178-0.053,0.301,0.054,0.318,0.214c-0.585,1.202-1.857,1.646-2.779,1.646
				c-1.148,0-2.052-0.496-2.564-1.168c-0.53-0.691-0.742-1.521-0.742-2.302c0-2.176,1.434-3.998,3.557-3.998
				c1.521,0,2.512,1.043,2.512,2.105c0,0.246-0.034,0.389-0.069,0.459c-0.054,0.105-0.301,0.125-1.044,0.125H112.223z
				 M113.32,134.516c1.309,0,1.697-0.07,1.84-0.178c0.053-0.035,0.105-0.105,0.105-0.336c0-0.496-0.336-1.115-1.363-1.115
				c-1.043,0-1.945,0.957-1.963,1.539c0,0.037,0,0.09,0.123,0.09H113.32z"/>
		</g>
		<g>
			<path fill="#ECF0F0" d="M117.548,134.498c0-0.691,0-0.779-0.478-1.098l-0.159-0.105c-0.07-0.072-0.07-0.266,0.019-0.318
				c0.406-0.143,1.416-0.602,1.77-0.867c0.07,0,0.158,0.035,0.193,0.123c-0.035,0.408-0.035,0.672-0.035,0.832
				c0,0.105,0.072,0.195,0.194,0.195c0.744-0.461,1.575-0.902,2.478-0.902c1.469,0,2.07,1.009,2.07,2.193v3.043
				c0,1.273,0.035,1.451,0.672,1.539l0.391,0.053c0.124,0.09,0.088,0.392-0.036,0.443c-0.53-0.035-1.043-0.053-1.662-0.053
				c-0.638,0-1.169,0.018-1.646,0.053c-0.125-0.053-0.159-0.354-0.035-0.443l0.337-0.053c0.653-0.105,0.672-0.266,0.672-1.539
				v-2.637c0-1.008-0.46-1.752-1.663-1.752c-0.673,0-1.257,0.283-1.504,0.619c-0.23,0.301-0.266,0.549-0.266,1.062v2.706
				c0,1.273,0.035,1.435,0.672,1.539l0.318,0.054c0.123,0.09,0.088,0.391-0.035,0.442c-0.479-0.035-0.99-0.053-1.609-0.053
				c-0.637,0-1.168,0.018-1.664,0.053c-0.124-0.053-0.158-0.354-0.034-0.442l0.371-0.054c0.653-0.088,0.672-0.266,0.672-1.539
				v-3.095H117.548z"/>
		</g>
	</g>
	<g>
		<line fill="#ECF0F0" x1="0" y1="125.225" x2="125" y2="125.225"/>
		<rect y="125.004" fill="#ECF0F0" width="125" height="0.441"/>
	</g>
	<g>
		<g>
			<path fill="#ECF0F0" d="M17.213,76.096c0-3.205,2.158-5.804,4.821-5.804c2.662,0,4.821,2.599,4.821,5.804
				c0,3.207-2.159,5.805-4.821,5.805C19.372,81.9,17.213,79.303,17.213,76.096L17.213,76.096z"/>
			<path fill="#ECF0F0" d="M22.034,81.93c-2.674,0-4.85-2.617-4.85-5.834c0-3.216,2.176-5.833,4.85-5.833
				c2.674,0,4.85,2.617,4.85,5.833C26.884,79.312,24.708,81.93,22.034,81.93z M22.034,70.321c-2.642,0-4.792,2.591-4.792,5.775
				c0,3.186,2.149,5.774,4.792,5.774c2.643,0,4.792-2.591,4.792-5.774S24.676,70.321,22.034,70.321z"/>
		</g>
		<g>
			<path fill="#ECF0F0" d="M39.528,104.15c-5.455-7.775-13.992-11.904-22.038-9.748C6.678,97.299,0.788,110.512,4.096,124.074
				C4.111,123.746,10.143,84.775,39.528,104.15L39.528,104.15z"/>
			<path fill="#ECF0F0" d="M4.068,124.08c-1.604-6.576-1.106-13.271,1.403-18.854c2.518-5.599,6.783-9.451,12.012-10.854
				c1.411-0.377,2.87-0.567,4.335-0.567c6.566,0,13.195,3.86,17.734,10.329l-0.04,0.041c-0.743-0.489-1.42-0.938-2.04-1.342
				c0.641,0.377,1.29,0.778,1.943,1.207c-4.525-6.377-11.093-10.181-17.598-10.181c-1.461,0-2.915,0.191-4.321,0.568
				c-5.211,1.396-9.463,5.24-11.973,10.82c-2.486,5.529-2.994,12.154-1.435,18.672c0.157-0.998,1.172-6.764,4.009-12.621
				c1.77-3.654,3.883-6.564,6.282-8.652c2.994-2.604,6.441-3.926,10.247-3.926c0.473,0,0.952,0.021,1.437,0.062
				c-0.444-0.005-0.921-0.005-1.437-0.005c-3.791,0-7.226,1.316-10.209,3.914c-2.392,2.082-4.501,4.986-6.268,8.634
				c-3.103,6.405-4.023,12.7-4.025,12.75L4.068,124.08z"/>
		</g>
		<g>
			<path fill="#ECF0F0" d="M3.7,100.174c0,0,1.63-6.119,15.167-8.684c13.774-2.611,16.606-16.754,16.606-16.754
				c-0.015-0.037-2.958,7.959-16.147,9.643C6.378,86.032,3.623,100.029,3.7,100.174L3.7,100.174z"/>
			<path fill="#ECF0F0" d="M3.709,100.252l-0.035-0.064c-0.043-0.082,0.46-2.725,2.064-5.828c2.087-4.041,6.138-9.059,13.584-10.008
				c11.934-1.523,15.506-8.246,16.101-9.578c0.028-0.062,0.029-0.064,0.05-0.064h0.02l0.01,0.025l-0.001,0.01
				c-0.007,0.035-0.737,3.585-3.142,7.406c-1.413,2.244-3.118,4.145-5.07,5.644c-2.439,1.875-5.271,3.129-8.418,3.726
				c-3.856,0.729-9.18,2.244-12.646,5.299c-2.069,1.822-2.494,3.35-2.498,3.365L3.709,100.252z M35.383,74.997
				c-0.825,1.702-4.598,7.948-16.054,9.411c-4.694,0.6-8.568,2.871-11.516,6.754c-1.672,2.203-2.692,4.492-3.254,6.025
				c-0.472,1.289-0.708,2.272-0.794,2.719c0.213-0.516,0.841-1.742,2.422-3.135c3.476-3.062,8.81-4.578,12.673-5.312
				c3.137-0.594,5.96-1.844,8.392-3.713c1.946-1.495,3.647-3.39,5.056-5.627C34.33,78.908,35.166,75.891,35.383,74.997z"/>
		</g>
	</g>
</g>
<g>
	<g>
		<g>
			<path fill="#34495D" d="M42.413,20.897c0-1.799-0.09-2.237-1.11-2.359l-0.725-0.072c-0.181-0.146-0.158-0.512,0.023-0.608
				c1.223-0.122,2.763-0.194,4.869-0.194c1.427,0,2.785,0.121,3.804,0.681c0.974,0.511,1.721,1.485,1.721,3.042
				c0,1.75-0.952,2.65-2.311,3.332c0,0.244,0.181,0.316,0.431,0.365c1.223,0.244,3.035,1.459,3.035,4.062
				c0,2.822-1.948,4.721-6.024,4.721c-0.656,0-1.766-0.074-2.717-0.074c-0.997,0-1.766,0.049-2.604,0.074
				c-0.136-0.074-0.181-0.463-0.045-0.609l0.408-0.072c1.2-0.195,1.245-0.486,1.245-3.041V20.897z M44.27,24.134
				c0,0.682,0.022,0.73,1.177,0.682c2.31-0.098,3.555-0.828,3.555-3.113c0-2.385-1.653-3.285-3.374-3.285
				c-0.498,0-0.838,0.049-1.042,0.146c-0.227,0.073-0.317,0.194-0.317,0.633L44.27,24.134L44.27,24.134z M44.27,29.778
				c0,0.875,0.045,2.117,0.476,2.652c0.43,0.559,1.109,0.68,1.789,0.68c2.015,0,3.555-0.973,3.555-3.404
				c0-1.924-0.906-4.16-4.506-4.16c-1.223,0-1.313,0.145-1.313,0.633L44.27,29.778L44.27,29.778z"/>
		</g>
		<g>
			<path fill="#34495D" d="M52.828,25.935c0-4.865,3.396-8.588,8.061-8.588c5.231,0,7.858,4.062,7.858,8.344
				c0,4.914-3.488,8.49-7.858,8.49C55.862,34.181,52.828,30.313,52.828,25.935z M66.48,26.444c0-4.014-1.651-8.344-5.977-8.344
				c-2.355,0-5.412,1.729-5.412,7.055c0,3.602,1.631,8.271,6.091,8.271C63.9,33.427,66.48,31.237,66.48,26.444z"/>
		</g>
		<g>
			<path fill="#34495D" d="M73.434,34.181c-1.901,0-3.103-0.631-3.533-0.9c-0.271-0.535-0.564-2.262-0.61-3.404
				c0.112-0.17,0.453-0.219,0.544-0.074c0.339,1.242,1.27,3.625,3.895,3.625c1.901,0,2.832-1.338,2.832-2.797
				c0-1.07-0.205-2.264-1.857-3.406l-2.15-1.508c-1.133-0.803-2.445-2.189-2.445-4.186c0-2.311,1.676-4.184,4.619-4.184
				c0.701,0,1.517,0.121,2.105,0.316c0.294,0.072,0.611,0.146,0.792,0.146c0.204,0.584,0.408,1.946,0.408,2.968
				c-0.091,0.146-0.454,0.219-0.567,0.074c-0.293-1.168-0.904-2.75-3.078-2.75c-2.22,0-2.695,1.582-2.695,2.701
				c0,1.41,1.088,2.408,1.926,2.992l1.812,1.217c1.426,0.947,2.83,2.359,2.83,4.67C78.257,32.356,76.377,34.181,73.434,34.181z"/>
		</g>
		<g>
			<path fill="#34495D" d="M86.34,30.144c0,2.555,0.045,2.895,1.358,3.041l0.725,0.072c0.138,0.098,0.091,0.535-0.045,0.609
				c-1.291-0.051-2.062-0.074-2.967-0.074s-1.698,0.023-3.147,0.074c-0.136-0.074-0.181-0.488,0-0.609l0.814-0.072
				c1.292-0.123,1.404-0.486,1.404-3.041V19.269c0-0.754,0-0.779-0.681-0.779h-1.243c-0.975,0-2.221,0.049-2.785,0.609
				c-0.545,0.535-0.771,1.07-1.021,1.678c-0.183,0.146-0.498,0.025-0.588-0.17c0.362-1.094,0.701-2.652,0.86-3.625
				c0.066-0.049,0.361-0.073,0.43,0c0.136,0.778,0.883,0.754,1.925,0.754h9.171c1.223,0,1.428-0.049,1.768-0.682
				c0.113-0.048,0.361-0.023,0.406,0.074c-0.25,0.997-0.406,2.967-0.34,3.697c-0.091,0.195-0.476,0.195-0.589,0.049
				c-0.067-0.607-0.228-1.508-0.565-1.775c-0.521-0.414-1.381-0.609-2.627-0.609h-1.607c-0.68,0-0.656,0.025-0.656,0.828V30.144z"/>
		</g>
		<g>
			<path fill="#34495D" d="M91.842,25.935c0-4.865,3.396-8.588,8.062-8.588c5.229,0,7.855,4.062,7.855,8.344
				c0,4.914-3.486,8.49-7.855,8.49C94.876,34.181,91.842,30.313,91.842,25.935z M105.496,26.444c0-4.014-1.654-8.344-5.979-8.344
				c-2.355,0-5.412,1.729-5.412,7.055c0,3.602,1.631,8.271,6.09,8.271C102.914,33.427,105.496,31.237,105.496,26.444z"/>
		</g>
		<g>
			<path fill="#34495D" d="M122.455,29.657c0,0.729,0,3.623,0.066,4.256c-0.043,0.146-0.181,0.268-0.43,0.268
				c-0.271-0.412-0.929-1.264-2.898-3.672l-5.252-6.424c-0.611-0.754-2.152-2.748-2.627-3.283h-0.047
				c-0.091,0.291-0.113,0.852-0.113,1.58v5.305c0,1.143,0.047,4.305,0.408,5.035c0.158,0.268,0.588,0.414,1.155,0.463l0.701,0.072
				c0.138,0.195,0.113,0.486-0.046,0.609c-1.018-0.051-1.811-0.074-2.648-0.074c-0.951,0-1.562,0.023-2.354,0.074
				c-0.157-0.123-0.181-0.463-0.045-0.609l0.61-0.072c0.521-0.049,0.883-0.221,0.996-0.486c0.317-0.877,0.295-3.844,0.295-5.012
				v-7.031c0-0.682-0.022-1.191-0.498-1.752c-0.316-0.341-0.86-0.511-1.403-0.584l-0.386-0.049
				c-0.135-0.146-0.135-0.511,0.045-0.607c0.951,0.072,2.151,0.072,2.56,0.072c0.362,0,0.747-0.024,1.042-0.072
				c0.452,1.24,3.146,4.451,3.872,5.352l2.196,2.652c1.539,1.896,2.672,3.234,3.736,4.402h0.045c0.09-0.121,0.09-0.51,0.09-1.021
				v-5.205c0-1.145-0.021-4.307-0.453-5.037c-0.135-0.219-0.497-0.365-1.402-0.486l-0.385-0.049
				c-0.159-0.146-0.137-0.535,0.045-0.607c1.042,0.048,1.812,0.072,2.673,0.072c0.974,0,1.562-0.024,2.331-0.072
				c0.182,0.121,0.182,0.462,0.046,0.607l-0.317,0.049c-0.724,0.121-1.178,0.316-1.268,0.512c-0.386,0.875-0.34,3.893-0.34,5.012
				V29.657L122.455,29.657z"/>
		</g>
		<g>
			<path fill="#34495D" d="M16.817,36.413c0.4,0,1-0.023,1.601-0.047c0.578-0.025,1.778-0.168,2.334-0.168
				c1.734,0,3.179,0.502,4.046,1.527c0.822,0.908,1.133,2.104,1.133,3.105c0,2.174-1,3.25-1.823,3.822
				c-0.8,0.621-1.867,0.764-2.423,0.764c-0.267,0-0.556-0.047-0.689-0.094c-0.133-0.049-0.267-0.121-0.267-0.217
				c0-0.047,0.067-0.119,0.245-0.094c0.178,0.023,0.244,0.023,0.422,0.023c0.733,0,2.779-0.668,2.779-4.037
				c0-0.859-0.222-2.197-1.045-3.152c-0.689-0.885-1.445-1.266-2.445-1.266c-0.355,0-0.822,0.07-0.978,0.143
				c-0.089,0.023-0.178,0.191-0.178,0.406c0,0.43,0,5.471,0,8.025c0,2.557,0.066,4.107,0.111,4.777c0.044,0.932,0.333,1.17,1,1.266
				c0.333,0.072,0.445,0.119,0.445,0.24c0,0.119-0.156,0.166-0.378,0.166c-0.556,0-1.201-0.119-2.245-0.119
				c-0.667,0-1.356,0.096-1.624,0.096c-0.155,0-0.378-0.049-0.378-0.143c0-0.098,0.089-0.168,0.378-0.217
				c0.667-0.143,0.912-0.311,0.956-1.098c0.044-0.551,0.066-3.225,0.066-6.951c0-2.316-0.088-5.039-0.155-5.59
				c-0.022-0.453-0.267-0.717-0.912-0.787c-0.111-0.025-0.355-0.072-0.355-0.215C16.44,36.509,16.618,36.413,16.817,36.413z"/>
		</g>
		<g>
			<path fill="#34495D" d="M27.978,50.841c-0.311-0.383-0.4-1.004-0.422-1.457c0-0.789,0-4.826-0.045-5.232
				c-0.021-0.43-0.244-0.621-0.489-0.787c-0.2-0.145-0.267-0.215-0.267-0.287c0-0.072,0.111-0.119,0.355-0.119
				c0.734,0,1.534-0.215,1.867-0.311c0.067-0.023,0.134,0.119,0.111,0.262c-0.066,1.361-0.089,4.611-0.066,5.709
				c0.022,1.004,0.2,1.387,0.333,1.576c0.289,0.383,0.778,0.598,1.245,0.598c0.778,0,1.312-0.191,1.89-0.764
				c0.245-0.238,0.377-0.574,0.4-1.1c0.044-0.645,0.044-1.576,0.044-2.436c0-0.357-0.022-1.48-0.022-2.102
				c-0.022-0.812-0.245-0.932-0.978-1.1c-0.245-0.047-0.356-0.119-0.356-0.191c0-0.096,0.2-0.143,0.333-0.143
				c0.289,0,0.556,0,0.934,0c0.934,0,1.29-0.143,1.534-0.143c0.067,0,0.111,0.094,0.089,0.262c-0.111,1.123-0.156,3.512-0.156,6.281
				c0,0.574,0,0.957,0.044,1.219c0.044,0.238,0.111,0.287,0.289,0.264c0.223-0.072,0.778-0.215,0.912-0.215
				c0.156,0,0.267,0.143,0.267,0.262c0,0.096-0.2,0.143-0.422,0.191c-0.267,0.023-1.645,0.311-2.29,0.645
				c-0.178,0.096-0.222,0.072-0.267,0c-0.044-0.072-0.044-0.191-0.044-0.453c0-0.24,0.022-0.766,0.022-0.932
				c0-0.072-0.022-0.238-0.067-0.168c-0.489,0.479-1.134,1.004-1.534,1.17c-0.422,0.191-0.934,0.359-1.312,0.359
				C29.067,51.7,28.467,51.509,27.978,50.841z"/>
		</g>
		<g>
			<path fill="#34495D" d="M43.673,50.101c-0.889,1.002-2.246,1.646-3.423,1.646c-0.779,0-1.824-0.238-2.557-0.598
				c-0.156-0.094-0.311-0.047-0.645,0.072c-0.067,0.025-0.134-0.096-0.111-0.166c0.044-0.336,0.089-0.861,0.134-2.174
				c0.044-1.17,0.155-6.449,0.155-7.859c0-1.719-0.044-3.701-0.067-4.084c-0.044-0.479-0.133-0.572-0.6-0.908
				c-0.178-0.119-0.267-0.191-0.267-0.262c0-0.072,0.112-0.168,0.445-0.215c0.422-0.072,1.112-0.264,1.579-0.479
				c0.2-0.096,0.311-0.096,0.355-0.096c0.045,0,0.089,0.096,0.067,0.43c-0.067,1.434-0.111,4.85-0.111,8.002
				c0,0.119,0.089,0.145,0.111,0.119c0.511-0.406,1.312-0.811,2.379-0.811c1.201,0,2.157,0.668,2.668,1.289
				c0.689,0.812,1,1.887,1,2.865C44.784,48.356,44.318,49.358,43.673,50.101z M42.384,44.606c-0.4-0.502-1.268-1.172-2.268-1.172
				c-0.667,0-1.156,0.24-1.333,0.406c-0.089,0.072-0.178,0.311-0.201,0.646c-0.044,0.381-0.022,2.244-0.022,3.176
				c0,0.885,0.111,2.127,0.311,2.557c0.134,0.285,0.422,0.477,0.6,0.596c0.356,0.264,1.023,0.455,1.49,0.455
				c0.4,0,1.112-0.287,1.534-0.859c0.489-0.646,0.778-1.863,0.778-2.963C43.273,46.54,42.984,45.394,42.384,44.606z"/>
		</g>
		<g>
			<path fill="#34495D" d="M48.452,45.681c0,3.01,0.022,4.133,0.044,4.586c0.022,0.645,0.156,0.812,0.778,0.932
				c0.133,0.023,0.289,0.096,0.289,0.168c0,0.096-0.156,0.166-0.445,0.166c-0.355,0-1.156-0.047-1.534-0.047
				c-0.578,0-1.156,0.047-1.489,0.047c-0.267,0-0.378-0.023-0.378-0.143c0-0.12,0.111-0.143,0.4-0.215
				c0.556-0.119,0.689-0.334,0.778-1.385c0.044-0.885,0.133-4.922,0.156-7.787c0-1.936,0.022-3.895,0-4.945
				c0-0.525-0.044-0.645-0.623-1.027c-0.156-0.094-0.222-0.143-0.222-0.215c0-0.07,0.133-0.143,0.333-0.191
				c0.645-0.143,1.179-0.357,1.667-0.549c0.067-0.023,0.178-0.07,0.267-0.07c0.044,0,0.067,0.143,0.067,0.262
				c0,0.168-0.089,4.299-0.089,7.883L48.452,45.681L48.452,45.681z"/>
		</g>
		<g>
			<path fill="#34495D" d="M51.275,43.339c0.6-0.166,1.134-0.404,1.601-0.619c0.178-0.119,0.289-0.168,0.333-0.168
				c0.067,0,0.111,0.072,0.089,0.334c-0.045,0.479-0.045,1.936-0.045,3.463c0,2.008,0,3.775,0.045,4.182
				c0.044,0.477,0.266,0.596,0.623,0.691c0.222,0.049,0.333,0.096,0.333,0.191c0,0.119-0.178,0.168-0.355,0.168
				c-0.2,0-1.023-0.096-1.623-0.096c-0.733,0-1.089,0.047-1.334,0.047c-0.156,0-0.312-0.047-0.312-0.143
				c0-0.096,0.112-0.168,0.423-0.215c0.489-0.145,0.689-0.334,0.711-1.314c0.022-0.717,0.066-5.062,0.066-5.303
				c0-0.334-0.022-0.477-0.645-0.836c-0.111-0.07-0.178-0.143-0.178-0.191C51.008,43.46,51.075,43.388,51.275,43.339z
				 M53.499,39.446c0,0.646-0.534,0.908-0.823,0.908c-0.4,0-0.733-0.406-0.733-0.885c0-0.596,0.422-0.932,0.778-0.932
				C53.232,38.538,53.499,39.04,53.499,39.446z"/>
		</g>
		<g>
			<path fill="#34495D" d="M57.033,46.755c0,1.602,0.578,2.604,1.111,3.105c0.578,0.574,1.4,0.836,2.067,0.836
				c0.957,0,1.534-0.166,2.312-0.906c0.044-0.049,0.156-0.072,0.156,0c0,0.094-0.044,0.215-0.178,0.381
				c-0.4,0.574-1.423,1.576-3.068,1.576c-1,0-2.045-0.406-2.779-1.17c-0.712-0.764-1.112-1.91-1.112-3.225
				c0-1.504,0.689-2.65,1.356-3.32c0.688-0.693,1.845-1.385,3.29-1.385c0.956,0,1.645,0.287,2.023,0.598
				c0.245,0.143,0.311,0.334,0.311,0.453c0,0.453-0.4,0.764-0.556,0.764c-0.089,0-0.245-0.094-0.378-0.238
				c-0.356-0.383-0.912-0.789-1.245-0.979c-0.267-0.145-0.601-0.191-0.845-0.191C58.567,43.054,57.033,44.009,57.033,46.755z"/>
		</g>
		<g>
			<path fill="#34495D" d="M74.527,36.509c0.113,0.049,0.156,0.191,0.156,0.262c0,0.646,0.066,1.338,0.09,1.602
				c0.045,0.311-0.022,0.477-0.111,0.477s-0.155-0.119-0.2-0.381c-0.178-0.621-0.399-1.1-0.845-1.41
				c-0.489-0.406-1.223-0.621-1.801-0.621c-1.045,0-2.602,0.955-2.602,2.938c0,1.314,0.778,2.174,1.578,2.771
				c0.867,0.621,1.578,1.17,2.289,1.721c0.846,0.645,2.113,1.719,2.113,3.797c0,2.652-2.336,4.252-4.646,4.252
				c-0.979,0-2.335-0.264-3.023-0.668c-0.244-0.145-0.334-0.311-0.379-0.646c-0.043-0.381-0.222-1.17-0.222-1.742
				c-0.022-0.264,0.022-0.455,0.111-0.455c0.088,0,0.155,0.145,0.243,0.479c0.4,1.791,1.847,2.604,3.27,2.604
				c1.778,0,2.936-1.529,2.936-3.105c0-1.625-1.067-2.531-2.668-3.678c-1.713-1.242-3.068-2.533-3.068-4.586
				c0-1.314,0.534-2.342,1.423-3.082c0.601-0.502,1.578-0.955,2.868-0.955C73.062,36.079,74.15,36.39,74.527,36.509z"/>
		</g>
		<g>
			<path fill="#34495D" d="M78.463,46.755c0,1.602,0.578,2.604,1.111,3.105c0.578,0.574,1.4,0.836,2.068,0.836
				c0.955,0,1.533-0.166,2.312-0.906c0.045-0.049,0.155-0.072,0.155,0c0,0.094-0.045,0.215-0.178,0.381
				c-0.399,0.574-1.423,1.576-3.068,1.576c-1,0-2.045-0.406-2.778-1.17c-0.711-0.764-1.112-1.91-1.112-3.225
				c0-1.504,0.69-2.65,1.356-3.32c0.69-0.693,1.846-1.385,3.291-1.385c0.956,0,1.646,0.287,2.022,0.598
				c0.244,0.143,0.312,0.334,0.312,0.453c0,0.453-0.399,0.764-0.556,0.764c-0.088,0-0.244-0.094-0.379-0.238
				c-0.354-0.383-0.912-0.789-1.244-0.979c-0.268-0.145-0.601-0.191-0.846-0.191C79.997,43.054,78.463,44.009,78.463,46.755z"/>
		</g>
		<g>
			<path fill="#34495D" d="M87.488,44.368c-0.111,0.094-0.223,0.381-0.223,0.883c-0.021,3.582,0.067,4.729,0.11,5.135
				c0.067,0.43,0.224,0.717,0.712,0.812c0.334,0.072,0.489,0.119,0.489,0.24c0,0.07-0.134,0.143-0.333,0.143
				c-0.623,0-1.201-0.096-1.846-0.096c-0.689,0-1.022,0.096-1.445,0.096c-0.244,0-0.355-0.049-0.355-0.143
				c0-0.098,0.09-0.145,0.355-0.217c0.646-0.166,0.8-0.238,0.822-1.146c0.066-0.955,0.09-3.152,0.09-6.951
				c0-3.605,0.044-5.062,0-5.971c-0.022-0.764-0.178-0.836-0.667-1.123c-0.089-0.07-0.156-0.119-0.156-0.191
				c0-0.07,0.134-0.143,0.378-0.215c0.689-0.215,1.2-0.334,1.623-0.572c0.111-0.072,0.178-0.096,0.223-0.096
				c0.067,0,0.135,0.168,0.11,0.502c-0.021,0.645-0.11,8.049-0.088,8.504c0,0.096,0.065,0.119,0.088,0.07
				c0.269-0.262,0.89-0.74,1.334-0.979c0.379-0.215,0.956-0.406,1.558-0.406c0.688,0,1.467,0.262,2,1.074
				c0.223,0.311,0.467,1.051,0.489,2.557c0.022,1.791,0.022,3.271,0.045,4.18c0,0.479,0.089,0.645,0.757,0.764
				c0.287,0.072,0.354,0.119,0.354,0.217c0,0.094-0.155,0.166-0.354,0.166c-0.58,0-1.002-0.119-1.602-0.119
				c-0.756,0-0.936,0.096-1.445,0.096c-0.267,0-0.355-0.072-0.355-0.143c0-0.098,0.111-0.145,0.334-0.191
				c0.601-0.145,0.645-0.311,0.734-1.004c0.043-0.549,0.088-1.6,0.088-4.084c0-0.598-0.065-1.268-0.334-1.791
				c-0.289-0.527-0.777-0.885-1.533-0.885C88.512,43.483,87.844,43.962,87.488,44.368z"/>
		</g>
		<g>
			<path fill="#34495D" d="M103.451,47.161c0,1.816-1,3.105-1.713,3.703c-0.688,0.574-1.711,0.908-2.512,0.908
				c-2.289,0-4.313-1.936-4.313-4.42c0-1.814,0.778-2.984,1.603-3.701c0.6-0.502,1.601-1.004,2.666-1.004
				C101.605,42.647,103.451,44.63,103.451,47.161z M96.516,46.827c0,1.004,0.223,2.27,0.934,3.273c0.601,0.883,1.4,1.266,2.09,1.266
				c0.533,0,1.045-0.264,1.4-0.598c0.332-0.334,0.934-1.48,0.934-3.201c0-2.27-1.066-4.514-3.023-4.514
				C97.716,43.054,96.516,44.343,96.516,46.827z"/>
		</g>
		<g>
			<path fill="#34495D" d="M113.455,47.161c0,1.816-1.001,3.105-1.712,3.703c-0.688,0.574-1.712,0.908-2.513,0.908
				c-2.291,0-4.312-1.936-4.312-4.42c0-1.814,0.777-2.984,1.6-3.701c0.602-0.502,1.603-1.004,2.67-1.004
				C111.609,42.647,113.455,44.63,113.455,47.161z M106.518,46.827c0,1.004,0.225,2.27,0.936,3.273
				c0.602,0.883,1.4,1.266,2.09,1.266c0.533,0,1.045-0.264,1.4-0.598c0.332-0.334,0.935-1.48,0.935-3.201
				c0-2.27-1.067-4.514-3.024-4.514C107.721,43.054,106.518,44.343,106.518,46.827z"/>
		</g>
		<g>
			<path fill="#34495D" d="M117.123,45.681c0,3.01,0.021,4.133,0.044,4.586c0.022,0.645,0.155,0.812,0.778,0.932
				c0.134,0.023,0.287,0.096,0.287,0.168c0,0.096-0.153,0.166-0.443,0.166c-0.355,0-1.155-0.047-1.533-0.047
				c-0.579,0-1.156,0.047-1.488,0.047c-0.269,0-0.379-0.023-0.379-0.143c0-0.12,0.11-0.143,0.399-0.215
				c0.556-0.119,0.688-0.334,0.778-1.385c0.043-0.885,0.133-4.922,0.154-7.787c0-1.936,0.022-3.895,0-4.945
				c0-0.525-0.045-0.645-0.621-1.027c-0.156-0.094-0.224-0.143-0.224-0.215c0-0.07,0.134-0.143,0.333-0.191
				c0.646-0.143,1.18-0.357,1.668-0.549c0.066-0.023,0.178-0.07,0.268-0.07c0.045,0,0.066,0.143,0.066,0.262
				c0,0.168-0.089,4.299-0.089,7.883L117.123,45.681L117.123,45.681z"/>
		</g>
		<g>
			<path fill="#34495D" d="M121.034,44.487c0,1.002,0.846,1.576,1.401,1.934c1.443,1.004,2.021,1.602,2.021,2.818
				c0,1.051-0.711,1.697-1.155,2.008c-0.489,0.334-1.245,0.525-1.778,0.525c-0.578,0-1.09-0.145-1.756-0.432
				c-0.179-0.07-0.334-0.238-0.334-0.381c0-0.334-0.045-0.932-0.066-1.195c-0.045-0.311,0.021-0.381,0.066-0.381
				c0.066,0,0.135,0,0.289,0.453c0.178,0.598,0.533,1.027,0.935,1.289c0.333,0.24,0.667,0.287,1,0.287
				c0.622,0,1.444-0.621,1.444-1.6c0-0.908-0.578-1.41-1.467-2.008c-0.957-0.668-1.846-1.551-1.846-2.604
				c0-0.859,0.355-1.504,0.845-1.887c0.399-0.357,1.022-0.668,1.867-0.668c0.601,0,1.245,0.168,1.513,0.262
				c0.045,0.049,0.11,0.145,0.11,0.215c0.022,0.264,0.11,0.742,0.134,1.123c0,0.264-0.045,0.383-0.111,0.383
				c-0.088,0-0.133-0.119-0.199-0.287c-0.11-0.357-0.2-0.691-0.533-0.979c-0.245-0.191-0.623-0.359-1.045-0.359
				C121.657,43.005,121.034,43.53,121.034,44.487z"/>
		</g>
	</g>
	<g>
		<g>
			<path fill="#34495D" d="M19.249,62.625c0,0.479,0.053,0.479,0.583,0.479h1.203c0.726,0,1.292-0.035,1.504-0.105
				c0.194-0.072,0.336-0.16,0.442-0.619l0.16-0.709c0.088-0.105,0.389-0.105,0.459,0c0,0.426-0.071,1.133-0.071,1.787
				c0,0.637,0.071,1.309,0.071,1.717c-0.071,0.105-0.336,0.105-0.459,0l-0.177-0.691c-0.071-0.318-0.23-0.564-0.566-0.672
				c-0.248-0.07-0.69-0.088-1.362-0.088h-1.203c-0.53,0-0.583,0.018-0.583,0.479v2.459c0,1.857,0.035,2.123,1.079,2.211l0.602,0.053
				c0.106,0.07,0.071,0.391-0.035,0.443c-1.044-0.035-1.646-0.053-2.354-0.053c-0.778,0-1.38,0.018-2.212,0.053
				c-0.106-0.053-0.141-0.336-0.035-0.443l0.442-0.053c1.026-0.123,1.062-0.354,1.062-2.211v-6.37c0-1.859-0.035-2.107-1.062-2.23
				l-0.283-0.035c-0.106-0.07-0.07-0.389,0.036-0.441c0.743,0.033,1.345,0.053,2.052,0.053h3.256c1.132,0,2.159,0,2.389-0.053
				c0,0.812,0.017,1.662,0.053,2.334c-0.053,0.107-0.301,0.16-0.424,0.053c-0.142-0.795-0.354-1.432-1.239-1.68
				c-0.389-0.088-0.973-0.107-1.716-0.107h-1.079c-0.531,0-0.531,0.037-0.531,0.709v3.73H19.249z"/>
		</g>
		<g>
			<path fill="#34495D" d="M31.28,65.757c0,2.211-1.522,3.805-3.733,3.805c-2.035,0-3.627-1.434-3.627-3.646
				c0-2.229,1.681-3.82,3.768-3.82C29.669,62.095,31.28,63.582,31.28,65.757z M27.476,62.625c-1.168,0-2.035,1.115-2.035,3.061
				c0,1.611,0.725,3.346,2.282,3.346c1.557,0,2.035-1.629,2.035-2.99C29.758,64.537,29.156,62.625,27.476,62.625z"/>
		</g>
		<g>
			<path fill="#34495D" d="M37.277,62.396c0.142,0.123,0.266,0.406,0.266,0.707c0,0.318-0.177,0.654-0.389,0.654
				c-0.088,0-0.177-0.035-0.248-0.123c-0.389-0.479-1.044-0.939-1.769-0.939c-1.238,0-2.442,0.975-2.442,2.85
				c0,1.381,0.956,3.025,2.849,3.025c1.026,0,1.557-0.459,1.963-1.061c0.142-0.037,0.301,0.088,0.319,0.246
				c-0.602,1.311-1.929,1.807-2.955,1.807c-0.938,0-1.805-0.303-2.424-0.902c-0.619-0.604-1.026-1.469-1.026-2.619
				c0-1.912,1.345-3.945,4.282-3.945C36.109,62.095,36.799,62.183,37.277,62.396z"/>
		</g>
		<g>
			<path fill="#34495D" d="M39.56,66.712c0,1.221,0.301,2.035,1.646,2.035c0.478,0,1.044-0.195,1.433-0.531
				c0.23-0.213,0.354-0.479,0.354-1.025v-2.902c0-1.15-0.124-1.186-0.655-1.398l-0.23-0.088c-0.124-0.07-0.124-0.318,0.018-0.389
				c0.708-0.018,1.681-0.143,2.07-0.318c0.088,0.018,0.142,0.053,0.159,0.123c-0.035,0.336-0.053,0.885-0.053,1.539v2.973
				c0,1.398,0.053,1.93,0.548,1.93c0.213,0,0.442-0.037,0.69-0.09c0.106,0.09,0.124,0.443-0.018,0.514
				c-0.69,0.141-1.716,0.318-2.318,0.654c-0.088,0-0.177-0.053-0.212-0.123v-0.727c0-0.158-0.054-0.248-0.16-0.248
				c-0.531,0.336-1.397,0.922-2.441,0.922c-1.557,0-2.141-0.779-2.141-2.213v-2.955c0-1.113,0-1.273-0.531-1.504l-0.212-0.088
				c-0.106-0.088-0.088-0.336,0.036-0.389c0.814-0.018,1.504-0.178,1.893-0.318c0.106,0.018,0.159,0.053,0.177,0.123
				c-0.036,0.301-0.053,0.672-0.053,1.539V66.712z"/>
		</g>
		<g>
			<path fill="#34495D" d="M49.538,62.414c0.159,0.389,0.283,0.955,0.283,1.432c-0.071,0.125-0.336,0.16-0.425,0.055
				c-0.301-0.779-0.832-1.293-1.557-1.293c-0.69,0-1.132,0.443-1.132,1.08c0,0.725,0.744,1.115,1.362,1.469
				c0.938,0.529,1.805,1.131,1.805,2.389c0,1.344-1.238,2.018-2.547,2.018c-0.832,0-1.451-0.178-1.893-0.531
				c-0.142-0.336-0.248-1.203-0.213-1.787c0.089-0.107,0.319-0.125,0.407-0.018c0.301,0.973,0.867,1.822,1.876,1.822
				c0.637,0,1.185-0.373,1.185-1.133c0-0.814-0.708-1.256-1.362-1.629c-1.027-0.582-1.752-1.201-1.752-2.176
				c0-1.291,1.062-2.016,2.406-2.016C48.724,62.095,49.379,62.271,49.538,62.414z"/>
		</g>
		<g>
			<path fill="#34495D" d="M60.578,65.757c0,2.211-1.521,3.805-3.733,3.805c-2.035,0-3.627-1.434-3.627-3.646
				c0-2.229,1.681-3.82,3.768-3.82C58.968,62.095,60.578,63.582,60.578,65.757z M56.774,62.625c-1.168,0-2.035,1.115-2.035,3.061
				c0,1.611,0.725,3.346,2.282,3.346s2.035-1.629,2.035-2.99C59.057,64.537,58.455,62.625,56.774,62.625z"/>
		</g>
		<g>
			<path fill="#34495D" d="M61.817,64.236c0-0.691,0-0.779-0.478-1.098l-0.159-0.105c-0.071-0.072-0.071-0.266,0.017-0.318
				c0.407-0.143,1.416-0.602,1.77-0.867c0.071,0,0.159,0.035,0.195,0.123c-0.036,0.408-0.036,0.672-0.036,0.832
				c0,0.105,0.07,0.195,0.194,0.195c0.743-0.461,1.575-0.902,2.478-0.902c1.47,0,2.07,1.008,2.07,2.193v3.043
				c0,1.273,0.034,1.451,0.673,1.539l0.389,0.053c0.123,0.09,0.09,0.391-0.035,0.443c-0.531-0.035-1.045-0.053-1.664-0.053
				c-0.637,0-1.166,0.018-1.645,0.053c-0.124-0.053-0.16-0.354-0.036-0.443l0.336-0.053c0.655-0.105,0.673-0.266,0.673-1.539v-2.637
				c0-1.008-0.459-1.752-1.662-1.752c-0.672,0-1.256,0.283-1.504,0.619c-0.229,0.301-0.266,0.549-0.266,1.062v2.707
				c0,1.273,0.036,1.434,0.672,1.539l0.319,0.053c0.124,0.09,0.088,0.391-0.035,0.443c-0.479-0.035-0.991-0.053-1.611-0.053
				c-0.637,0-1.167,0.018-1.663,0.053c-0.124-0.053-0.16-0.354-0.036-0.443l0.372-0.053c0.654-0.088,0.672-0.266,0.672-1.539
				L61.817,64.236L61.817,64.236z"/>
		</g>
		<g>
			<path fill="#34495D" d="M74.573,58.856c1.292-1.008,2.937-1.504,4.776-1.504c0.955,0,2.301,0.195,3.131,0.424
				c0.213,0.053,0.338,0.088,0.496,0.072c0.019,0.406,0.105,1.521,0.248,2.6c-0.088,0.125-0.354,0.143-0.479,0.035
				c-0.266-1.203-1.061-2.582-3.627-2.582c-2.707,0-5.008,1.715-5.008,5.379c0,3.715,2.354,5.768,5.256,5.768
				c2.281,0,3.291-1.486,3.697-2.531c0.125-0.088,0.39-0.053,0.461,0.072c-0.125,0.92-0.584,2.086-0.851,2.424
				c-0.213,0.035-0.425,0.105-0.618,0.176c-0.391,0.143-1.664,0.408-2.796,0.408c-1.593,0-3.114-0.32-4.405-1.186
				c-1.416-0.973-2.514-2.584-2.514-4.867C72.344,61.582,73.229,59.899,74.573,58.856z"/>
		</g>
		<g>
			<path fill="#34495D" d="M84.32,59.333c0-1.043-0.018-1.15-0.547-1.469l-0.178-0.105c-0.089-0.053-0.089-0.301,0-0.354
				c0.442-0.143,1.273-0.406,1.911-0.744c0.07,0,0.142,0.037,0.177,0.107c-0.019,0.531-0.053,1.414-0.053,2.193v3.717
				c0,0.158,0.018,0.301,0.07,0.336c0.637-0.496,1.486-0.92,2.388-0.92c1.683,0,2.283,1.043,2.283,2.281v2.955
				c0,1.273,0.035,1.469,0.672,1.539l0.478,0.053c0.125,0.09,0.09,0.391-0.033,0.443c-0.639-0.035-1.15-0.053-1.771-0.053
				c-0.638,0-1.168,0.018-1.646,0.053c-0.124-0.053-0.159-0.354-0.036-0.443l0.354-0.053c0.654-0.105,0.672-0.266,0.672-1.539
				v-2.529c0-1.133-0.549-1.895-1.682-1.895c-0.602,0-1.062,0.213-1.381,0.479c-0.316,0.266-0.37,0.354-0.37,0.973v2.973
				c0,1.273,0.034,1.451,0.672,1.539l0.371,0.053c0.124,0.07,0.089,0.391-0.034,0.443c-0.531-0.035-1.045-0.053-1.664-0.053
				c-0.637,0-1.168,0.018-1.733,0.053c-0.124-0.053-0.159-0.354-0.035-0.443l0.442-0.053c0.653-0.07,0.672-0.266,0.672-1.539V59.333
				L84.32,59.333z"/>
		</g>
		<g>
			<path fill="#34495D" d="M92.496,64.236c0-0.691,0-0.779-0.479-1.098l-0.16-0.105c-0.069-0.072-0.069-0.266,0.019-0.318
				c0.407-0.143,1.417-0.602,1.823-0.867c0.089,0,0.158,0.035,0.177,0.105c-0.035,0.619-0.069,1.469-0.069,2.195v3.184
				c0,1.273,0.034,1.451,0.672,1.539l0.371,0.053c0.123,0.09,0.088,0.391-0.035,0.443c-0.53-0.035-1.045-0.053-1.664-0.053
				c-0.637,0-1.168,0.018-1.662,0.053c-0.123-0.053-0.159-0.354-0.035-0.443l0.372-0.053c0.653-0.088,0.672-0.266,0.672-1.539
				L92.496,64.236L92.496,64.236z M93.945,58.503c0,0.619-0.441,0.9-0.92,0.9c-0.549,0-0.901-0.389-0.901-0.865
				c0-0.584,0.442-0.938,0.955-0.938C93.609,57.601,93.945,58.007,93.945,58.503z"/>
		</g>
		<g>
			<path fill="#34495D" d="M97.061,67.332c0,1.273,0.037,1.451,0.672,1.539l0.427,0.053c0.123,0.09,0.088,0.391-0.036,0.443
				c-0.584-0.035-1.098-0.053-1.717-0.053c-0.637,0-1.168,0.018-1.698,0.053c-0.124-0.053-0.159-0.354-0.035-0.443l0.407-0.053
				c0.654-0.088,0.673-0.266,0.673-1.539v-7.999c0-1.043-0.019-1.15-0.549-1.469l-0.177-0.105c-0.09-0.053-0.09-0.301,0-0.354
				c0.441-0.143,1.272-0.406,1.91-0.744c0.069,0,0.143,0.037,0.176,0.107c-0.016,0.531-0.053,1.414-0.053,2.193V67.332
				L97.061,67.332z"/>
		</g>
		<g>
			<path fill="#34495D" d="M104.951,66.73c0,1.398,0.018,2.053,0.514,2.053c0.194,0,0.495-0.088,0.762-0.178
				c0.123,0.035,0.142,0.479-0.019,0.566c-0.743,0.105-1.841,0.371-2.336,0.566c-0.106,0-0.194-0.053-0.194-0.141v-0.301
				c0-0.266,0-0.479-0.035-0.549h-0.069c-0.779,0.529-1.382,0.814-2.229,0.814c-1.965,0-3.273-1.541-3.273-3.398
				c0-2.477,1.875-4.068,4.281-4.068c0.603,0,0.99,0.088,1.187,0.158c0.088,0,0.106-0.105,0.106-0.248v-2.672
				c0-1.043-0.02-1.15-0.549-1.469l-0.178-0.105c-0.088-0.053-0.088-0.301,0-0.354c0.441-0.143,1.273-0.406,1.91-0.744
				c0.07,0,0.143,0.037,0.178,0.107c-0.018,0.531-0.054,1.414-0.054,2.193L104.951,66.73L104.951,66.73z M103.643,64.076
				c0-0.354-0.069-0.514-0.193-0.689c-0.266-0.371-0.797-0.744-1.486-0.744c-1.609,0-2.441,1.398-2.441,2.938
				c0,1.611,0.901,3.133,2.637,3.133c0.478,0,1.078-0.213,1.361-0.496c0.105-0.105,0.125-0.371,0.125-0.654v-3.488H103.643z"/>
		</g>
		<g>
			<path fill="#34495D" d="M107.074,64.236c0-0.691,0-0.779-0.479-1.098l-0.158-0.105c-0.07-0.072-0.07-0.266,0.018-0.318
				c0.406-0.143,1.345-0.602,1.786-0.867c0.09,0.018,0.143,0.053,0.143,0.123v1.027c0,0.088,0.019,0.141,0.054,0.158
				c0.619-0.514,1.291-1.061,1.945-1.061c0.442,0,0.797,0.283,0.797,0.707c0,0.584-0.479,0.814-0.762,0.814
				c-0.177,0-0.266-0.055-0.389-0.125c-0.266-0.176-0.531-0.283-0.779-0.283c-0.283,0-0.495,0.16-0.637,0.354
				c-0.178,0.248-0.229,0.762-0.229,1.363v2.406c0,1.273,0.035,1.486,0.707,1.539l0.638,0.053c0.123,0.09,0.088,0.391-0.035,0.443
				c-0.832-0.035-1.346-0.053-1.965-0.053c-0.637,0-1.168,0.018-1.627,0.053c-0.123-0.053-0.16-0.354-0.035-0.443l0.336-0.053
				c0.654-0.105,0.673-0.266,0.673-1.539L107.074,64.236L107.074,64.236z"/>
		</g>
		<g>
			<path fill="#34495D" d="M112.223,64.785c-0.459,0-0.478,0.035-0.478,0.477c0,1.787,1.044,3.309,2.938,3.309
				c0.582,0,1.078-0.176,1.627-0.867c0.178-0.053,0.301,0.053,0.318,0.213c-0.585,1.203-1.857,1.646-2.779,1.646
				c-1.148,0-2.052-0.496-2.564-1.168c-0.53-0.691-0.742-1.521-0.742-2.301c0-2.176,1.434-3.998,3.557-3.998
				c1.521,0,2.512,1.043,2.512,2.105c0,0.246-0.034,0.389-0.069,0.459c-0.054,0.105-0.301,0.125-1.044,0.125H112.223z
				 M113.32,64.253c1.309,0,1.697-0.07,1.84-0.178c0.053-0.035,0.105-0.105,0.105-0.336c0-0.496-0.336-1.115-1.363-1.115
				c-1.043,0-1.945,0.957-1.963,1.539c0,0.037,0,0.09,0.123,0.09H113.32z"/>
		</g>
		<g>
			<path fill="#34495D" d="M117.548,64.236c0-0.691,0-0.779-0.478-1.098l-0.159-0.105c-0.07-0.072-0.07-0.266,0.019-0.318
				c0.406-0.143,1.416-0.602,1.77-0.867c0.07,0,0.158,0.035,0.193,0.123c-0.035,0.408-0.035,0.672-0.035,0.832
				c0,0.105,0.072,0.195,0.194,0.195c0.744-0.461,1.575-0.902,2.478-0.902c1.469,0,2.07,1.008,2.07,2.193v3.043
				c0,1.273,0.035,1.451,0.672,1.539l0.391,0.053c0.124,0.09,0.088,0.391-0.036,0.443c-0.53-0.035-1.043-0.053-1.662-0.053
				c-0.638,0-1.169,0.018-1.646,0.053c-0.125-0.053-0.159-0.354-0.035-0.443l0.337-0.053c0.653-0.105,0.672-0.266,0.672-1.539
				v-2.637c0-1.008-0.46-1.752-1.663-1.752c-0.673,0-1.257,0.283-1.504,0.619c-0.23,0.301-0.266,0.549-0.266,1.062v2.707
				c0,1.273,0.035,1.434,0.672,1.539l0.318,0.053c0.123,0.09,0.088,0.391-0.035,0.443c-0.479-0.035-0.99-0.053-1.609-0.053
				c-0.637,0-1.168,0.018-1.664,0.053c-0.124-0.053-0.158-0.354-0.034-0.443l0.371-0.053c0.653-0.088,0.672-0.266,0.672-1.539
				v-3.095H117.548z"/>
		</g>
	</g>
	<g>
		<line fill="#34495D" x1="0" y1="54.962" x2="125" y2="54.962"/>
		<rect y="54.741" fill="#34495D" width="125" height="0.441"/>
	</g>
	<g>
		<g>
			<path fill="#34495D" d="M17.213,5.833c0-3.205,2.158-5.804,4.821-5.804c2.662,0,4.821,2.599,4.821,5.804
				c0,3.207-2.159,5.805-4.821,5.805C19.372,11.638,17.213,9.04,17.213,5.833L17.213,5.833z"/>
			<path fill="#34495D" d="M22.034,11.667c-2.674,0-4.85-2.617-4.85-5.834C17.184,2.617,19.36,0,22.034,0
				c2.674,0,4.85,2.617,4.85,5.833C26.884,9.05,24.708,11.667,22.034,11.667z M22.034,0.059c-2.642,0-4.792,2.591-4.792,5.774
				c0,3.186,2.149,5.775,4.792,5.775c2.643,0,4.792-2.59,4.792-5.775C26.826,2.649,24.676,0.059,22.034,0.059z"/>
		</g>
		<g>
			<path fill="#34495D" d="M39.528,33.888c-5.455-7.775-13.992-11.904-22.038-9.748C6.678,27.036,0.788,40.249,4.096,53.812
				C4.111,53.483,10.143,14.513,39.528,33.888L39.528,33.888z"/>
			<path fill="#34495D" d="M4.068,53.817c-1.604-6.576-1.106-13.271,1.403-18.854c2.518-5.598,6.783-9.451,12.012-10.854
				c1.411-0.377,2.87-0.568,4.335-0.568c6.566,0,13.195,3.861,17.734,10.33l-0.04,0.041c-0.743-0.49-1.42-0.938-2.04-1.342
				c0.641,0.377,1.29,0.779,1.943,1.207c-4.525-6.377-11.093-10.18-17.598-10.18c-1.461,0-2.915,0.191-4.321,0.568
				c-5.211,1.396-9.463,5.24-11.973,10.82C3.039,40.517,2.53,47.142,4.089,53.659c0.157-0.998,1.172-6.764,4.009-12.621
				c1.77-3.654,3.883-6.564,6.282-8.652c2.994-2.604,6.441-3.926,10.247-3.926c0.473,0,0.952,0.02,1.437,0.061
				c-0.444-0.004-0.921-0.004-1.437-0.004c-3.791,0-7.226,1.316-10.209,3.914c-2.392,2.082-4.501,4.986-6.268,8.633
				c-3.103,6.406-4.023,12.701-4.025,12.75L4.068,53.817z"/>
		</g>
		<g>
			<path fill="#34495D" d="M3.7,29.911c0,0,1.63-6.119,15.167-8.684C32.64,18.616,35.473,4.475,35.473,4.475
				c-0.015-0.038-2.958,7.958-16.147,9.642C6.378,15.77,3.623,29.767,3.7,29.911L3.7,29.911z"/>
			<path fill="#34495D" d="M3.709,29.989l-0.035-0.064c-0.043-0.082,0.46-2.725,2.064-5.828c2.087-4.041,6.138-9.059,13.584-10.009
				c11.934-1.523,15.506-8.245,16.101-9.577c0.028-0.062,0.029-0.065,0.05-0.065h0.02l0.01,0.026L35.501,4.48
				c-0.007,0.035-0.737,3.585-3.142,7.407c-1.413,2.244-3.118,4.144-5.07,5.643c-2.439,1.875-5.271,3.129-8.418,3.725
				c-3.856,0.73-9.18,2.244-12.646,5.299c-2.069,1.822-2.494,3.35-2.498,3.365L3.709,29.989z M35.383,4.734
				c-0.825,1.702-4.598,7.948-16.054,9.411c-4.694,0.6-8.568,2.871-11.516,6.754c-1.672,2.203-2.692,4.492-3.254,6.025
				c-0.472,1.289-0.708,2.273-0.794,2.719c0.213-0.516,0.841-1.742,2.422-3.135c3.476-3.062,8.81-4.578,12.673-5.311
				c3.137-0.594,5.96-1.844,8.392-3.713c1.946-1.495,3.647-3.389,5.056-5.627C34.33,8.646,35.166,5.628,35.383,4.734z"/>
		</g>
	</g>
</g>
</svg>
