<?xml version="1.0" encoding="utf-8"?>
<!-- Generator: Adobe Illustrator 16.0.0, SVG Export Plug-In . SVG Version: 6.00 Build 0)  -->
<!DOCTYPE svg PUBLIC "-//W3C//DTD SVG 1.1//EN" "http://www.w3.org/Graphics/SVG/1.1/DTD/svg11.dtd">
<svg version="1.1" id="Layer_1" xmlns="http://www.w3.org/2000/svg" xmlns:xlink="http://www.w3.org/1999/xlink" x="0px" y="0px"
	 width="42px" height="50px" viewBox="0 0 42 50" enable-background="new 0 0 42 50" xml:space="preserve">
<g>
	<path fill="#35495E" d="M42,21C42,9.403,32.6,0,21,0C9.402,0,0,9.403,0,21c0,10.003,6.996,18.367,16.362,20.478L21,49.477
		l4.635-7.999C35.002,39.367,42,31.003,42,21z"/>
	<g>
		<path fill="#EFC319" d="M32.692,17.117c0,0.188,0.154,0.343,0.341,0.343h1.119c0.189,0,0.346-0.155,0.346-0.343v-3.729
			c0-0.186-0.157-0.34-0.346-0.34h-1.119c-0.187,0-0.341,0.154-0.341,0.34V17.117z"/>
		<g>
			<path fill="#EFC319" d="M9.308,17.117v-3.729c0-0.186-0.154-0.34-0.345-0.34h-1.12c-0.188,0-0.346,0.154-0.346,0.34v3.729
				c0,0.188,0.158,0.343,0.346,0.343h1.12C9.154,17.46,9.308,17.305,9.308,17.117z"/>
			<path fill="#EFC319" d="M33.349,27.212h-0.581v-4.53L32.75,22.68l0.007-0.459l-0.318-3.509c0.485-0.001,0.815-0.081,0.987-0.236
				c0.086-0.084,0.134-0.19,0.134-0.307v-0.61h-0.407l-0.009,0.615c-0.066,0.062-0.294,0.128-0.733,0.128h-0.004l-0.529-5.779
				c0.062-0.001,0.129-0.001,0.206-0.001c0.668,0,0.997,0.085,1.069,0.135v0.196h0.407v-0.196c0-0.104-0.04-0.2-0.125-0.275
				c-0.188-0.179-0.637-0.271-1.336-0.271c-0.092,0-0.171,0.002-0.236,0.005c-0.12-3.232-2.347-5.121-10.853-5.121
				c-8.188,0-10.812,1.992-10.954,5.118c-0.051-0.001-0.103-0.002-0.162-0.002c-0.7,0-1.153,0.091-1.341,0.271
				c-0.083,0.075-0.122,0.171-0.122,0.275v0.218h0.405v-0.12l-0.005-0.076c0.082-0.071,0.405-0.157,1.082-0.157
				c0.046,0,0.081,0,0.125,0.001L9.659,18.3c-0.027,0-0.05,0.001-0.076,0.001c-0.442,0-0.669-0.066-0.747-0.133v-0.523H8.431v0.523
				c0,0.117,0.051,0.223,0.137,0.307c0.172,0.155,0.507,0.236,1,0.236c0.023,0,0.042,0,0.062,0l-0.228,3.509l-0.007,0.398
				L9.391,22.62l-0.029,4.592H8.908c-0.222,0-0.405,0.116-0.405,0.26v0.648c0,0.142,0.183,0.261,0.405,0.261h0.448l-0.005,1.132
				h0.468v3.106h2.96v-3.106h16.597v3.106h2.951v-3.106h0.441v-1.132h0.581c0.222,0,0.4-0.119,0.4-0.261v-0.648
				C33.749,27.328,33.57,27.212,33.349,27.212z M29.049,9.361c0.452,0,0.812,0.365,0.812,0.813c0,0.448-0.36,0.812-0.812,0.812
				s-0.813-0.365-0.813-0.812C28.236,9.727,28.597,9.361,29.049,9.361z M26.959,9.361c0.448,0,0.82,0.365,0.82,0.813
				c0,0.448-0.372,0.812-0.82,0.812c-0.448,0-0.811-0.365-0.811-0.812C26.148,9.727,26.512,9.361,26.959,9.361z M15.179,9.362
				c0.449,0,0.809,0.365,0.809,0.816c0,0.446-0.36,0.812-0.809,0.812s-0.814-0.366-0.814-0.812
				C14.365,9.727,14.73,9.362,15.179,9.362z M13.089,9.362c0.452,0,0.814,0.365,0.814,0.816c0,0.446-0.362,0.812-0.814,0.812
				c-0.447,0-0.81-0.366-0.81-0.812C12.279,9.727,12.642,9.362,13.089,9.362z M13.741,26.402h-2.746v-1.521h2.746V26.402z
				 M21.055,21.13c-0.006,0-0.012,0-0.012,0c-3.443,0.005-7.333,0.288-8.213,1.088c-0.218-0.585-0.306-1.072-0.094-1.287
				c0.822-0.82,4.765-1.107,8.25-1.112h0.013h0.012c3.482,0.005,7.423,0.292,8.246,1.112c0.206,0.206,0.127,0.661-0.069,1.212
				c-1.027-0.743-4.788-1.009-8.119-1.014H21.055z M31.202,26.402h-2.739v-1.521h2.739V26.402z M10.306,18.67l0.32-6.902
				l20.653,0.036l0.441,6.867H10.306z"/>
		</g>
	</g>
</g>
</svg>
