<?xml version="1.0" encoding="utf-8"?>
<!-- Generator: Adobe Illustrator 16.0.0, SVG Export Plug-In . SVG Version: 6.00 Build 0)  -->
<!DOCTYPE svg PUBLIC "-//W3C//DTD SVG 1.1//EN" "http://www.w3.org/Graphics/SVG/1.1/DTD/svg11.dtd">
<svg version="1.1" id="Layer_1" xmlns="http://www.w3.org/2000/svg" xmlns:xlink="http://www.w3.org/1999/xlink" x="0px" y="0px"
	 width="340px" height="98px" viewBox="0 0 340 98" enable-background="new 0 0 340 98" xml:space="preserve">
<g>
	<polygon fill="#35495E" points="310.307,71.205 58.851,55.914 58.851,28.034 156.729,26.22 210.748,26.22 224.434,20.613 
		232.162,35.729 306.098,60.861 	"/>
	<path fill="#35495E" d="M324.365,88.686h4.357c0.482,0,0.881-0.396,0.881-0.881v-0.43h0.002V70.582
		c2.291-1.137,4.225-2.678,5.723-4.619c1.457-1.893,2.549-4.043,3.236-6.389c0.623-2.107,0.936-4.414,0.936-6.855
		c0-1.15-0.039-2.178-0.119-3.15c-0.094-1.09-0.262-2.214-0.508-3.343c-0.297-1.413-0.732-2.73-1.291-3.919
		c-0.615-1.321-1.438-2.575-2.451-3.741c-1.141-1.307-2.488-2.395-4.016-3.241c-1.359-0.754-2.926-1.336-4.625-1.725
		c-1.566-0.361-3.275-0.545-5.088-0.545c-4.615,0-8.559,1.22-11.75,3.604c-1.225,1.09-1.523,1.688-2.719,3.33l-0.02,0.562
		c-0.447-0.656-0.945-1.272-1.512-1.836c-2.004-1.997-5.361-3.056-9.631-3.056h-4.451c-3.934,0-5.881,1.832-5.881,1.832
		s0-1.344,0-1.551c0-0.28-0.309-0.28-0.309-0.28h-26.178c0,0-0.229,0.059-0.248,0.301c-0.016,0.204-0.004,1.155,0,1.441
		l-0.111-0.004c-0.441-0.36-2.277-1.679-5.547-1.736c-0.074-0.001-21.662-0.001-21.736-0.001"/>
	<path fill="#35495E" d="M2.55,35.583c0,15.767,9.852,29.394,24.429,34.507l12.303,21.156L51.588,70.09
		c5.98-2.096,11.142-5.643,15.177-10.164v7.738c0,6.494,1.798,11.707,5.337,15.484c3.732,3.99,9.16,6.014,16.133,6.014
		c2.706,0,5.227-0.395,7.51-1.176c1.467-0.504,2.811-1.166,4.042-1.943c3.318,2.045,7.238,3.119,11.528,3.119
		c1.763,0,3.43-0.162,5.017-0.443h42.348c1.391,0.25,2.847,0.375,4.36,0.375h0.89c2.949,0,5.71-0.504,8.205-1.492
		c1.299-0.516,2.486-1.166,3.592-1.9c1.105,0.732,2.285,1.383,3.582,1.895c2.498,0.994,5.305,1.498,8.344,1.498h0.887
		c1.473,0,2.9-0.125,4.27-0.375h24.43h11.307h18.295c3.32,0,6.32-0.592,8.893-1.75c0.676-0.303,1.318-0.654,1.945-1.037
		c2.768,1.768,6.691,3.205,12.152,3.205h0.141c5.375,0,9.262-1.438,12.021-3.205c3.381,2.137,7.641,3.23,12.736,3.23
		c1.668,0,3.258-0.17,4.775-0.467h25.898V72.314"/>
	<g>
		<g>
			<path fill="#35495E" d="M296.672,62c0.068-0.047,0.162-0.084,0.268-0.115l-0.016,4.582l-0.498-2.887
				c-0.051-0.348-0.078-0.621-0.078-0.82C296.348,62.4,296.455,62.148,296.672,62z M293.064,68.861l0.174,2.402l-0.334-0.529
				L293.064,68.861z"/>
			<g>
				<g>
					<path fill="#35495E" d="M64.852,12.334C58.146,5.651,48.518,1,37.99,1C17.317,1,0.5,17.763,0.5,38.37
						c0,16.091,10.056,30,24.934,35.218L37.99,95.18l12.56-21.592c6.103-2.141,11.374-5.76,15.492-10.373L78.854,32.68
						c0,0-2.941-0.399-4.812-5.996C72.839,23.087,71.557,19.017,64.852,12.334z"/>
					<g>
						<path fill="#35495E" d="M236.547,6.864h-22.689c-0.816-0.197-1.689-0.3-2.607-0.3c-1.486,0-2.838,0.283-4.025,0.841
							c-0.381-0.183-0.771-0.334-1.168-0.451c-0.879-0.258-1.789-0.39-2.707-0.39c-0.498,0-0.977,0.026-1.42,0.078
							c-0.355,0.041-0.719,0.11-1.088,0.208h-11.064l0,0h-0.607c-0.498,0-0.902,0.405-0.902,0.899v0.44l-0.002,0.002v31.383h32.381
							l0.006-1.556h3.082c0.275,0,0.48,0,0.619,0c0.137,0,0.324-0.008,0.562-0.024c0.238-0.016,0.416-0.04,0.539-0.071
							c0.119-0.031,0.277-0.079,0.467-0.142c0.191-0.063,0.34-0.14,0.445-0.229c0.105-0.09,0.227-0.204,0.365-0.341
							c0.137-0.137,0.244-0.294,0.324-0.473c0.08-0.18,0.16-0.39,0.238-0.633c0.08-0.243,0.139-0.511,0.182-0.807l1.92,7.575
							l2.51-5.94c0.096-0.485,0.246-1.28,0.334-1.767l5.047-27.417C237.377,7.262,237.045,6.864,236.547,6.864z M220.934,34.207
							c-0.066,0.047-0.162,0.083-0.266,0.115l0.014-4.582l0.498,2.886c0.053,0.348,0.08,0.622,0.08,0.823
							C221.26,33.807,221.15,34.06,220.934,34.207z M224.543,27.346l-0.174-2.403l0.332,0.529L224.543,27.346z"/>
						<path fill="#35495E" d="M188.621,22.925v-4.94c0-3.619-1.072-6.471-3.186-8.475c-2.051-1.944-4.824-2.931-8.242-2.931
							c-1.445,0-2.828,0.217-4.139,0.625V6.31c0-0.495-0.406-0.9-0.9-0.9h-13.057c-0.497,0-0.902,0.405-0.902,0.9v0.852
							c-1.236-0.375-2.601-0.582-4.096-0.582c-2.76,0-5.111,0.655-7.029,1.928c-1.581-1.247-3.192-1.498-4.639-1.498
							c-1.691,0-2.465,0.261-3.177,0.45h-11.042c-1.45-0.571-3.112-0.88-4.965-0.88c-3.089,0-5.669,0.814-7.694,2.406l-4.873-2.2
							c0,0-0.529-0.232-0.676-0.449c-0.114-0.168-0.113-0.366-0.113-0.366V3.543c0-0.495-0.408-0.9-0.902-0.9H95.932
							c-0.498,0-0.902,0.405-0.902,0.9v2.422c0,0.494-0.407,0.899-0.902,0.899H71.141c-0.496,0-0.845,0.4-0.774,0.89l4.468,30.929
							l4.96-3.606h5.637l0.239-2.471h2.397l0.25,2.471h6.441l0.357-2.471h4.544v2.471h5.837v-2.471h2.665v2.471h5.24
							c0.234,0.375,0.494,0.742,0.782,1.098c0.68,0.846,1.498,1.555,2.431,2.109c0.842,0.5,1.831,0.895,2.936,1.174
							c1.047,0.266,2.193,0.399,3.411,0.399c1.854,0,3.438-0.251,4.845-0.742v0.457h9.92l0.271,1.877l2.477-1.877h2.035v-1.542
							l2.5-1.893c0.009,0.012,0.018,0.024,0.026,0.036c0.681,0.846,1.499,1.555,2.432,2.109c0.842,0.5,1.831,0.895,2.936,1.174
							c1.047,0.266,2.194,0.399,3.41,0.399c2.009,0,3.711-0.281,5.205-0.858c1.806-0.701,3.245-1.813,4.278-3.311
							c0.846-1.225,1.439-2.606,1.764-4.105c0.271-1.252,0.403-2.664,0.403-4.317l0.081,0.949c0,7.291,4.319,11.643,11.553,11.643
							c3.348,0,6.129-0.981,8.264-2.917c1.551-1.407,3.402-4.02,3.402-8.473c0-0.559-0.021-1.083-0.066-1.559
							C188.639,26.292,188.621,22.925,188.621,22.925z"/>
						<path fill="#EFC319" d="M89.73,12.261l1.333,14.499l1.459-14.499h5.664l-3.426,23.715h-6.441l-1.475-14.562l-1.412,14.562
							h-6.44l-3.426-23.715h5.663l1.412,14.499l1.38-14.499H89.73z"/>
						<path fill="#EFC319" d="M99.661,35.976V8.04h5.837v6.577c0.614-1.771,1.771-2.656,3.473-2.656c1.502,0,2.691,0.482,3.57,1.446
							c0.876,0.964,1.316,2.4,1.316,4.308v18.261h-5.695V19.628c0-0.062,0.002-0.187,0.008-0.371s0.008-0.33,0.008-0.435
							c0-1.665-0.471-2.498-1.412-2.498c-0.275,0-0.556,0.135-0.841,0.403c-0.286,0.269-0.427,0.704-0.427,1.305v17.944H99.661z"/>
						<path fill="#EFC319" d="M122.962,36.261c-0.847,0-1.613-0.087-2.299-0.261c-0.689-0.174-1.268-0.4-1.738-0.679
							c-0.471-0.28-0.878-0.633-1.222-1.059c-0.344-0.428-0.616-0.862-0.818-1.305c-0.199-0.443-0.36-0.949-0.482-1.518
							c-0.122-0.569-0.201-1.097-0.238-1.581c-0.037-0.485-0.056-1.022-0.056-1.613v-9.534c0-2.182,0.627-3.85,1.879-5.004
							c1.253-1.154,3.005-1.731,5.259-1.731c4.568,0,6.853,2.245,6.853,6.735v1.723c0,2.14-0.023,3.611-0.065,4.411h-8.247v3.32
							c0,0.105-0.003,0.277-0.008,0.514c-0.005,0.237-0.008,0.419-0.008,0.545c0,0.38,0.017,0.704,0.048,0.973
							c0.031,0.269,0.088,0.543,0.174,0.822c0.083,0.279,0.225,0.49,0.421,0.632c0.195,0.143,0.441,0.213,0.737,0.213
							c0.306,0,0.556-0.108,0.747-0.324c0.189-0.216,0.324-0.527,0.403-0.933c0.079-0.406,0.129-0.768,0.15-1.083
							c0.022-0.316,0.032-0.712,0.032-1.186c0-0.928-0.009-1.434-0.032-1.518h5.648v1.344c0,1.317-0.102,2.44-0.301,3.368
							c-0.202,0.927-0.559,1.763-1.072,2.505c-0.512,0.743-1.245,1.299-2.197,1.668C125.578,36.076,124.389,36.261,122.962,36.261z
							 M123.183,16.229c-0.296,0-0.544,0.077-0.745,0.229s-0.349,0.382-0.444,0.688c-0.096,0.306-0.158,0.619-0.19,0.941
							c-0.032,0.321-0.048,0.714-0.048,1.177c0,0.222,0.005,0.554,0.016,0.997c0.011,0.443,0.017,0.774,0.017,0.996h2.664v-2.466
							C124.452,17.083,124.029,16.229,123.183,16.229z"/>
						<path fill="#EFC319" d="M132.319,35.976V12.261h5.679v2.641c0.317-1.086,0.761-1.845,1.332-2.277
							c0.571-0.432,1.296-0.648,2.173-0.648c1.058,0,1.988,0.325,2.792,0.973c0.804,0.648,1.206,1.589,1.206,2.822v7.936h-5.551
							v-5.675c0-0.285-0.015-0.525-0.041-0.719c-0.026-0.195-0.11-0.382-0.253-0.562c-0.143-0.179-0.346-0.269-0.61-0.269
							c-0.276,0-0.518,0.121-0.73,0.364c-0.211,0.242-0.317,0.575-0.317,0.996v18.134H132.319z"/>
						<path fill="#EFC319" d="M153.813,36.261c-0.846,0-1.612-0.087-2.3-0.261c-0.687-0.174-1.267-0.4-1.737-0.679
							c-0.47-0.28-0.876-0.633-1.221-1.059c-0.344-0.428-0.617-0.862-0.817-1.305c-0.201-0.443-0.363-0.949-0.485-1.518
							c-0.119-0.569-0.199-1.097-0.237-1.581c-0.036-0.485-0.055-1.022-0.055-1.613v-9.534c0-2.182,0.626-3.85,1.88-5.004
							c1.251-1.154,3.005-1.731,5.258-1.731c4.568,0,6.852,2.245,6.852,6.735v1.723c0,2.14-0.021,3.611-0.063,4.411h-8.248v3.32
							c0,0.105-0.003,0.277-0.007,0.514c-0.005,0.237-0.008,0.419-0.008,0.545c0,0.38,0.016,0.704,0.047,0.973
							c0.032,0.269,0.09,0.543,0.174,0.822c0.085,0.279,0.226,0.49,0.421,0.632c0.195,0.143,0.441,0.213,0.737,0.213
							c0.307,0,0.555-0.108,0.746-0.324c0.19-0.216,0.324-0.527,0.404-0.933c0.08-0.406,0.13-0.768,0.151-1.083
							c0.021-0.316,0.032-0.712,0.032-1.186c0-0.928-0.011-1.434-0.032-1.518h5.647v1.344c0,1.317-0.1,2.44-0.301,3.368
							c-0.201,0.927-0.558,1.763-1.07,2.505c-0.514,0.743-1.245,1.299-2.198,1.668C156.431,36.076,155.241,36.261,153.813,36.261z
							 M154.035,16.229c-0.295,0-0.544,0.077-0.745,0.229s-0.349,0.382-0.444,0.688c-0.095,0.306-0.158,0.619-0.19,0.941
							c-0.032,0.321-0.048,0.714-0.048,1.177c0,0.222,0.005,0.554,0.016,0.997c0.01,0.443,0.016,0.774,0.016,0.996h2.665v-2.466
							C155.304,17.083,154.882,16.229,154.035,16.229z"/>
						<path fill="#EFC319" d="M162.665,15.518v-4.711h5.933v4.57l-1.618,3.873h-3.347l1.046-3.731H162.665z"/>
						<path fill="#EFC319" d="M178.271,19.328l-0.031-0.901c0-0.211-0.016-0.422-0.047-0.633c-0.031-0.211-0.09-0.429-0.176-0.656
							c-0.084-0.227-0.209-0.409-0.379-0.545c-0.17-0.137-0.371-0.205-0.604-0.205c-0.391,0-0.689,0.11-0.896,0.332
							c-0.205,0.221-0.309,0.533-0.309,0.933c0,0.843,0.338,1.512,1.014,2.007l3.506,2.562c0.699,0.517,1.301,1.059,1.809,1.628
							c0.508,0.569,0.891,1.089,1.15,1.558c0.258,0.47,0.465,0.972,0.619,1.51c0.152,0.538,0.246,0.975,0.277,1.312
							c0.031,0.337,0.047,0.716,0.047,1.138c0,2.266-0.643,3.981-1.926,5.146c-1.285,1.165-3.027,1.747-5.229,1.747
							c-4.695,0-7.042-2.382-7.042-7.146l0.032-1.882h5.678l0.031,2.783c0,0.379,0.045,0.693,0.137,0.94
							c0.088,0.248,0.213,0.424,0.371,0.529c0.16,0.105,0.307,0.174,0.438,0.206c0.131,0.032,0.283,0.047,0.451,0.047
							c0.762,0,1.143-0.616,1.143-1.849c0-0.316-0.006-0.546-0.016-0.688c-0.012-0.142-0.051-0.353-0.119-0.632
							s-0.18-0.524-0.332-0.735c-0.154-0.211-0.377-0.469-0.668-0.775c-0.289-0.305-0.658-0.627-1.102-0.965l-3.029-2.324
							c-0.656-0.506-1.188-0.999-1.596-1.478c-0.407-0.479-0.704-0.986-0.887-1.518c-0.186-0.532-0.304-1.012-0.357-1.439
							c-0.053-0.427-0.079-0.978-0.079-1.651c0-1.213,0.349-2.261,1.047-3.146c0.698-0.886,1.567-1.534,2.608-1.945
							c1.041-0.411,2.17-0.617,3.387-0.617c2.23,0,3.941,0.564,5.133,1.692c1.188,1.127,1.783,2.867,1.783,5.217v0.443H178.271z"/>
						<path fill="#EFC319" d="M193.801,12.245h5.553v2.767c0.137-0.527,0.322-0.983,0.555-1.368c0.232-0.384,0.48-0.683,0.738-0.894
							c0.26-0.211,0.555-0.379,0.887-0.506c0.334-0.126,0.639-0.206,0.912-0.237c0.275-0.032,0.578-0.047,0.904-0.047
							c0.486,0,0.963,0.068,1.428,0.205c0.467,0.138,0.932,0.397,1.396,0.783c0.465,0.385,0.809,0.867,1.031,1.447
							c0.498-0.896,1.061-1.525,1.689-1.889s1.414-0.545,2.355-0.545c0.707,0,1.342,0.089,1.896,0.268
							c0.555,0.179,1.008,0.44,1.363,0.783c0.354,0.342,0.65,0.716,0.889,1.122c0.24,0.406,0.412,0.878,0.523,1.415
							s0.189,1.043,0.23,1.518c0.039,0.475,0.062,1.002,0.062,1.582l-0.062,17.328h-5.727V18.553c0-1.528-0.387-2.292-1.158-2.292
							c-0.297,0-0.553,0.092-0.77,0.276s-0.379,0.424-0.484,0.719c-0.107,0.296-0.18,0.583-0.221,0.862
							c-0.043,0.279-0.064,0.556-0.064,0.83v17.027h-5.68V19.233c0-0.032,0-0.129,0-0.293c0-0.163,0-0.29,0-0.379
							c0-0.089-0.002-0.227-0.006-0.411c-0.006-0.184-0.018-0.332-0.041-0.442c-0.021-0.111-0.047-0.248-0.08-0.412
							c-0.031-0.163-0.076-0.294-0.133-0.395c-0.059-0.101-0.127-0.198-0.199-0.293c-0.074-0.094-0.166-0.166-0.277-0.213
							c-0.111-0.047-0.236-0.071-0.373-0.071c-0.307,0-0.568,0.095-0.785,0.285c-0.217,0.19-0.381,0.443-0.492,0.759
							s-0.189,0.626-0.238,0.933c-0.047,0.305-0.07,0.616-0.07,0.933v16.743h-5.553V12.245z"/>
						<path fill="#EFC319" d="M217.943,38.917v-3.589h1.777c0.594,0,0.996-0.074,1.213-0.222c0.217-0.147,0.326-0.4,0.326-0.759
							c0-0.2-0.027-0.474-0.08-0.822l-3.664-21.28h5.6l1.047,10.751l0.381,5.249l0.445-5.249l1.268-10.751h5.633l-4.412,23.952
							c-0.043,0.295-0.102,0.564-0.182,0.807c-0.078,0.242-0.158,0.453-0.238,0.632c-0.08,0.179-0.188,0.337-0.324,0.474
							c-0.139,0.138-0.26,0.25-0.365,0.34c-0.105,0.089-0.254,0.165-0.445,0.229c-0.189,0.063-0.348,0.11-0.467,0.142
							c-0.123,0.031-0.301,0.055-0.539,0.071c-0.238,0.016-0.426,0.024-0.562,0.024c-0.139,0-0.344,0-0.619,0H217.943z"/>
					</g>
					<g>
						<path fill="#3B97D2" d="M68.32,39.608c0-16.692-13.576-30.228-30.33-30.228c-16.748,0-30.326,13.536-30.326,30.228
							c0,14.397,10.104,26.438,23.631,29.478l6.694,11.516l6.699-11.516C58.215,66.047,68.32,54.006,68.32,39.608z"/>
						<g>
							<path fill="#35495E" d="M53.05,35.455c0,0.242,0.198,0.441,0.438,0.441h1.438c0.246,0,0.446-0.2,0.446-0.441v-4.784
								c0-0.24-0.2-0.437-0.446-0.437h-1.438c-0.24,0-0.438,0.197-0.438,0.437V35.455z"/>
							<g>
								<path fill="#35495E" d="M22.936,35.455v-4.784c0-0.24-0.197-0.437-0.442-0.437h-1.439c-0.245,0-0.447,0.197-0.447,0.437
									v4.784c0,0.242,0.203,0.441,0.447,0.441h1.439C22.739,35.896,22.936,35.697,22.936,35.455z"/>
								<path fill="#35495E" d="M53.895,48.41h-0.75v-5.813l-0.023-0.002l0.011-0.589l-0.409-4.502
									c0.625-0.003,1.048-0.104,1.269-0.304c0.115-0.107,0.176-0.244,0.176-0.395v-0.78h-0.525l-0.011,0.787
									c-0.086,0.078-0.38,0.164-0.945,0.164h-0.006L52,29.56c0.08-0.001,0.167-0.003,0.264-0.003c0.861,0,1.285,0.11,1.379,0.173
									v0.254h0.525v-0.254c0-0.132-0.053-0.255-0.16-0.353c-0.244-0.229-0.825-0.346-1.724-0.346
									c-0.116,0-0.218,0.002-0.303,0.006c-0.153-4.148-3.024-6.572-13.977-6.572c-10.544,0-13.919,2.558-14.103,6.569
									c-0.067-0.002-0.132-0.002-0.208-0.002c-0.902,0-1.482,0.117-1.729,0.346c-0.104,0.097-0.159,0.22-0.159,0.353v0.281h0.526
									v-0.155l-0.005-0.097c0.101-0.091,0.518-0.202,1.389-0.202c0.061,0,0.106,0.002,0.162,0.003l-0.491,7.414
									c-0.035,0.001-0.063,0.002-0.095,0.002c-0.572,0-0.864-0.086-0.96-0.171v-0.671h-0.526v0.671c0,0.15,0.067,0.287,0.18,0.395
									c0.222,0.2,0.652,0.304,1.287,0.304c0.029,0,0.058,0,0.08,0l-0.292,4.502l-0.009,0.512l-0.01,0.001l-0.034,5.892h-0.587
									c-0.285,0-0.52,0.15-0.52,0.336v0.832c0,0.184,0.235,0.334,0.52,0.334h0.581l-0.01,1.453h0.605v3.986h3.809v-3.986h21.372
									v3.986h3.802v-3.986h0.565v-1.453h0.75c0.284,0,0.517-0.15,0.517-0.334v-0.832C54.411,48.561,54.179,48.41,53.895,48.41z
									 M48.355,25.501c0.582,0,1.047,0.47,1.047,1.045c0,0.575-0.466,1.043-1.047,1.043c-0.58,0-1.045-0.468-1.045-1.043
									C47.31,25.971,47.775,25.501,48.355,25.501z M45.667,25.501c0.577,0,1.054,0.47,1.054,1.045
									c0,0.575-0.478,1.043-1.054,1.043c-0.578,0-1.045-0.468-1.045-1.043C44.623,25.971,45.09,25.501,45.667,25.501z
									 M30.498,25.502c0.578,0,1.043,0.469,1.043,1.047c0,0.573-0.465,1.042-1.043,1.042c-0.577,0-1.047-0.469-1.047-1.042
									C29.45,25.971,29.921,25.502,30.498,25.502z M27.806,25.502c0.583,0,1.049,0.469,1.049,1.047
									c0,0.573-0.466,1.042-1.049,1.042c-0.576,0-1.043-0.469-1.043-1.042C26.762,25.971,27.229,25.502,27.806,25.502z
									 M28.645,47.372h-3.53V45.42h3.53V47.372z M38.066,40.606c-0.011,0-0.016,0-0.016,0c-4.438,0.005-9.448,0.369-10.58,1.396
									c-0.279-0.75-0.394-1.376-0.122-1.651c1.06-1.053,6.138-1.421,10.623-1.429h0.016c0,0,0.006,0,0.016,0
									c4.484,0.008,9.56,0.376,10.62,1.429c0.264,0.263,0.163,0.849-0.089,1.556c-1.321-0.953-6.161-1.296-10.453-1.301
									C38.075,40.606,38.07,40.606,38.066,40.606z M51.129,47.372h-3.526V45.42h3.526V47.372z M24.223,37.449l0.409-8.858
									l26.593,0.046l0.571,8.812H24.223z"/>
							</g>
						</g>
					</g>
					<g>
						<text transform="matrix(1.0033 0 0 1 75.3447 82.127)"><tspan x="0" y="0" fill="#EFC319" font-family="'Anton'" font-size="51.2713">SCHOOL BUS</tspan><tspan x="231.121" y="0" fill="#3B97D2" font-family="'Anton'" font-size="51.2713">?</tspan></text>
					</g>
				</g>
			</g>
		</g>
	</g>
</g>
</svg>
