<?xml version="1.0" encoding="utf-8"?>
<!-- Generator: Adobe Illustrator 16.0.0, SVG Export Plug-In . SVG Version: 6.00 Build 0)  -->
<!DOCTYPE svg PUBLIC "-//W3C//DTD SVG 1.1//EN" "http://www.w3.org/Graphics/SVG/1.1/DTD/svg11.dtd">
<svg version="1.1" id="Layer_1" xmlns="http://www.w3.org/2000/svg" xmlns:xlink="http://www.w3.org/1999/xlink" x="0px" y="0px"
	 width="340px" height="98px" viewBox="0 0 340 98" enable-background="new 0 0 340 98" xml:space="preserve">
<g>
	<g>
		<path fill="#35495E" d="M296.672,62c0.068-0.047,0.162-0.084,0.268-0.115l-0.016,4.582l-0.498-2.887
			c-0.051-0.348-0.078-0.621-0.078-0.82C296.348,62.4,296.455,62.148,296.672,62z M293.064,68.861l0.174,2.402l-0.334-0.529
			L293.064,68.861z"/>
		<g>
			<g>
				<g>
					<path fill="#35495E" d="M339.381,49.568c-0.094-1.09-0.262-2.214-0.508-3.343c-0.297-1.413-0.732-2.73-1.291-3.919
						c-0.615-1.321-1.438-2.575-2.451-3.741c-1.141-1.307-2.488-2.395-4.016-3.241c-1.359-0.754-2.926-1.336-4.625-1.725
						c-1.566-0.361-3.275-0.545-5.088-0.545c-4.615,0-8.559,1.22-11.75,3.604c-1.225,1.09-1.523,1.688-2.719,3.33l-0.02,0.562
						c-0.447-0.656-0.945-1.272-1.512-1.836c-2.004-1.997-5.361-3.056-9.631-3.056h-4.451c-3.934,0-5.881,1.832-5.881,1.832
						s0-1.344,0-1.551c0-0.28-0.309-0.28-0.309-0.28h-26.178c0,0-0.229,0.059-0.248,0.301c-0.016,0.204-0.004,1.155,0,1.441
						l-0.111-0.004c-0.441-0.36-2.277-1.679-5.547-1.736c-0.065-0.001-16.935-0.001-20.897-0.001
						c0.033-0.179,0.065-0.35,0.091-0.492l5.047-27.417c0.09-0.486-0.242-0.884-0.74-0.884h-22.689
						c-0.816-0.197-1.689-0.3-2.607-0.3c-1.486,0-2.838,0.283-4.025,0.841c-0.381-0.183-0.771-0.334-1.168-0.451
						c-0.879-0.258-1.789-0.39-2.707-0.39c-0.498,0-0.977,0.026-1.42,0.078c-0.355,0.041-0.719,0.11-1.088,0.208h-11.064h-0.607
						c-0.498,0-0.902,0.405-0.902,0.899v0.44l-0.002,0.002v6.499c-0.47-2.09-1.408-3.831-2.83-5.179
						c-2.051-1.944-4.824-2.931-8.242-2.931c-1.445,0-2.828,0.217-4.139,0.625V6.31c0-0.495-0.406-0.9-0.9-0.9h-13.057
						c-0.497,0-0.902,0.405-0.902,0.9v0.852c-1.236-0.375-2.601-0.582-4.096-0.582c-2.76,0-5.111,0.655-7.029,1.928
						c-1.581-1.247-3.192-1.498-4.639-1.498c-1.691,0-2.465,0.261-3.177,0.45h-11.042c-1.45-0.571-3.112-0.88-4.965-0.88
						c-3.089,0-5.669,0.814-7.694,2.406l-4.873-2.2c0,0-0.529-0.232-0.676-0.449c-0.114-0.168-0.113-0.366-0.113-0.366V3.543
						c0-0.495-0.408-0.9-0.902-0.9H95.932c-0.498,0-0.902,0.405-0.902,0.9v2.422c0,0.494-0.407,0.899-0.902,0.899H71.141
						c-0.496,0-0.845,0.4-0.774,0.89l2.15,14.886c-1.244-2.725-3.305-5.961-7.665-10.307C58.146,5.651,48.518,1,37.99,1
						C17.317,1,0.5,17.763,0.5,38.37c0,16.091,10.056,30,24.934,35.218L37.99,95.18l12.56-21.592
						c6.103-2.141,11.374-5.76,15.492-10.373l0.724-1.725v6.174c0,6.494,1.798,11.707,5.337,15.484
						c3.732,3.99,9.16,6.014,16.133,6.014c2.706,0,5.227-0.395,7.51-1.176c1.467-0.504,2.811-1.166,4.042-1.943
						c3.318,2.045,7.238,3.119,11.528,3.119c1.763,0,3.43-0.162,5.017-0.443h42.348c1.391,0.25,2.847,0.375,4.36,0.375h0.89
						c2.949,0,5.71-0.504,8.205-1.492c1.299-0.516,2.486-1.166,3.592-1.9c1.105,0.732,2.285,1.383,3.582,1.895
						c2.498,0.994,5.305,1.498,8.344,1.498h0.887c1.473,0,2.9-0.125,4.27-0.375h24.43h11.307h18.295c3.32,0,6.32-0.592,8.893-1.75
						c0.676-0.303,1.318-0.654,1.945-1.037c2.768,1.768,6.691,3.205,12.152,3.205h0.141c5.375,0,9.262-1.438,12.021-3.205
						c3.381,2.137,7.641,3.23,12.736,3.23c1.668,0,3.258-0.17,4.775-0.467h25.898v-0.01h3.318c0.482,0,0.881-0.396,0.881-0.881
						v-0.43h0.002V70.582c2.291-1.137,4.225-2.678,5.723-4.619c1.457-1.893,2.549-4.043,3.236-6.389
						c0.623-2.107,0.936-4.414,0.936-6.855C339.5,51.568,339.461,50.541,339.381,49.568z"/>
					<path fill="#EFC319" d="M89.73,12.261l1.333,14.499l1.459-14.499h5.664l-3.426,23.715h-6.441l-1.475-14.562l-1.412,14.562
						h-6.44l-3.426-23.715h5.663l1.412,14.499l1.38-14.499H89.73z"/>
					<path fill="#EFC319" d="M99.661,35.976V8.04h5.837v6.577c0.614-1.771,1.771-2.656,3.473-2.656c1.502,0,2.691,0.482,3.57,1.446
						c0.876,0.964,1.316,2.4,1.316,4.308v18.261h-5.695V19.628c0-0.062,0.002-0.187,0.008-0.371s0.008-0.33,0.008-0.435
						c0-1.665-0.471-2.498-1.412-2.498c-0.275,0-0.556,0.135-0.841,0.403c-0.286,0.269-0.427,0.704-0.427,1.305v17.944H99.661z"/>
					<path fill="#EFC319" d="M122.962,36.261c-0.847,0-1.613-0.087-2.299-0.261c-0.689-0.174-1.268-0.4-1.738-0.679
						c-0.471-0.28-0.878-0.633-1.222-1.059c-0.344-0.428-0.616-0.862-0.818-1.305c-0.199-0.443-0.36-0.949-0.482-1.518
						c-0.122-0.569-0.201-1.097-0.238-1.581c-0.037-0.485-0.056-1.022-0.056-1.613v-9.534c0-2.182,0.627-3.85,1.879-5.004
						c1.253-1.154,3.005-1.731,5.259-1.731c4.568,0,6.853,2.245,6.853,6.735v1.723c0,2.14-0.023,3.611-0.065,4.411h-8.247v3.32
						c0,0.105-0.003,0.277-0.008,0.514c-0.005,0.237-0.008,0.419-0.008,0.545c0,0.38,0.017,0.704,0.048,0.973
						c0.031,0.269,0.088,0.543,0.174,0.822c0.083,0.279,0.225,0.49,0.421,0.632c0.195,0.143,0.441,0.213,0.737,0.213
						c0.306,0,0.556-0.108,0.747-0.324c0.189-0.216,0.324-0.527,0.403-0.933c0.079-0.406,0.129-0.768,0.15-1.083
						c0.022-0.316,0.032-0.712,0.032-1.186c0-0.928-0.009-1.434-0.032-1.518h5.648v1.344c0,1.317-0.102,2.44-0.301,3.368
						c-0.202,0.927-0.559,1.763-1.072,2.505c-0.512,0.743-1.245,1.299-2.197,1.668C125.578,36.076,124.389,36.261,122.962,36.261z
						 M123.183,16.229c-0.296,0-0.544,0.077-0.745,0.229s-0.349,0.382-0.444,0.688c-0.096,0.306-0.158,0.619-0.19,0.941
						c-0.032,0.321-0.048,0.714-0.048,1.177c0,0.222,0.005,0.554,0.016,0.997c0.011,0.443,0.017,0.774,0.017,0.996h2.664v-2.466
						C124.452,17.083,124.029,16.229,123.183,16.229z"/>
					<path fill="#EFC319" d="M132.319,35.976V12.261h5.679v2.641c0.317-1.086,0.761-1.845,1.332-2.277
						c0.571-0.432,1.296-0.648,2.173-0.648c1.058,0,1.988,0.325,2.792,0.973c0.804,0.648,1.206,1.589,1.206,2.822v7.936h-5.551
						v-5.675c0-0.285-0.015-0.525-0.041-0.719c-0.026-0.195-0.11-0.382-0.253-0.562c-0.143-0.179-0.346-0.269-0.61-0.269
						c-0.276,0-0.518,0.121-0.73,0.364c-0.211,0.242-0.317,0.575-0.317,0.996v18.134H132.319z"/>
					<path fill="#EFC319" d="M153.813,36.261c-0.846,0-1.612-0.087-2.3-0.261c-0.687-0.174-1.267-0.4-1.737-0.679
						c-0.47-0.28-0.876-0.633-1.221-1.059c-0.344-0.428-0.617-0.862-0.817-1.305c-0.201-0.443-0.363-0.949-0.485-1.518
						c-0.119-0.569-0.199-1.097-0.237-1.581c-0.036-0.485-0.055-1.022-0.055-1.613v-9.534c0-2.182,0.626-3.85,1.88-5.004
						c1.251-1.154,3.005-1.731,5.258-1.731c4.568,0,6.852,2.245,6.852,6.735v1.723c0,2.14-0.021,3.611-0.063,4.411h-8.248v3.32
						c0,0.105-0.003,0.277-0.007,0.514c-0.005,0.237-0.008,0.419-0.008,0.545c0,0.38,0.016,0.704,0.047,0.973
						c0.032,0.269,0.09,0.543,0.174,0.822c0.085,0.279,0.226,0.49,0.421,0.632c0.195,0.143,0.441,0.213,0.737,0.213
						c0.307,0,0.555-0.108,0.746-0.324c0.19-0.216,0.324-0.527,0.404-0.933c0.08-0.406,0.13-0.768,0.151-1.083
						c0.021-0.316,0.032-0.712,0.032-1.186c0-0.928-0.011-1.434-0.032-1.518h5.647v1.344c0,1.317-0.1,2.44-0.301,3.368
						c-0.201,0.927-0.558,1.763-1.07,2.505c-0.514,0.743-1.245,1.299-2.198,1.668C156.431,36.076,155.241,36.261,153.813,36.261z
						 M154.035,16.229c-0.295,0-0.544,0.077-0.745,0.229s-0.349,0.382-0.444,0.688c-0.095,0.306-0.158,0.619-0.19,0.941
						c-0.032,0.321-0.048,0.714-0.048,1.177c0,0.222,0.005,0.554,0.016,0.997c0.01,0.443,0.016,0.774,0.016,0.996h2.665v-2.466
						C155.304,17.083,154.882,16.229,154.035,16.229z"/>
					<path fill="#EFC319" d="M162.665,15.518v-4.711h5.933v4.57l-1.618,3.873h-3.347l1.046-3.731H162.665z"/>
					<path fill="#EFC319" d="M178.271,19.328l-0.031-0.901c0-0.211-0.016-0.422-0.047-0.633c-0.031-0.211-0.09-0.429-0.176-0.656
						c-0.084-0.227-0.209-0.409-0.379-0.545c-0.17-0.137-0.371-0.205-0.604-0.205c-0.391,0-0.689,0.11-0.896,0.332
						c-0.205,0.221-0.309,0.533-0.309,0.933c0,0.843,0.338,1.512,1.014,2.007l3.506,2.562c0.699,0.517,1.301,1.059,1.809,1.628
						c0.508,0.569,0.891,1.089,1.15,1.558c0.258,0.47,0.465,0.972,0.619,1.51c0.152,0.538,0.246,0.975,0.277,1.312
						c0.031,0.337,0.047,0.716,0.047,1.138c0,2.266-0.643,3.981-1.926,5.146c-1.285,1.165-3.027,1.747-5.229,1.747
						c-4.695,0-7.042-2.382-7.042-7.146l0.032-1.882h5.678l0.031,2.783c0,0.379,0.045,0.693,0.137,0.94
						c0.088,0.248,0.213,0.424,0.371,0.529c0.16,0.105,0.307,0.174,0.438,0.206c0.131,0.032,0.283,0.047,0.451,0.047
						c0.762,0,1.143-0.616,1.143-1.849c0-0.316-0.006-0.546-0.016-0.688c-0.012-0.142-0.051-0.353-0.119-0.632
						s-0.18-0.524-0.332-0.735c-0.154-0.211-0.377-0.469-0.668-0.775c-0.289-0.305-0.658-0.627-1.102-0.965l-3.029-2.324
						c-0.656-0.506-1.188-0.999-1.596-1.478c-0.407-0.479-0.704-0.986-0.887-1.518c-0.186-0.532-0.304-1.012-0.357-1.439
						c-0.053-0.427-0.079-0.978-0.079-1.651c0-1.213,0.349-2.261,1.047-3.146c0.698-0.886,1.567-1.534,2.608-1.945
						c1.041-0.411,2.17-0.617,3.387-0.617c2.23,0,3.941,0.564,5.133,1.692c1.188,1.127,1.783,2.867,1.783,5.217v0.443H178.271z"/>
					<path fill="#EFC319" d="M193.801,12.245h5.553v2.767c0.137-0.527,0.322-0.983,0.555-1.368c0.232-0.384,0.48-0.683,0.738-0.894
						c0.26-0.211,0.555-0.379,0.887-0.506c0.334-0.126,0.639-0.206,0.912-0.237c0.275-0.032,0.578-0.047,0.904-0.047
						c0.486,0,0.963,0.068,1.428,0.205c0.467,0.138,0.932,0.397,1.396,0.783c0.465,0.385,0.809,0.867,1.031,1.447
						c0.498-0.896,1.061-1.525,1.689-1.889s1.414-0.545,2.355-0.545c0.707,0,1.342,0.089,1.896,0.268
						c0.555,0.179,1.008,0.44,1.363,0.783c0.354,0.342,0.65,0.716,0.889,1.122c0.24,0.406,0.412,0.878,0.523,1.415
						s0.189,1.043,0.23,1.518c0.039,0.475,0.062,1.002,0.062,1.582l-0.062,17.328h-5.727V18.553c0-1.528-0.387-2.292-1.158-2.292
						c-0.297,0-0.553,0.092-0.77,0.276s-0.379,0.424-0.484,0.719c-0.107,0.296-0.18,0.583-0.221,0.862
						c-0.043,0.279-0.064,0.556-0.064,0.83v17.027h-5.68V19.233c0-0.032,0-0.129,0-0.293c0-0.163,0-0.29,0-0.379
						c0-0.089-0.002-0.227-0.006-0.411c-0.006-0.184-0.018-0.332-0.041-0.442c-0.021-0.111-0.047-0.248-0.08-0.412
						c-0.031-0.163-0.076-0.294-0.133-0.395c-0.059-0.101-0.127-0.198-0.199-0.293c-0.074-0.094-0.166-0.166-0.277-0.213
						c-0.111-0.047-0.236-0.071-0.373-0.071c-0.307,0-0.568,0.095-0.785,0.285c-0.217,0.19-0.381,0.443-0.492,0.759
						s-0.189,0.626-0.238,0.933c-0.047,0.305-0.07,0.616-0.07,0.933v16.743h-5.553V12.245z"/>
					<path fill="#EFC319" d="M217.943,38.917v-3.589h1.777c0.594,0,0.996-0.074,1.213-0.222c0.217-0.147,0.326-0.4,0.326-0.759
						c0-0.2-0.027-0.474-0.08-0.822l-3.664-21.28h5.6l1.047,10.751l0.381,5.249l0.445-5.249l1.268-10.751h5.633l-4.412,23.952
						c-0.043,0.295-0.102,0.564-0.182,0.807c-0.078,0.242-0.158,0.453-0.238,0.632c-0.08,0.179-0.188,0.337-0.324,0.474
						c-0.139,0.138-0.26,0.25-0.365,0.34c-0.105,0.089-0.254,0.165-0.445,0.229c-0.189,0.063-0.348,0.11-0.467,0.142
						c-0.123,0.031-0.301,0.055-0.539,0.071c-0.238,0.016-0.426,0.024-0.562,0.024c-0.139,0-0.344,0-0.619,0H217.943z"/>
				</g>
				<g>
					<path fill="#3B97D2" d="M68.32,39.608c0-16.692-13.576-30.228-30.33-30.228c-16.748,0-30.326,13.536-30.326,30.228
						c0,14.397,10.104,26.438,23.631,29.478l6.694,11.516l6.699-11.516C58.215,66.047,68.32,54.006,68.32,39.608z"/>
					<g>
						<path fill="#35495E" d="M53.05,35.455c0,0.242,0.198,0.441,0.438,0.441h1.438c0.246,0,0.446-0.2,0.446-0.441v-4.784
							c0-0.24-0.2-0.437-0.446-0.437h-1.438c-0.24,0-0.438,0.197-0.438,0.437V35.455z"/>
						<g>
							<path fill="#35495E" d="M22.936,35.455v-4.784c0-0.24-0.197-0.437-0.442-0.437h-1.439c-0.245,0-0.447,0.197-0.447,0.437
								v4.784c0,0.242,0.203,0.441,0.447,0.441h1.439C22.739,35.896,22.936,35.697,22.936,35.455z"/>
							<path fill="#35495E" d="M53.895,48.41h-0.75v-5.813l-0.023-0.002l0.011-0.589l-0.409-4.502
								c0.625-0.003,1.048-0.104,1.269-0.304c0.115-0.107,0.176-0.244,0.176-0.395v-0.78h-0.525l-0.011,0.787
								c-0.086,0.078-0.38,0.164-0.945,0.164h-0.006L52,29.56c0.08-0.001,0.167-0.003,0.264-0.003c0.861,0,1.285,0.11,1.379,0.173
								v0.254h0.525v-0.254c0-0.132-0.053-0.255-0.16-0.353c-0.244-0.229-0.825-0.346-1.724-0.346c-0.116,0-0.218,0.002-0.303,0.006
								c-0.153-4.148-3.024-6.572-13.977-6.572c-10.544,0-13.919,2.558-14.103,6.569c-0.067-0.002-0.132-0.002-0.208-0.002
								c-0.902,0-1.482,0.117-1.729,0.346c-0.104,0.097-0.159,0.22-0.159,0.353v0.281h0.526v-0.155l-0.005-0.097
								c0.101-0.091,0.518-0.202,1.389-0.202c0.061,0,0.106,0.002,0.162,0.003l-0.491,7.414c-0.035,0.001-0.063,0.002-0.095,0.002
								c-0.572,0-0.864-0.086-0.96-0.171v-0.671h-0.526v0.671c0,0.15,0.067,0.287,0.18,0.395c0.222,0.2,0.652,0.304,1.287,0.304
								c0.029,0,0.058,0,0.08,0l-0.292,4.502l-0.009,0.512l-0.01,0.001l-0.034,5.892h-0.587c-0.285,0-0.52,0.15-0.52,0.336v0.832
								c0,0.184,0.235,0.334,0.52,0.334h0.581l-0.01,1.453h0.605v3.986h3.809v-3.986h21.372v3.986h3.802v-3.986h0.565v-1.453h0.75
								c0.284,0,0.517-0.15,0.517-0.334v-0.832C54.411,48.561,54.179,48.41,53.895,48.41z M48.355,25.501
								c0.582,0,1.047,0.47,1.047,1.045c0,0.575-0.466,1.043-1.047,1.043c-0.58,0-1.045-0.468-1.045-1.043
								C47.31,25.971,47.775,25.501,48.355,25.501z M45.667,25.501c0.577,0,1.054,0.47,1.054,1.045c0,0.575-0.478,1.043-1.054,1.043
								c-0.578,0-1.045-0.468-1.045-1.043C44.623,25.971,45.09,25.501,45.667,25.501z M30.498,25.502
								c0.578,0,1.043,0.469,1.043,1.047c0,0.573-0.465,1.042-1.043,1.042c-0.577,0-1.047-0.469-1.047-1.042
								C29.45,25.971,29.921,25.502,30.498,25.502z M27.806,25.502c0.583,0,1.049,0.469,1.049,1.047
								c0,0.573-0.466,1.042-1.049,1.042c-0.576,0-1.043-0.469-1.043-1.042C26.762,25.971,27.229,25.502,27.806,25.502z
								 M28.645,47.372h-3.53V45.42h3.53V47.372z M38.066,40.606c-0.011,0-0.016,0-0.016,0c-4.438,0.005-9.448,0.369-10.58,1.396
								c-0.279-0.75-0.394-1.376-0.122-1.651c1.06-1.053,6.138-1.421,10.623-1.429h0.016c0,0,0.006,0,0.016,0
								c4.484,0.008,9.56,0.376,10.62,1.429c0.264,0.263,0.163,0.849-0.089,1.556c-1.321-0.953-6.161-1.296-10.453-1.301
								C38.075,40.606,38.07,40.606,38.066,40.606z M51.129,47.372h-3.526V45.42h3.526V47.372z M24.223,37.449l0.409-8.858
								l26.593,0.046l0.571,8.812H24.223z"/>
						</g>
					</g>
				</g>
				<g>
					<g>
						<path fill="#EFC319" d="M87.954,82.576c-4.103,0-7.029-0.934-8.778-2.803c-1.75-1.869-2.625-4.758-2.625-8.662v-3.906h8.741
							v3.58c0,2.57,0.704,3.855,2.11,3.855c0.653,0,1.168-0.25,1.545-0.75c0.376-0.502,0.565-1.16,0.565-1.979
							c0-1.068-0.146-1.969-0.439-2.703s-0.737-1.432-1.331-2.092c-0.595-0.658-1.57-1.572-2.926-2.74l-3.743-3.23
							c-3.014-2.586-4.521-5.506-4.521-8.762c0-3.537,0.908-6.171,2.725-7.898c1.817-1.728,4.316-2.591,7.498-2.591
							c0.083,0,0.159,0,0.226,0s0.511,0,1.331,0s1.875,0.188,3.165,0.563c1.289,0.375,2.437,1.001,3.441,1.877
							c1.005,0.876,1.758,2.095,2.261,3.655c0.502,1.561,0.753,3.467,0.753,5.721h-8.967l-0.05-2.404
							c-0.017-0.451-0.209-0.852-0.578-1.201c-0.369-0.352-0.779-0.525-1.231-0.525c-0.586,0-1.084,0.18-1.494,0.537
							c-0.411,0.359-0.616,0.822-0.616,1.391c0,1.135,0.829,2.369,2.487,3.705l5.35,4.305c0.87,0.701,1.628,1.414,2.273,2.141
							c0.645,0.727,1.155,1.443,1.532,2.154c0.376,0.709,0.682,1.352,0.917,1.926c0.234,0.576,0.398,1.203,0.49,1.879
							c0.092,0.676,0.146,1.186,0.164,1.527c0.017,0.342,0.025,0.787,0.025,1.338c0,1.402-0.092,2.676-0.276,3.818
							c-0.184,1.145-0.511,2.246-0.979,3.305c-0.469,1.061-1.084,1.945-1.846,2.654s-1.75,1.273-2.964,1.689
							C90.972,82.369,89.561,82.576,87.954,82.576z"/>
						<path fill="#EFC319" d="M122.766,64.953v7.535c0,3.471-0.988,6.021-2.964,7.648c-1.976,1.627-4.739,2.439-8.289,2.439
							c-3.148,0-5.71-0.896-7.686-2.689c-1.976-1.795-2.964-4.344-2.964-7.648V53.736c0-3.955,0.875-6.913,2.625-8.874
							c1.75-1.961,4.492-2.942,8.226-2.942c1.523,0,2.93,0.188,4.22,0.563c1.289,0.375,2.432,0.931,3.428,1.665
							c0.996,0.735,1.779,1.699,2.349,2.892c0.569,1.194,0.854,2.565,0.854,4.118v7.035h-8.741v-4.631c0-2.387-0.704-3.58-2.11-3.58
							c-0.838,0-1.39,0.262-1.658,0.787c-0.268,0.527-0.402,1.258-0.402,2.191v18.852c0,0.818,0.188,1.527,0.565,2.127
							c0.377,0.602,0.875,0.902,1.495,0.902c0.569,0,1.063-0.221,1.482-0.664c0.418-0.441,0.628-1.23,0.628-2.365v-6.859H122.766z"
							/>
						<path fill="#EFC319" d="M135.148,64.025v18.102h-8.791V42.246h8.791V56.49h4.169V42.246h8.791v39.881h-8.791V64.025H135.148z"
							/>
						<path fill="#EFC319" d="M151.952,71.361V52.359c0-3.32,0.9-5.895,2.7-7.723c1.8-1.828,4.508-2.766,8.125-2.816
							c3.717,0.05,6.476,0.989,8.276,2.816c1.8,1.828,2.7,4.402,2.7,7.723v19.002c0,1.619-0.205,3.092-0.615,4.418
							c-0.41,1.328-1.035,2.508-1.871,3.543c-0.838,1.035-1.972,1.836-3.404,2.404c-1.432,0.566-3.077,0.826-4.936,0.775
							c-1.959,0.051-3.654-0.209-5.086-0.775c-1.432-0.568-2.566-1.369-3.403-2.404c-0.838-1.035-1.461-2.215-1.872-3.543
							C152.157,74.453,151.952,72.98,151.952,71.361z M162.853,74.691c0.318,0,0.599-0.062,0.841-0.188s0.436-0.318,0.578-0.576
							s0.255-0.504,0.339-0.738c0.083-0.234,0.142-0.547,0.176-0.939c0.033-0.393,0.054-0.691,0.062-0.9s0.013-0.496,0.013-0.865
							c0-0.082,0-0.148,0-0.199V54.264c0-0.102,0.004-0.301,0.013-0.602c0.008-0.301,0.008-0.525,0-0.676
							c-0.009-0.15-0.017-0.371-0.025-0.664c-0.008-0.291-0.034-0.518-0.075-0.676c-0.042-0.158-0.092-0.359-0.15-0.602
							c-0.059-0.24-0.138-0.424-0.239-0.551c-0.101-0.125-0.218-0.258-0.352-0.4c-0.134-0.141-0.302-0.24-0.502-0.299
							c-0.201-0.059-0.427-0.088-0.678-0.088c-0.352,0-0.657,0.059-0.917,0.174c-0.26,0.117-0.464,0.305-0.615,0.564
							c-0.15,0.258-0.276,0.492-0.376,0.701c-0.101,0.209-0.168,0.518-0.201,0.926c-0.034,0.408-0.05,0.701-0.05,0.877
							c0,0.174,0,0.471,0,0.889c0,0.066,0,0.125,0,0.174c0,0.051,0,0.102,0,0.15v16.023c0,0.367,0.004,0.658,0.013,0.875
							c0.008,0.217,0.029,0.535,0.062,0.951c0.034,0.418,0.096,0.756,0.188,1.014c0.092,0.26,0.214,0.531,0.364,0.814
							c0.151,0.283,0.355,0.496,0.615,0.639S162.501,74.691,162.853,74.691z"/>
						<path fill="#EFC319" d="M177.07,71.361V52.359c0-3.32,0.898-5.895,2.699-7.723c1.799-1.828,4.508-2.766,8.125-2.816
							c3.717,0.05,6.477,0.989,8.277,2.816c1.799,1.828,2.699,4.402,2.699,7.723v19.002c0,1.619-0.205,3.092-0.615,4.418
							c-0.41,1.328-1.035,2.508-1.871,3.543c-0.838,1.035-1.973,1.836-3.404,2.404c-1.432,0.566-3.076,0.826-4.936,0.775
							c-1.959,0.051-3.654-0.209-5.086-0.775c-1.432-0.568-2.566-1.369-3.402-2.404c-0.838-1.035-1.461-2.215-1.871-3.543
							C177.273,74.453,177.07,72.98,177.07,71.361z M187.971,74.691c0.318,0,0.598-0.062,0.842-0.188
							c0.242-0.125,0.434-0.318,0.576-0.576s0.256-0.504,0.34-0.738s0.143-0.547,0.176-0.939s0.055-0.691,0.062-0.9
							s0.014-0.496,0.014-0.865c0-0.082,0-0.148,0-0.199V54.264c0-0.102,0.004-0.301,0.012-0.602s0.008-0.525,0-0.676
							s-0.018-0.371-0.025-0.664c-0.008-0.291-0.033-0.518-0.074-0.676c-0.043-0.158-0.094-0.359-0.152-0.602
							c-0.059-0.24-0.137-0.424-0.238-0.551c-0.1-0.125-0.217-0.258-0.352-0.4c-0.135-0.141-0.301-0.24-0.502-0.299
							s-0.428-0.088-0.678-0.088c-0.352,0-0.658,0.059-0.918,0.174c-0.26,0.117-0.465,0.305-0.615,0.564
							c-0.15,0.258-0.275,0.492-0.377,0.701c-0.1,0.209-0.166,0.518-0.199,0.926c-0.035,0.408-0.051,0.701-0.051,0.877
							c0,0.174,0,0.471,0,0.889c0,0.066,0,0.125,0,0.174c0,0.051,0,0.102,0,0.15v16.023c0,0.367,0.004,0.658,0.012,0.875
							s0.029,0.535,0.062,0.951c0.033,0.418,0.098,0.756,0.189,1.014c0.092,0.26,0.213,0.531,0.363,0.814s0.355,0.496,0.615,0.639
							S187.619,74.691,187.971,74.691z"/>
						<path fill="#EFC319" d="M202.715,82.127V42.246h8.84V74.34h9.094v7.787H202.715z"/>
						<path fill="#EFC319" d="M235.09,82.127V42.246h11.98c3.131,0,5.451,0.688,6.959,2.065c1.506,1.377,2.26,3.726,2.26,7.048
							c0,0.1,0,0.242,0,0.426c0,0.584,0,1.018,0,1.301s-0.029,0.727-0.088,1.326c-0.059,0.602-0.143,1.074-0.252,1.416
							s-0.271,0.764-0.488,1.264c-0.219,0.5-0.486,0.91-0.805,1.227s-0.721,0.625-1.205,0.926c-0.486,0.301-1.047,0.525-1.684,0.676
							c0.922,0.219,1.709,0.594,2.361,1.127c0.652,0.535,1.146,1.098,1.482,1.689c0.334,0.594,0.598,1.324,0.791,2.191
							c0.191,0.867,0.305,1.594,0.338,2.178s0.051,1.285,0.051,2.104c0,2.102-0.146,3.904-0.439,5.406s-0.799,2.842-1.52,4.02
							c-0.721,1.176-1.721,2.053-3.002,2.629c-1.281,0.574-2.867,0.863-4.76,0.863H235.09z M243.73,57.268h1.809
							c0.436,0,0.791-0.092,1.066-0.275c0.277-0.184,0.475-0.447,0.592-0.789c0.115-0.342,0.191-0.65,0.225-0.926
							s0.051-0.605,0.051-0.99v-3.955c0-1.268-0.627-1.902-1.883-1.902h-1.859V57.268z M243.73,63.475v11.566
							c0.402,0.035,0.695,0.051,0.879,0.051c2.293,0,3.441-0.984,3.441-2.955v-4.98c0-1.27-0.213-2.199-0.641-2.791
							c-0.428-0.594-1.109-0.891-2.047-0.891H243.73z"/>
						<path fill="#EFC319" d="M259.779,71.562V42.246h8.59v28.539c0,0.035,0,0.092,0,0.176c0,0.434,0.004,0.775,0.014,1.027
							c0.008,0.25,0.051,0.592,0.125,1.025c0.076,0.434,0.184,0.775,0.326,1.027c0.143,0.25,0.355,0.471,0.641,0.662
							c0.285,0.193,0.637,0.289,1.055,0.289c0.352,0,0.658-0.059,0.918-0.176s0.465-0.297,0.615-0.539
							c0.15-0.24,0.271-0.475,0.363-0.701c0.092-0.225,0.154-0.525,0.189-0.9c0.033-0.375,0.053-0.664,0.062-0.863
							c0.008-0.201,0.012-0.484,0.012-0.852c0-0.084,0-0.141,0-0.176V42.246h8.59v29.316c0,3.604-0.865,6.342-2.6,8.211
							c-1.732,1.869-4.432,2.795-8.1,2.779c-3.734,0.016-6.467-0.91-8.201-2.779C260.646,77.904,259.779,75.166,259.779,71.562z"/>
						<path fill="#EFC319" d="M295.949,82.576c-4.104,0-7.029-0.934-8.779-2.803s-2.623-4.758-2.623-8.662v-3.906h8.74v3.58
							c0,2.57,0.703,3.855,2.109,3.855c0.652,0,1.168-0.25,1.545-0.75c0.377-0.502,0.564-1.16,0.564-1.979
							c0-1.068-0.146-1.969-0.439-2.703s-0.736-1.432-1.33-2.092c-0.596-0.658-1.57-1.572-2.928-2.74l-3.742-3.23
							c-3.014-2.586-4.52-5.506-4.52-8.762c0-3.537,0.906-6.171,2.725-7.898c1.816-1.728,4.316-2.591,7.498-2.591
							c0.082,0,0.158,0,0.225,0s0.512,0,1.332,0s1.875,0.188,3.164,0.563s2.438,1.001,3.441,1.877
							c1.004,0.876,1.758,2.095,2.26,3.655c0.504,1.561,0.754,3.467,0.754,5.721h-8.967l-0.049-2.404
							c-0.018-0.451-0.211-0.852-0.578-1.201c-0.369-0.352-0.779-0.525-1.23-0.525c-0.588,0-1.086,0.18-1.496,0.537
							c-0.41,0.359-0.615,0.822-0.615,1.391c0,1.135,0.83,2.369,2.486,3.705l5.352,4.305c0.869,0.701,1.627,1.414,2.271,2.141
							s1.156,1.443,1.533,2.154c0.377,0.709,0.682,1.352,0.916,1.926c0.234,0.576,0.398,1.203,0.49,1.879s0.146,1.186,0.164,1.527
							c0.016,0.342,0.025,0.787,0.025,1.338c0,1.402-0.094,2.676-0.277,3.818c-0.184,1.145-0.512,2.246-0.979,3.305
							c-0.471,1.061-1.086,1.945-1.848,2.654s-1.75,1.273-2.963,1.689C298.967,82.369,297.557,82.576,295.949,82.576z"/>
						<path fill="#3B97D2" d="M320.363,39.818c1.439,0,2.74,0.134,3.904,0.4c1.164,0.267,2.152,0.626,2.965,1.077
							c0.811,0.45,1.52,1.022,2.121,1.715c0.604,0.692,1.08,1.414,1.432,2.166c0.352,0.751,0.633,1.615,0.842,2.591
							s0.352,1.916,0.428,2.816c0.074,0.902,0.113,1.902,0.113,3.004c0,2.02-0.244,3.855-0.729,5.508
							c-0.486,1.652-1.23,3.131-2.236,4.432c-1.004,1.303-2.357,2.312-4.057,3.029c-1.699,0.719-3.695,1.076-5.99,1.076v4.256
							h-8.363V61.473c1.389,0,2.611-0.033,3.666-0.1c1.057-0.066,1.998-0.191,2.826-0.375c0.83-0.184,1.527-0.389,2.098-0.615
							c0.568-0.225,1.059-0.545,1.469-0.963s0.732-0.838,0.967-1.264s0.42-0.99,0.553-1.691c0.135-0.699,0.223-1.385,0.264-2.053
							c0.043-0.666,0.064-1.51,0.064-2.527c0-1.268-0.164-2.266-0.49-2.992c-0.326-0.726-0.943-1.089-1.846-1.089
							c-0.236,0-0.438,0.013-0.604,0.038c-0.168,0.025-0.373,0.125-0.615,0.301c-0.244,0.175-0.439,0.417-0.59,0.725
							c-0.152,0.311-0.281,0.768-0.391,1.377s-0.162,1.348-0.162,2.217v3.654h-9.193v-6.359c0-3.304,1.051-5.786,3.152-7.447
							C314.062,40.648,316.863,39.818,320.363,39.818z M310.516,82.102v-7.461h8.992v7.461H310.516z"/>
					</g>
				</g>
			</g>
		</g>
	</g>
</g>
</svg>
