<?xml version="1.0" encoding="utf-8"?>
<!-- Generator: Adobe Illustrator 16.0.0, SVG Export Plug-In . SVG Version: 6.00 Build 0)  -->
<!DOCTYPE svg PUBLIC "-//W3C//DTD SVG 1.1//EN" "http://www.w3.org/Graphics/SVG/1.1/DTD/svg11.dtd">
<svg version="1.1" id="Layer_1" xmlns="http://www.w3.org/2000/svg" xmlns:xlink="http://www.w3.org/1999/xlink" x="0px" y="0px"
	 width="246px" height="69px" viewBox="-61.5 -17.5 246 69" enable-background="new -61.5 -17.5 246 69" xml:space="preserve">
<g>
	<polygon fill="#34495D" points="-51.602,15.887 -61.5,-11.85 -56.382,-11.85 -48.638,9.734 -40.464,-11.85 -35.966,-11.85 
		-46.535,15.887 	"/>
	<path fill="#34495D" d="M-11.68,1.251c0.05-3.678-0.603-6.686-1.954-9.02c-1.838-3.126-4.973-4.698-9.408-4.698
		c-3.876,0-6.95,1.277-9.21,3.832c-2.278,2.552-3.416,5.986-3.416,10.294c0,4.534,1.284,8.142,3.855,10.828
		c2.572,2.695,6.045,4.044,10.416,4.044c2.896,0,6.082-0.517,9.564-1.536v-3.99c-3.104,1.128-5.932,1.685-8.486,1.685
		c-4.504,0-7.516-1.75-9.02-5.263c-0.462-1.052-0.798-2.59-1.002-4.618h18.636L-11.68,1.251z M-30.266-0.972
		c0.292-2.754,1.016-4.725,2.182-5.898c1.198-1.226,2.832-1.836,4.912-1.836c2.979,0,4.914,1.311,5.804,3.928
		c0.29,0.876,0.462,2.139,0.519,3.807H-30.266L-30.266-0.972z"/>
	<path fill="#34495D" d="M-7.384,15.887V-11.85h5.063v5.208c0.74-1.752,1.526-3.074,2.366-3.937
		c1.222-1.262,2.666-1.888,4.344-1.888c0.324,0,0.809,0.042,1.444,0.128v4.7c-0.892-0.29-1.612-0.437-2.16-0.437
		c-1.864,0-3.868,1.893-5.994,5.67v18.292H-7.384z"/>
	<path fill="#34495D" d="M10.181,15.887V-11.85h5.062v5.208c1.496-2.215,2.714-3.721,3.674-4.498
		c1.118-0.887,2.584-1.328,4.396-1.328c2.228,0,4.039,0.718,5.43,2.138c0.804,0.844,1.51,2.072,2.104,3.687
		c1.511-2.248,2.74-3.744,3.683-4.496c1.111-0.887,2.58-1.33,4.418-1.33c4.987,0,7.483,2.729,7.483,8.174v20.178h-5.067
		L41.341-3.506c0-3.187-1.231-4.774-3.706-4.774c-2.191,0-4.458,1.856-6.79,5.568v18.598h-5.084V-3.502
		c0-3.187-1.24-4.774-3.731-4.774c-2.196,0-4.458,1.856-6.79,5.568v18.598L10.181,15.887L10.181,15.887z"/>
	<path fill="#34495D" d="M79.482,15.887V-11.85h5.064v5.208c1.25-1.721,2.484-3.024,3.699-3.914
		c1.768-1.272,3.703-1.912,5.818-1.912c4.729,0,7.096,2.81,7.096,8.432v19.92h-5.094V-2.403c0-2.248-0.234-3.764-0.695-4.544
		C94.896-7.745,94-8.151,92.699-8.151c-2.781,0-5.496,2.026-8.148,6.082v17.956H79.482L79.482,15.887z"/>
	<path fill="#34495D" d="M105.383,14.916v-4.622c3.41,1.636,6.559,2.454,9.439,2.454c3.889,0,5.84-1.362,5.84-4.096
		c0-1.87-1.365-3.244-4.09-4.135l-4.521-1.478c-4.344-1.412-6.512-4.002-6.512-7.762c0-5.162,3.551-7.744,10.645-7.744
		c2.043,0,4.52,0.268,7.43,0.818v4.218c-2.582-0.843-5.172-1.256-7.762-1.256c-3.529,0-5.297,1.149-5.297,3.447
		c0,1.666,1.211,2.893,3.625,3.677l4.043,1.304c5.016,1.618,7.525,4.424,7.525,8.428c0,2.57-0.996,4.61-2.982,6.108
		c-1.992,1.498-4.707,2.25-8.148,2.25C111.887,16.532,108.816,15.988,105.383,14.916L105.383,14.916z"/>
	<path fill="#34495D" d="M140.584,16.042c-1.033,0.324-2,0.49-2.906,0.49c-4.545,0-6.814-2.772-6.814-8.307v-16.3h-3.16v-3.775h3.16
		v-5.036l5.07-0.484v5.521h5.393v3.777h-5.393V7.303c0,2.196,0.188,3.646,0.559,4.368c0.375,0.718,1.166,1.078,2.367,1.078
		c0.652,0,1.229-0.098,1.725-0.288V16.042L140.584,16.042z"/>
	<path fill="#34495D" d="M171.285,15.887V-11.85h5.061v5.208c0.738-1.752,1.529-3.074,2.369-3.937
		c1.217-1.262,2.664-1.888,4.344-1.888c0.328,0,0.805,0.042,1.443,0.128v4.7c-0.885-0.29-1.615-0.437-2.16-0.437
		c-1.873,0-3.873,1.893-5.998,5.67v18.292H171.285z"/>
	<path fill="#34495D" d="M175.703,15.887"/>
	<path fill="#34495D" d="M167.332,1.251c0.043-3.674-0.605-6.686-1.957-9.014c-1.836-3.132-4.975-4.704-9.406-4.704
		c-3.879,0-6.953,1.277-9.211,3.832c-2.281,2.552-3.416,5.986-3.416,10.294c0,4.536,1.283,8.142,3.857,10.828
		c2.566,2.693,6.043,4.044,10.414,4.044c2.893,0,6.082-0.519,9.562-1.536v-3.99c-3.102,1.126-5.934,1.685-8.484,1.685
		c-4.508,0-7.518-1.75-9.023-5.263c-0.461-1.052-0.801-2.59-1.004-4.62h18.637L167.332,1.251z M148.744-0.972
		c0.283-2.754,1.014-4.725,2.182-5.898c1.203-1.226,2.83-1.836,4.91-1.836c2.982,0,4.916,1.314,5.805,3.928
		c0.295,0.876,0.473,2.139,0.521,3.807H148.744L148.744-0.972L148.744-0.972z"/>
	<g>
		<path fill="#34495D" d="M50.652,8.32v7.586h6.56c-1.432-0.334-2.682-0.92-3.708-1.834C51.933,12.698,51,10.765,50.652,8.32z"/>
		<path fill="#34495D" d="M64.371-11.855H50.656V3.912C51.034-0.134,52.4-3.68,54.881-6.667
			C57.494-9.794,60.664-11.518,64.371-11.855z"/>
		<path fill="#34495D" d="M75.438-2.348v-9.507H66.66c2.625,0.166,4.738,0.975,6.27,2.509C74.531-7.724,75.342-5.375,75.438-2.348z"
			/>
		<path fill="#34495D" d="M75.438-1.308c-0.094,4.869-1.541,8.987-4.406,12.328c-2.215,2.604-4.854,4.233-7.902,4.886h12.309V-1.308
			z"/>
		<path fill="#34495D" d="M65.164-8.252c-2.699,0-4.937,1.418-6.716,4.266c-1.796,2.845-2.692,6.294-2.692,10.349
			c0,1.966,0.454,3.498,1.372,4.584c0.912,1.082,2.145,1.615,3.69,1.615c2.364,0,4.393-1.121,6.094-3.371
			c2.197-2.927,3.295-6.673,3.295-11.236C70.207-6.186,68.523-8.252,65.164-8.252z"/>
	</g>
</g>
<g>
	<polygon fill="#ECF0F0" points="-51.602,50.477 -61.5,22.74 -56.382,22.74 -48.638,44.322 -40.464,22.74 -35.966,22.74 
		-46.535,50.477 	"/>
	<path fill="#ECF0F0" d="M-11.68,35.842c0.05-3.688-0.603-6.688-1.954-9.023c-1.838-3.125-4.973-4.697-9.408-4.697
		c-3.876,0-6.95,1.279-9.21,3.828c-2.278,2.557-3.416,5.992-3.416,10.295c0,4.537,1.284,8.145,3.855,10.828
		c2.572,2.695,6.045,4.051,10.416,4.051c2.896,0,6.082-0.516,9.564-1.535v-3.992c-3.104,1.125-5.932,1.684-8.486,1.684
		c-4.504,0-7.516-1.75-9.02-5.262c-0.462-1.051-0.798-2.59-1.002-4.617h18.636L-11.68,35.842z M-30.266,33.615
		c0.292-2.758,1.016-4.725,2.182-5.896c1.198-1.225,2.832-1.842,4.912-1.842c2.979,0,4.914,1.316,5.804,3.934
		c0.29,0.871,0.462,2.137,0.519,3.809L-30.266,33.615L-30.266,33.615z"/>
	<path fill="#ECF0F0" d="M-7.384,50.477V22.74h5.063v5.207c0.74-1.758,1.526-3.074,2.366-3.938c1.222-1.258,2.666-1.887,4.344-1.887
		c0.324,0,0.809,0.043,1.444,0.129v4.695c-0.892-0.289-1.612-0.43-2.16-0.43c-1.864,0-3.868,1.891-5.994,5.668v18.291H-7.384z"/>
	<path fill="#ECF0F0" d="M10.181,50.477V22.74h5.062v5.207c1.496-2.215,2.714-3.721,3.674-4.504
		c1.118-0.879,2.584-1.324,4.396-1.324c2.228,0,4.039,0.719,5.43,2.141c0.804,0.844,1.51,2.066,2.104,3.688
		c1.511-2.25,2.74-3.75,3.683-4.496c1.111-0.887,2.58-1.332,4.418-1.332c4.987,0,7.483,2.727,7.483,8.176v20.178h-5.067
		l-0.022-19.389c0-3.188-1.231-4.773-3.706-4.773c-2.191,0-4.458,1.855-6.79,5.568v18.596h-5.084V31.084
		c0-3.189-1.24-4.775-3.731-4.775c-2.196,0-4.458,1.857-6.79,5.568v18.596L10.181,50.477L10.181,50.477z"/>
	<path fill="#ECF0F0" d="M79.482,50.477V22.74h5.064v5.207c1.25-1.727,2.484-3.031,3.699-3.922c1.768-1.27,3.703-1.906,5.818-1.906
		c4.729,0,7.096,2.812,7.096,8.428v19.926h-5.094V32.182c0-2.246-0.234-3.766-0.695-4.543c-0.475-0.805-1.371-1.203-2.672-1.203
		c-2.781,0-5.496,2.025-8.148,6.082v17.955L79.482,50.477L79.482,50.477z"/>
	<path fill="#ECF0F0" d="M105.383,49.506v-4.625c3.41,1.637,6.559,2.457,9.439,2.457c3.889,0,5.84-1.363,5.84-4.098
		c0-1.867-1.365-3.242-4.09-4.131l-4.521-1.477c-4.344-1.42-6.512-4.006-6.512-7.77c0-5.16,3.551-7.742,10.645-7.742
		c2.043,0,4.52,0.271,7.43,0.82v4.217c-2.582-0.844-5.172-1.258-7.762-1.258c-3.529,0-5.297,1.146-5.297,3.445
		c0,1.668,1.211,2.898,3.625,3.682l4.043,1.303c5.016,1.619,7.525,4.422,7.525,8.43c0,2.57-0.996,4.604-2.982,6.107
		c-1.992,1.5-4.707,2.254-8.148,2.254C111.887,51.119,108.816,50.58,105.383,49.506L105.383,49.506z"/>
	<path fill="#ECF0F0" d="M140.584,50.627c-1.033,0.328-2,0.492-2.906,0.492c-4.545,0-6.814-2.77-6.814-8.301V26.52h-3.16V22.74h3.16
		v-5.037l5.07-0.484v5.521h5.393v3.779h-5.393v15.375c0,2.201,0.188,3.646,0.559,4.369c0.375,0.715,1.166,1.078,2.367,1.078
		c0.652,0,1.229-0.098,1.725-0.291V50.627L140.584,50.627z"/>
	<path fill="#ECF0F0" d="M171.285,50.477V22.74h5.061v5.207c0.738-1.758,1.529-3.074,2.369-3.938
		c1.217-1.258,2.664-1.887,4.344-1.887c0.328,0,0.805,0.043,1.443,0.129v4.695c-0.885-0.289-1.615-0.43-2.16-0.43
		c-1.873,0-3.873,1.891-5.998,5.668v18.291H171.285z"/>
	<path fill="#ECF0F0" d="M175.703,50.477"/>
	<path fill="#ECF0F0" d="M167.332,35.842c0.043-3.684-0.605-6.688-1.957-9.016c-1.836-3.133-4.975-4.705-9.406-4.705
		c-3.879,0-6.953,1.279-9.211,3.824c-2.281,2.557-3.416,5.992-3.416,10.295c0,4.541,1.283,8.146,3.857,10.832
		c2.566,2.688,6.043,4.043,10.414,4.043c2.893,0,6.082-0.516,9.562-1.535v-3.992c-3.102,1.127-5.934,1.684-8.484,1.684
		c-4.508,0-7.518-1.75-9.023-5.258c-0.461-1.053-0.801-2.59-1.004-4.623h18.637L167.332,35.842z M148.744,33.615
		c0.283-2.758,1.014-4.725,2.182-5.896c1.203-1.225,2.83-1.842,4.91-1.842c2.982,0,4.916,1.32,5.805,3.934
		c0.295,0.871,0.473,2.137,0.521,3.809L148.744,33.615L148.744,33.615L148.744,33.615z"/>
	<g>
		<path fill="#ECF0F0" d="M50.652,42.904v7.59h6.56c-1.432-0.336-2.682-0.922-3.708-1.832C51.933,47.283,51,45.354,50.652,42.904z"
			/>
		<path fill="#ECF0F0" d="M64.371,22.736H50.656v15.766c0.378-4.045,1.744-7.594,4.226-10.578
			C57.494,24.795,60.664,23.064,64.371,22.736z"/>
		<path fill="#ECF0F0" d="M75.438,32.24v-9.504H66.66c2.625,0.168,4.738,0.973,6.27,2.508C74.531,26.865,75.342,29.211,75.438,32.24
			z"/>
		<path fill="#ECF0F0" d="M75.438,33.279c-0.094,4.871-1.541,8.988-4.406,12.328c-2.215,2.604-4.854,4.23-7.902,4.887h12.309V33.279
			z"/>
		<path fill="#ECF0F0" d="M65.164,26.338c-2.699,0-4.937,1.418-6.716,4.266c-1.796,2.844-2.692,6.291-2.692,10.344
			c0,1.973,0.454,3.496,1.372,4.59c0.912,1.078,2.145,1.613,3.69,1.613c2.364,0,4.393-1.123,6.094-3.371
			c2.197-2.926,3.295-6.676,3.295-11.24C70.207,28.404,68.523,26.338,65.164,26.338z"/>
	</g>
</g>
</svg>
