<?xml version="1.0" encoding="utf-8"?>
<!-- Generator: Adobe Illustrator 16.0.0, SVG Export Plug-In . SVG Version: 6.00 Build 0)  -->
<!DOCTYPE svg PUBLIC "-//W3C//DTD SVG 1.1//EN" "http://www.w3.org/Graphics/SVG/1.1/DTD/svg11.dtd">
<svg version="1.1" id="Layer_1" xmlns="http://www.w3.org/2000/svg" xmlns:xlink="http://www.w3.org/1999/xlink" x="0px" y="0px"
	 width="250px" height="35.408px" viewBox="0 0 250 35.408" enable-background="new 0 0 250 35.408" xml:space="preserve">
<g>
	<polygon points="10.021,34.661 0,6.584 5.181,6.584 13.018,28.431 21.292,6.584 25.845,6.584 15.15,34.661 	"/>
	<path d="M50.426,19.845c0.052-3.725-0.608-6.765-1.977-9.128c-1.858-3.165-5.032-4.754-9.523-4.754
		c-3.924,0-7.032,1.294-9.319,3.875c-2.307,2.587-3.461,6.063-3.461,10.421c0,4.59,1.302,8.243,3.904,10.961
		c2.604,2.727,6.119,4.094,10.541,4.094c2.932,0,6.156-0.523,9.683-1.553v-4.039c-3.144,1.141-6.004,1.705-8.59,1.705
		c-4.563,0-7.608-1.772-9.131-5.328c-0.47-1.064-0.81-2.619-1.017-4.672h18.866L50.426,19.845z M31.615,17.595
		c0.292-2.791,1.027-4.781,2.208-5.969c1.212-1.238,2.868-1.863,4.972-1.863c3.016,0,4.974,1.327,5.876,3.979
		c0.295,0.885,0.47,2.167,0.525,3.854H31.615V17.595z"/>
	<path d="M54.774,34.661V6.584h5.128v5.272c0.746-1.776,1.541-3.107,2.395-3.983c1.234-1.274,2.696-1.911,4.394-1.911
		c0.331,0,0.821,0.042,1.462,0.13v4.755c-0.903-0.291-1.632-0.438-2.186-0.438c-1.891,0-3.913,1.915-6.065,5.74v18.512H54.774z"/>
	<path d="M72.555,34.661V6.584h5.127v5.272c1.511-2.24,2.748-3.762,3.719-4.553c1.129-0.896,2.613-1.342,4.452-1.342
		c2.254,0,4.086,0.725,5.49,2.165c0.816,0.854,1.528,2.093,2.133,3.729c1.528-2.274,2.771-3.791,3.729-4.551
		c1.123-0.896,2.612-1.343,4.471-1.343c5.05,0,7.576,2.761,7.576,8.275v20.424h-5.127l-0.026-19.625
		c0-3.224-1.247-4.834-3.751-4.834c-2.22,0-4.511,1.879-6.871,5.638v18.822H88.33V15.036c0-3.225-1.256-4.834-3.776-4.834
		c-2.221,0-4.512,1.879-6.87,5.638v18.822L72.555,34.661L72.555,34.661z"/>
	<path d="M142.701,34.661V6.584h5.125v5.272c1.268-1.742,2.516-3.061,3.748-3.963c1.787-1.287,3.748-1.933,5.885-1.933
		c4.787,0,7.182,2.845,7.182,8.534v20.166h-5.154V16.149c0-2.276-0.237-3.812-0.704-4.603c-0.482-0.81-1.386-1.218-2.705-1.218
		c-2.812,0-5.562,2.051-8.25,6.156V34.66L142.701,34.661L142.701,34.661z"/>
	<path d="M168.916,33.677v-4.678c3.455,1.656,6.637,2.482,9.553,2.482c3.938,0,5.912-1.377,5.912-4.142
		c0-1.894-1.383-3.286-4.141-4.188l-4.576-1.496c-4.395-1.43-6.588-4.049-6.588-7.858c0-5.222,3.592-7.835,10.777-7.835
		c2.062,0,4.569,0.271,7.516,0.828v4.268c-2.617-0.85-5.236-1.271-7.855-1.271c-3.572,0-5.361,1.163-5.361,3.489
		c0,1.688,1.224,2.929,3.671,3.722l4.088,1.319c5.078,1.638,7.621,4.479,7.621,8.533c0,2.604-1.009,4.662-3.019,6.183
		c-2.016,1.516-4.764,2.276-8.252,2.276C175.504,35.312,172.389,34.765,168.916,33.677L168.916,33.677z"/>
	<path d="M204.549,34.815c-1.045,0.33-2.027,0.496-2.945,0.496c-4.598,0-6.895-2.803-6.895-8.405V10.409h-3.201V6.584h3.201V1.489
		l5.129-0.49v5.585h5.459v3.825h-5.459v15.562c0,2.226,0.189,3.694,0.566,4.424c0.381,0.725,1.182,1.086,2.395,1.086
		c0.662,0,1.244-0.096,1.75-0.289V34.815L204.549,34.815z"/>
	<path d="M235.623,34.661V6.584h5.123v5.272c0.746-1.776,1.545-3.107,2.396-3.983c1.233-1.274,2.7-1.911,4.399-1.911
		c0.33,0,0.815,0.042,1.457,0.13v4.755c-0.899-0.291-1.631-0.438-2.185-0.438c-1.895,0-3.916,1.915-6.069,5.74v18.512H235.623z"/>
	<path fill="#FFFFFF" d="M240.092,34.661"/>
	<path d="M231.619,19.845c0.047-3.72-0.609-6.765-1.982-9.123c-1.854-3.17-5.033-4.76-9.518-4.76c-3.928,0-7.033,1.294-9.32,3.875
		c-2.309,2.587-3.463,6.062-3.463,10.421c0,4.591,1.301,8.243,3.906,10.962c2.598,2.725,6.115,4.092,10.539,4.092
		c2.928,0,6.154-0.522,9.682-1.551V29.72c-3.143,1.141-6.006,1.705-8.59,1.705c-4.564,0-7.609-1.771-9.133-5.326
		c-0.467-1.065-0.811-2.619-1.018-4.674h18.866L231.619,19.845z M212.807,17.595c0.287-2.791,1.023-4.781,2.207-5.969
		c1.215-1.238,2.867-1.863,4.971-1.863c3.017,0,4.976,1.332,5.877,3.979c0.298,0.885,0.474,2.167,0.527,3.854h-13.582V17.595z"/>
	<g>
		<path fill="#F7981D" d="M113.518,26.999v7.68h6.641c-1.448-0.34-2.716-0.934-3.755-1.852
			C114.818,31.431,113.871,29.478,113.518,26.999z"/>
		<path fill="#F7981D" d="M127.4,6.582h-13.882V22.54c0.384-4.093,1.765-7.684,4.278-10.707C120.445,8.665,123.65,6.919,127.4,6.582
			z"/>
		<path fill="#F7981D" d="M138.607,16.202v-9.62h-8.883c2.657,0.168,4.795,0.987,6.344,2.539
			C137.686,10.763,138.512,13.138,138.607,16.202z"/>
		<path fill="#F7981D" d="M138.607,17.257c-0.096,4.928-1.562,9.096-4.463,12.477c-2.242,2.635-4.91,4.283-7.996,4.945h12.459
			V17.257z"/>
		<path fill="#F7981D" d="M128.207,10.226c-2.729,0-4.995,1.439-6.797,4.321c-1.821,2.878-2.729,6.368-2.729,10.472
			c0,1.992,0.461,3.539,1.389,4.644c0.926,1.088,2.172,1.633,3.74,1.633c2.391,0,4.445-1.138,6.164-3.414
			c2.226-2.962,3.336-6.756,3.336-11.375C133.311,12.319,131.607,10.226,128.207,10.226z"/>
	</g>
</g>
</svg>
