<?xml version="1.0" encoding="utf-8"?>
<!-- Generator: Adobe Illustrator 16.0.0, SVG Export Plug-In . SVG Version: 6.00 Build 0)  -->
<!DOCTYPE svg PUBLIC "-//W3C//DTD SVG 1.1//EN" "http://www.w3.org/Graphics/SVG/1.1/DTD/svg11.dtd">
<svg version="1.1" id="Layer_1" xmlns="http://www.w3.org/2000/svg" xmlns:xlink="http://www.w3.org/1999/xlink" x="0px" y="0px"
	 width="123px" height="34px" viewBox="0 -17.296 123 34" enable-background="new 0 -17.296 123 34" xml:space="preserve">
<g>
	<polygon points="4.949,16.382 0,2.513 2.559,2.513 6.431,13.305 10.518,2.513 12.767,2.513 7.483,16.382 	"/>
	<path d="M24.91,9.064c0.025-1.839-0.301-3.343-0.977-4.51c-0.919-1.563-2.486-2.349-4.704-2.349c-1.938,0-3.475,0.639-4.605,1.916
		c-1.139,1.276-1.708,2.993-1.708,5.147c0,2.267,0.642,4.071,1.928,5.414c1.286,1.348,3.022,2.022,5.208,2.022
		c1.448,0,3.041-0.258,4.782-0.768v-1.995c-1.552,0.564-2.966,0.842-4.243,0.842c-2.252,0-3.758-0.875-4.51-2.631
		c-0.231-0.526-0.399-1.295-0.501-2.309h9.318L24.91,9.064z M15.617,7.952c0.146-1.377,0.508-2.362,1.091-2.949
		c0.599-0.613,1.416-0.918,2.456-0.918c1.49,0,2.457,0.655,2.902,1.964c0.145,0.438,0.231,1.069,0.259,1.903L15.617,7.952
		L15.617,7.952z"/>
	<path d="M27.058,16.382V2.513h2.532v2.604c0.37-0.876,0.763-1.537,1.183-1.968c0.611-0.631,1.333-0.944,2.172-0.944
		c0.162,0,0.404,0.021,0.722,0.064v2.35c-0.446-0.145-0.806-0.218-1.08-0.218c-0.932,0-1.934,0.946-2.997,2.835v9.146H27.058z"/>
	<path d="M35.841,16.382V2.513h2.531v2.604c0.748-1.107,1.357-1.86,1.837-2.249c0.559-0.443,1.292-0.664,2.198-0.664
		c1.114,0,2.02,0.359,2.715,1.069c0.402,0.422,0.755,1.036,1.052,1.843c0.755-1.124,1.37-1.872,1.841-2.248
		c0.556-0.443,1.29-0.665,2.209-0.665c2.494,0,3.742,1.365,3.742,4.087v10.089h-2.534l-0.011-9.694c0-1.593-0.616-2.387-1.853-2.387
		c-1.096,0-2.229,0.928-3.395,2.784v9.299h-2.542V6.687c0-1.593-0.62-2.387-1.866-2.387c-1.098,0-2.229,0.928-3.395,2.784v9.299
		H35.841L35.841,16.382z"/>
	<path d="M70.491,16.382V2.513h2.533v2.604c0.625-0.86,1.241-1.512,1.849-1.957c0.884-0.636,1.852-0.956,2.909-0.956
		c2.365,0,3.548,1.405,3.548,4.216v9.96h-2.547V7.237c0-1.124-0.117-1.882-0.347-2.272c-0.238-0.399-0.685-0.602-1.336-0.602
		c-1.39,0-2.748,1.013-4.074,3.041v8.978L70.491,16.382L70.491,16.382z"/>
	<path d="M83.442,15.896v-2.311c1.705,0.818,3.278,1.227,4.719,1.227c1.944,0,2.92-0.681,2.92-2.048
		c0-0.935-0.683-1.622-2.045-2.067l-2.261-0.739c-2.172-0.706-3.255-2.001-3.255-3.881c0-2.581,1.776-3.872,5.323-3.872
		c1.02,0,2.258,0.134,3.714,0.409v2.109c-1.292-0.421-2.587-0.628-3.88-0.628c-1.765,0-2.65,0.575-2.65,1.724
		c0,0.833,0.607,1.446,1.814,1.838l2.02,0.652c2.508,0.809,3.763,2.212,3.763,4.214c0,1.285-0.498,2.305-1.491,3.054
		c-0.996,0.749-2.354,1.125-4.075,1.125C86.694,16.704,85.158,16.432,83.442,15.896L83.442,15.896z"/>
	<path d="M101.042,16.459c-0.516,0.162-1,0.245-1.453,0.245c-2.273,0-3.407-1.386-3.407-4.153v-8.15h-1.581V2.513h1.581v-2.518
		l2.535-0.242v2.76h2.696v1.889h-2.696v7.688c0,1.098,0.093,1.823,0.279,2.184c0.188,0.359,0.583,0.539,1.183,0.539
		c0.327,0,0.615-0.049,0.863-0.144V16.459L101.042,16.459z"/>
	<path d="M116.393,16.382V2.513h2.53v2.604c0.369-0.876,0.764-1.537,1.184-1.968c0.609-0.631,1.333-0.944,2.173-0.944
		c0.164,0,0.401,0.021,0.72,0.064v2.35c-0.444-0.145-0.806-0.218-1.08-0.218c-0.935,0-1.936,0.946-2.999,2.835v9.146H116.393z"/>
	<path fill="#FFFFFF" d="M118.601,16.382"/>
	<path d="M114.416,9.064c0.022-1.837-0.303-3.343-0.979-4.507c-0.917-1.566-2.487-2.352-4.702-2.352
		c-1.94,0-3.476,0.639-4.606,1.916c-1.14,1.276-1.708,2.993-1.708,5.147c0,2.268,0.641,4.071,1.929,5.414
		c1.283,1.347,3.02,2.022,5.207,2.022c1.446,0,3.04-0.259,4.781-0.768v-1.995c-1.551,0.563-2.967,0.842-4.242,0.842
		c-2.254,0-3.759-0.875-4.512-2.631c-0.23-0.526-0.4-1.295-0.502-2.31h9.318L114.416,9.064z M105.122,7.952
		c0.141-1.377,0.507-2.362,1.091-2.949c0.601-0.613,1.415-0.918,2.455-0.918c1.491,0,2.458,0.657,2.903,1.964
		c0.148,0.438,0.235,1.069,0.26,1.903L105.122,7.952L105.122,7.952L105.122,7.952z"/>
	<g>
		<path fill="#F7981D" d="M56.076,12.598v3.793h3.28c-0.716-0.167-1.341-0.46-1.854-0.917C56.717,14.787,56.25,13.821,56.076,12.598
			z"/>
		<path fill="#F7981D" d="M62.935,2.511h-6.858v7.883c0.189-2.023,0.872-3.796,2.113-5.289C59.497,3.541,61.082,2.679,62.935,2.511z
			"/>
		<path fill="#F7981D" d="M68.469,7.264V2.511H64.08c1.313,0.083,2.369,0.487,3.135,1.254C68.015,4.576,68.421,5.751,68.469,7.264z"
			/>
		<path fill="#F7981D" d="M68.469,7.784c-0.047,2.435-0.771,4.494-2.203,6.164c-1.109,1.302-2.427,2.117-3.952,2.443h6.155V7.784z"
			/>
		<path fill="#F7981D" d="M63.332,4.312c-1.349,0-2.468,0.709-3.358,2.133c-0.898,1.422-1.346,3.147-1.346,5.174
			c0,0.983,0.227,1.749,0.686,2.292c0.456,0.541,1.072,0.808,1.845,0.808c1.182,0,2.196-0.561,3.047-1.686
			c1.099-1.463,1.647-3.336,1.647-5.618C65.854,5.345,65.012,4.312,63.332,4.312z"/>
	</g>
</g>
<g>
	<polygon fill="#A6A6A6" points="4.949,-0.667 0,-14.536 2.559,-14.536 6.431,-3.745 10.518,-14.536 12.767,-14.536 7.483,-0.667 	
		"/>
	<path fill="#A6A6A6" d="M24.91-7.985c0.025-1.842-0.301-3.343-0.977-4.51c-0.919-1.563-2.486-2.349-4.704-2.349
		c-1.938,0-3.475,0.639-4.605,1.914c-1.139,1.279-1.708,2.996-1.708,5.148c0,2.269,0.642,4.073,1.928,5.415
		c1.286,1.346,3.022,2.023,5.208,2.023c1.448,0,3.041-0.258,4.782-0.768v-1.995c-1.552,0.563-2.966,0.842-4.243,0.842
		c-2.252,0-3.758-0.875-4.51-2.631c-0.231-0.526-0.399-1.295-0.501-2.309h9.318L24.91-7.985z M15.617-9.098
		c0.146-1.379,0.508-2.362,1.091-2.948c0.599-0.613,1.416-0.921,2.456-0.921c1.49,0,2.457,0.658,2.902,1.967
		c0.145,0.436,0.231,1.069,0.259,1.904L15.617-9.098L15.617-9.098z"/>
	<path fill="#A6A6A6" d="M27.058-0.667v-13.869h2.532v2.604c0.37-0.879,0.763-1.537,1.183-1.968c0.611-0.63,1.333-0.944,2.172-0.944
		c0.162,0,0.404,0.021,0.722,0.065v2.347c-0.446-0.143-0.806-0.215-1.08-0.215c-0.932,0-1.934,0.946-2.997,2.835v9.145H27.058z"/>
	<path fill="#A6A6A6" d="M35.841-0.667v-13.869h2.531v2.604c0.748-1.108,1.357-1.86,1.837-2.251
		c0.559-0.441,1.292-0.662,2.198-0.662c1.114,0,2.02,0.359,2.715,1.069c0.402,0.423,0.755,1.034,1.052,1.844
		c0.755-1.125,1.37-1.875,1.841-2.248c0.556-0.443,1.29-0.665,2.209-0.665c2.494,0,3.742,1.363,3.742,4.087v10.089h-2.534
		l-0.011-9.694c0-1.594-0.616-2.387-1.853-2.387c-1.096,0-2.229,0.928-3.395,2.784v9.298h-2.542v-9.695
		c0-1.594-0.62-2.387-1.866-2.387c-1.098,0-2.229,0.928-3.395,2.784v9.298H35.841L35.841-0.667z"/>
	<path fill="#A6A6A6" d="M70.491-0.667v-13.869h2.533v2.604c0.625-0.863,1.241-1.515,1.849-1.96
		c0.884-0.636,1.852-0.953,2.909-0.953c2.365,0,3.548,1.406,3.548,4.213v9.963h-2.547v-9.145c0-1.123-0.117-1.883-0.347-2.272
		c-0.238-0.402-0.685-0.602-1.336-0.602c-1.39,0-2.748,1.013-4.074,3.041v8.978L70.491-0.667L70.491-0.667z"/>
	<path fill="#A6A6A6" d="M83.442-1.153v-2.312c1.705,0.819,3.278,1.228,4.719,1.228c1.944,0,2.92-0.681,2.92-2.048
		c0-0.934-0.683-1.621-2.045-2.067l-2.261-0.738C84.603-7.8,83.52-9.093,83.52-10.975c0-2.579,1.776-3.87,5.323-3.87
		c1.02,0,2.258,0.135,3.714,0.41v2.108c-1.292-0.421-2.587-0.628-3.88-0.628c-1.765,0-2.65,0.573-2.65,1.722
		c0,0.835,0.607,1.449,1.814,1.841l2.02,0.652c2.508,0.809,3.763,2.21,3.763,4.214c0,1.286-0.498,2.302-1.491,3.054
		c-0.996,0.75-2.354,1.126-4.075,1.126C86.694-0.346,85.158-0.616,83.442-1.153L83.442-1.153z"/>
	<path fill="#A6A6A6" d="M101.042-0.592c-0.516,0.164-1,0.247-1.453,0.247c-2.273,0-3.407-1.385-3.407-4.152v-8.15h-1.581v-1.889
		h1.581v-2.518l2.535-0.242v2.76h2.696v1.889h-2.696v7.688c0,1.099,0.093,1.823,0.279,2.184c0.188,0.358,0.583,0.539,1.183,0.539
		c0.327,0,0.615-0.048,0.863-0.145V-0.592L101.042-0.592z"/>
	<path fill="#A6A6A6" d="M116.393-0.667v-13.869h2.53v2.604c0.369-0.879,0.764-1.537,1.184-1.968
		c0.609-0.63,1.333-0.944,2.173-0.944c0.164,0,0.401,0.021,0.72,0.065v2.347c-0.444-0.143-0.806-0.215-1.08-0.215
		c-0.935,0-1.936,0.946-2.999,2.835v9.145H116.393z"/>
	<path fill="#A6A6A6" d="M118.601-0.667"/>
	<path fill="#A6A6A6" d="M114.416-7.985c0.022-1.84-0.303-3.343-0.979-4.507c-0.917-1.566-2.487-2.352-4.702-2.352
		c-1.94,0-3.476,0.639-4.606,1.913c-1.14,1.279-1.708,2.996-1.708,5.147c0,2.27,0.641,4.074,1.929,5.416
		c1.283,1.345,3.02,2.022,5.207,2.022c1.446,0,3.04-0.258,4.781-0.767v-1.996c-1.551,0.564-2.967,0.842-4.242,0.842
		c-2.254,0-3.759-0.875-4.512-2.63c-0.23-0.526-0.4-1.295-0.502-2.31h9.318L114.416-7.985z M105.122-9.098
		c0.141-1.379,0.507-2.362,1.091-2.948c0.601-0.613,1.415-0.921,2.455-0.921c1.491,0,2.458,0.66,2.903,1.967
		c0.148,0.436,0.235,1.069,0.26,1.904L105.122-9.098L105.122-9.098L105.122-9.098z"/>
	<g>
		<path fill="#A6A6A6" d="M56.076-4.454v3.796h3.28c-0.716-0.168-1.341-0.461-1.854-0.916C56.717-2.263,56.25-3.228,56.076-4.454z"
			/>
		<path fill="#A6A6A6" d="M62.935-14.537h-6.858v7.882c0.189-2.023,0.872-3.796,2.113-5.289
			C59.497-13.508,61.082-14.373,62.935-14.537z"/>
		<path fill="#A6A6A6" d="M68.469-9.785v-4.752H64.08c1.313,0.083,2.369,0.486,3.135,1.253C68.015-12.473,68.421-11.3,68.469-9.785z
			"/>
		<path fill="#A6A6A6" d="M68.469-9.265c-0.047,2.435-0.771,4.494-2.203,6.163c-1.109,1.302-2.427,2.115-3.952,2.444h6.155V-9.265z"
			/>
		<path fill="#A6A6A6" d="M63.332-12.736c-1.349,0-2.468,0.709-3.358,2.133c-0.898,1.422-1.346,3.145-1.346,5.172
			c0,0.985,0.227,1.748,0.686,2.294c0.456,0.54,1.072,0.807,1.845,0.807c1.182,0,2.196-0.562,3.047-1.686
			c1.099-1.463,1.647-3.338,1.647-5.62C65.854-11.704,65.012-12.736,63.332-12.736z"/>
	</g>
</g>
</svg>
