<?xml version="1.0" encoding="utf-8"?>
<!-- Generator: Adobe Illustrator 16.0.0, SVG Export Plug-In . SVG Version: 6.00 Build 0)  -->
<!DOCTYPE svg PUBLIC "-//W3C//DTD SVG 1.1//EN" "http://www.w3.org/Graphics/SVG/1.1/DTD/svg11.dtd">
<svg version="1.1" id="Layer_1" xmlns="http://www.w3.org/2000/svg" xmlns:xlink="http://www.w3.org/1999/xlink" x="0px" y="0px"
	 width="250px" height="35.408px" viewBox="0 0 250 35.408" enable-background="new 0 0 250 35.408" xml:space="preserve">
<g>
	<polygon fill="#6E6E6E" points="10.018,34.667 0,6.585 5.176,6.585 13.017,28.431 21.292,6.585 25.847,6.585 15.149,34.667 	"/>
	<path fill="#6E6E6E" d="M50.425,19.845c0.052-3.725-0.61-6.763-1.977-9.127c-1.857-3.163-5.034-4.753-9.521-4.753
		c-3.927,0-7.033,1.293-9.323,3.876c-2.309,2.584-3.459,6.056-3.459,10.414c0,4.594,1.305,8.246,3.904,10.963
		c2.606,2.729,6.121,4.096,10.539,4.096c2.934,0,6.158-0.521,9.683-1.555v-4.041c-3.146,1.141-6.003,1.707-8.588,1.707
		c-4.565,0-7.609-1.766-9.131-5.328c-0.471-1.062-0.812-2.617-1.022-4.672h18.866L50.425,19.845z M31.619,17.596
		c0.291-2.793,1.022-4.781,2.206-5.972c1.213-1.235,2.867-1.857,4.97-1.857c3.014,0,4.978,1.325,5.874,3.978
		c0.298,0.886,0.475,2.167,0.526,3.852L31.619,17.596L31.619,17.596z"/>
	<path fill="#6E6E6E" d="M54.775,34.667V6.585h5.128v5.271c0.746-1.773,1.54-3.107,2.393-3.984c1.231-1.274,2.699-1.908,4.394-1.908
		c0.338,0,0.827,0.04,1.463,0.13v4.754c-0.901-0.296-1.632-0.44-2.184-0.44c-1.894,0-3.912,1.916-6.066,5.745v18.514H54.775z"/>
	<path fill="#6E6E6E" d="M72.557,34.667V6.585h5.123v5.271c1.515-2.237,2.753-3.762,3.721-4.549c1.128-0.901,2.61-1.343,4.448-1.343
		c2.257,0,4.088,0.726,5.496,2.166c0.811,0.854,1.525,2.089,2.128,3.727c1.529-2.277,2.776-3.792,3.731-4.549
		c1.122-0.901,2.614-1.343,4.467-1.343c5.058,0,7.579,2.755,7.579,8.274v20.428h-5.131l-0.021-19.634c0-3.22-1.25-4.829-3.754-4.829
		c-2.219,0-4.503,1.877-6.87,5.638v18.824h-5.146V15.033c0-3.22-1.254-4.829-3.773-4.829c-2.22,0-4.514,1.877-6.875,5.638v18.824
		L72.557,34.667L72.557,34.667z"/>
	<path fill="#6E6E6E" d="M142.705,34.667V6.585h5.124v5.271c1.265-1.74,2.514-3.06,3.749-3.96c1.781-1.289,3.742-1.932,5.883-1.932
		c4.786,0,7.18,2.839,7.18,8.532v20.17h-5.154V16.153c0-2.277-0.234-3.814-0.701-4.603c-0.48-0.811-1.391-1.22-2.705-1.22
		c-2.816,0-5.566,2.054-8.25,6.154v18.182L142.705,34.667L142.705,34.667z"/>
	<path fill="#6E6E6E" d="M168.915,33.683v-4.684c3.456,1.66,6.638,2.484,9.558,2.484c3.932,0,5.911-1.383,5.911-4.137
		c0-1.896-1.389-3.291-4.143-4.193l-4.577-1.492c-4.396-1.436-6.589-4.056-6.589-7.863c0-5.223,3.597-7.833,10.78-7.833
		c2.059,0,4.564,0.27,7.513,0.829v4.267c-2.616-0.851-5.233-1.27-7.854-1.27c-3.576,0-5.363,1.161-5.363,3.488
		c0,1.69,1.229,2.93,3.668,3.718l4.093,1.32c5.077,1.642,7.624,4.48,7.624,8.541c0,2.603-1.012,4.656-3.025,6.177
		c-2.007,1.516-4.755,2.278-8.25,2.278C175.504,35.313,172.393,34.771,168.915,33.683L168.915,33.683z"/>
	<path fill="#6E6E6E" d="M204.548,34.817c-1.04,0.33-2.024,0.496-2.94,0.496c-4.6,0-6.895-2.804-6.895-8.406V10.409h-3.205V6.585
		h3.205V1.489L199.836,1v5.585h5.456v3.823h-5.456v15.563c0,2.229,0.189,3.7,0.568,4.426c0.383,0.725,1.185,1.086,2.396,1.086
		c0.662,0,1.238-0.096,1.747-0.291L204.548,34.817L204.548,34.817z"/>
	<path fill="#6E6E6E" d="M235.622,34.667V6.585h5.125v5.271c0.746-1.773,1.544-3.107,2.396-3.984
		c1.231-1.274,2.699-1.908,4.397-1.908c0.334,0,0.821,0.04,1.46,0.13v4.754c-0.9-0.296-1.63-0.44-2.182-0.44
		c-1.896,0-3.922,1.916-6.071,5.745v18.514H235.622z"/>
	<path fill="#6E6E6E" d="M231.622,19.845c0.041-3.723-0.618-6.763-1.983-9.125c-1.854-3.166-5.039-4.755-9.519-4.755
		c-3.931,0-7.034,1.293-9.322,3.876c-2.312,2.584-3.461,6.056-3.461,10.414c0,4.594,1.302,8.246,3.904,10.963
		c2.596,2.729,6.112,4.096,10.536,4.096c2.934,0,6.156-0.521,9.684-1.555v-4.041c-3.139,1.141-6.004,1.707-8.587,1.707
		c-4.567,0-7.61-1.766-9.133-5.328c-0.47-1.062-0.808-2.617-1.017-4.672h18.861L231.622,19.845z M212.807,17.596
		c0.287-2.793,1.022-4.781,2.207-5.972c1.213-1.235,2.867-1.857,4.971-1.857c3.018,0,4.978,1.328,5.883,3.978
		c0.295,0.886,0.471,2.167,0.521,3.852L212.807,17.596L212.807,17.596z"/>
	<g>
		<path fill="#6E6E6E" d="M113.524,27.001v7.68h6.631c-1.449-0.338-2.709-0.934-3.75-1.848
			C114.817,31.431,113.868,29.479,113.524,27.001z"/>
		<path fill="#6E6E6E" d="M127.4,6.582h-13.876v15.96c0.377-4.096,1.755-7.684,4.271-10.708C120.45,8.665,123.651,6.922,127.4,6.582
			z"/>
		<path fill="#6E6E6E" d="M138.604,16.201v-9.62h-8.885c2.66,0.17,4.799,0.99,6.348,2.542
			C137.688,10.76,138.514,13.141,138.604,16.201z"/>
		<path fill="#6E6E6E" d="M138.604,17.26c-0.096,4.923-1.558,9.091-4.457,12.472c-2.244,2.642-4.912,4.283-7.998,4.949h12.455V17.26
			L138.604,17.26z"/>
		<path fill="#6E6E6E" d="M128.207,10.228c-2.734,0-4.994,1.441-6.799,4.317c-1.82,2.882-2.731,6.372-2.731,10.472
			c0,1.996,0.467,3.549,1.397,4.646c0.919,1.094,2.166,1.635,3.736,1.635c2.397,0,4.449-1.139,6.167-3.416
			c2.224-2.963,3.334-6.758,3.334-11.377C133.309,12.321,131.609,10.228,128.207,10.228z"/>
	</g>
</g>
</svg>
