<?xml version="1.0" encoding="utf-8"?>
<!-- Generator: Adobe Illustrator 16.0.0, SVG Export Plug-In . SVG Version: 6.00 Build 0)  -->
<!DOCTYPE svg PUBLIC "-//W3C//DTD SVG 1.1//EN" "http://www.w3.org/Graphics/SVG/1.1/DTD/svg11.dtd">
<svg version="1.1" id="Layer_1" xmlns="http://www.w3.org/2000/svg" xmlns:xlink="http://www.w3.org/1999/xlink" x="0px" y="0px"
	 width="123px" height="34px" viewBox="0 0 123 34" enable-background="new 0 0 123 34" xml:space="preserve">
<g>
	<polygon fill="#34495D" points="4.949,16.382 0,2.513 2.559,2.513 6.431,13.305 10.518,2.513 12.767,2.513 7.483,16.382 	"/>
	<path fill="#34495D" d="M24.91,9.064c0.025-1.839-0.301-3.343-0.977-4.51c-0.919-1.563-2.486-2.349-4.704-2.349
		c-1.938,0-3.475,0.639-4.605,1.916c-1.139,1.276-1.708,2.993-1.708,5.147c0,2.267,0.642,4.071,1.928,5.414
		c1.286,1.348,3.022,2.022,5.208,2.022c1.448,0,3.041-0.258,4.782-0.768v-1.995c-1.552,0.564-2.966,0.842-4.243,0.842
		c-2.252,0-3.758-0.875-4.51-2.631c-0.231-0.526-0.399-1.295-0.501-2.309h9.318L24.91,9.064z M15.617,7.952
		c0.146-1.377,0.508-2.362,1.091-2.949c0.599-0.613,1.416-0.918,2.456-0.918c1.49,0,2.457,0.655,2.902,1.964
		c0.145,0.438,0.231,1.069,0.259,1.903H15.617L15.617,7.952z"/>
	<path fill="#34495D" d="M27.058,16.382V2.513h2.532v2.604c0.37-0.876,0.763-1.537,1.183-1.968c0.611-0.631,1.333-0.944,2.172-0.944
		c0.162,0,0.404,0.021,0.722,0.064v2.35c-0.446-0.145-0.806-0.218-1.08-0.218c-0.932,0-1.934,0.946-2.997,2.835v9.146H27.058z"/>
	<path fill="#34495D" d="M35.841,16.382V2.513h2.531v2.604c0.748-1.107,1.357-1.86,1.837-2.249c0.559-0.443,1.292-0.664,2.198-0.664
		c1.114,0,2.02,0.359,2.715,1.069c0.402,0.422,0.755,1.036,1.052,1.843c0.755-1.124,1.37-1.872,1.841-2.248
		c0.556-0.443,1.29-0.665,2.209-0.665c2.494,0,3.742,1.365,3.742,4.087v10.089h-2.534l-0.011-9.694c0-1.593-0.616-2.387-1.853-2.387
		c-1.096,0-2.229,0.928-3.395,2.784v9.299h-2.542V6.687c0-1.593-0.62-2.387-1.866-2.387c-1.098,0-2.229,0.928-3.395,2.784v9.299
		L35.841,16.382L35.841,16.382z"/>
	<path fill="#34495D" d="M70.491,16.382V2.513h2.532v2.604c0.625-0.86,1.242-1.512,1.85-1.957c0.884-0.636,1.852-0.956,2.909-0.956
		c2.364,0,3.548,1.405,3.548,4.216v9.96h-2.547V7.237c0-1.124-0.117-1.882-0.348-2.272c-0.237-0.399-0.685-0.602-1.336-0.602
		c-1.39,0-2.748,1.013-4.074,3.041v8.978H70.491L70.491,16.382z"/>
	<path fill="#34495D" d="M83.441,15.896v-2.311c1.705,0.818,3.279,1.227,4.72,1.227c1.944,0,2.92-0.681,2.92-2.048
		c0-0.935-0.683-1.622-2.045-2.067l-2.261-0.739c-2.172-0.706-3.256-2.001-3.256-3.881c0-2.581,1.776-3.872,5.323-3.872
		c1.021,0,2.259,0.134,3.714,0.409v2.109c-1.291-0.421-2.586-0.628-3.88-0.628c-1.765,0-2.649,0.575-2.649,1.724
		c0,0.833,0.606,1.446,1.813,1.838l2.021,0.652c2.508,0.809,3.763,2.212,3.763,4.214c0,1.285-0.498,2.305-1.491,3.054
		c-0.996,0.749-2.354,1.125-4.074,1.125C86.693,16.704,85.158,16.432,83.441,15.896L83.441,15.896z"/>
	<path fill="#34495D" d="M101.042,16.459c-0.517,0.162-1,0.245-1.453,0.245c-2.272,0-3.407-1.386-3.407-4.153v-8.15h-1.58V2.513
		h1.58v-2.518l2.535-0.242v2.76h2.696v1.889h-2.696v7.688c0,1.098,0.094,1.823,0.279,2.184c0.188,0.359,0.583,0.539,1.184,0.539
		c0.326,0,0.614-0.049,0.862-0.144V16.459L101.042,16.459z"/>
	<path fill="#34495D" d="M116.393,16.382V2.513h2.53v2.604c0.369-0.876,0.765-1.537,1.185-1.968
		c0.608-0.631,1.332-0.944,2.172-0.944c0.164,0,0.402,0.021,0.721,0.064v2.35c-0.443-0.145-0.807-0.218-1.08-0.218
		c-0.936,0-1.936,0.946-2.999,2.835v9.146H116.393z"/>
	<path fill="#34495D" d="M118.602,16.382"/>
	<path fill="#34495D" d="M114.416,9.064c0.021-1.837-0.303-3.343-0.979-4.507c-0.918-1.566-2.487-2.352-4.703-2.352
		c-1.939,0-3.476,0.639-4.605,1.916c-1.141,1.276-1.708,2.993-1.708,5.147c0,2.268,0.642,4.071,1.929,5.414
		c1.283,1.347,3.021,2.022,5.207,2.022c1.446,0,3.041-0.259,4.781-0.768v-1.995c-1.551,0.563-2.967,0.842-4.242,0.842
		c-2.254,0-3.759-0.875-4.512-2.631c-0.23-0.526-0.4-1.295-0.502-2.31h9.318L114.416,9.064z M105.122,7.952
		c0.142-1.377,0.507-2.362,1.091-2.949c0.602-0.613,1.415-0.918,2.455-0.918c1.491,0,2.458,0.657,2.902,1.964
		c0.148,0.438,0.236,1.069,0.261,1.903H105.122L105.122,7.952L105.122,7.952z"/>
	<g>
		<path fill="#34495D" d="M56.076,12.598v3.793h3.28c-0.716-0.167-1.341-0.46-1.854-0.917C56.717,14.787,56.25,13.821,56.076,12.598
			z"/>
		<path fill="#34495D" d="M62.936,2.511h-6.858v7.883c0.189-2.023,0.872-3.796,2.113-5.289C59.497,3.541,61.082,2.679,62.936,2.511z
			"/>
		<path fill="#34495D" d="M68.469,7.264V2.511H64.08c1.312,0.083,2.369,0.487,3.135,1.254C68.016,4.576,68.421,5.751,68.469,7.264z"
			/>
		<path fill="#34495D" d="M68.469,7.784c-0.047,2.435-0.771,4.494-2.203,6.164c-1.108,1.302-2.427,2.117-3.951,2.443h6.154V7.784z"
			/>
		<path fill="#34495D" d="M63.332,4.312c-1.349,0-2.468,0.709-3.358,2.133c-0.898,1.422-1.346,3.147-1.346,5.174
			c0,0.983,0.227,1.749,0.686,2.292c0.456,0.541,1.072,0.808,1.845,0.808c1.182,0,2.196-0.561,3.047-1.686
			c1.099-1.463,1.647-3.336,1.647-5.618C65.854,5.345,65.012,4.312,63.332,4.312z"/>
	</g>
</g>
<g>
	<polygon fill="#ECF0F0" points="4.949,33.677 0,19.808 2.559,19.808 6.431,30.599 10.518,19.808 12.767,19.808 7.483,33.677 	"/>
	<path fill="#ECF0F0" d="M24.91,26.359c0.025-1.843-0.301-3.344-0.977-4.511c-0.919-1.563-2.486-2.349-4.704-2.349
		c-1.938,0-3.475,0.639-4.605,1.914c-1.139,1.279-1.708,2.996-1.708,5.147c0,2.269,0.642,4.073,1.928,5.415
		C16.13,33.322,17.866,34,20.052,34c1.448,0,3.041-0.258,4.782-0.768v-1.996c-1.552,0.563-2.966,0.842-4.243,0.842
		c-2.252,0-3.758-0.875-4.51-2.631c-0.231-0.525-0.399-1.295-0.501-2.309h9.318L24.91,26.359z M15.617,25.246
		c0.146-1.379,0.508-2.362,1.091-2.948c0.599-0.613,1.416-0.921,2.456-0.921c1.49,0,2.457,0.658,2.902,1.967
		c0.145,0.436,0.231,1.068,0.259,1.904L15.617,25.246L15.617,25.246z"/>
	<path fill="#ECF0F0" d="M27.058,33.677V19.808h2.532v2.604c0.37-0.879,0.763-1.537,1.183-1.969
		c0.611-0.629,1.333-0.943,2.172-0.943c0.162,0,0.404,0.021,0.722,0.064v2.348c-0.446-0.144-0.806-0.215-1.08-0.215
		c-0.932,0-1.934,0.945-2.997,2.834v9.146H27.058z"/>
	<path fill="#ECF0F0" d="M35.841,33.677V19.808h2.531v2.604c0.748-1.108,1.357-1.86,1.837-2.252c0.559-0.44,1.292-0.662,2.198-0.662
		c1.114,0,2.02,0.359,2.715,1.07c0.402,0.422,0.755,1.033,1.052,1.844c0.755-1.125,1.37-1.875,1.841-2.248
		c0.556-0.443,1.29-0.666,2.209-0.666c2.494,0,3.742,1.363,3.742,4.088v10.089h-2.534l-0.011-9.694c0-1.594-0.616-2.387-1.853-2.387
		c-1.096,0-2.229,0.928-3.395,2.784v9.298h-2.542V23.98c0-1.594-0.62-2.387-1.866-2.387c-1.098,0-2.229,0.928-3.395,2.784v9.298
		L35.841,33.677L35.841,33.677z"/>
	<path fill="#ECF0F0" d="M70.491,33.677V19.808h2.532v2.604c0.625-0.863,1.242-1.516,1.85-1.961
		c0.884-0.635,1.852-0.953,2.909-0.953c2.364,0,3.548,1.406,3.548,4.214v9.963h-2.547v-9.146c0-1.123-0.117-1.883-0.348-2.271
		c-0.237-0.402-0.685-0.602-1.336-0.602c-1.39,0-2.748,1.013-4.074,3.041v8.978L70.491,33.677L70.491,33.677z"/>
	<path fill="#ECF0F0" d="M83.441,33.191v-2.312c1.705,0.818,3.279,1.229,4.72,1.229c1.944,0,2.92-0.682,2.92-2.049
		c0-0.934-0.683-1.621-2.045-2.066l-2.261-0.738c-2.172-0.71-3.256-2.003-3.256-3.885c0-2.58,1.776-3.871,5.323-3.871
		c1.021,0,2.259,0.136,3.714,0.41v2.108c-1.291-0.421-2.586-0.628-3.88-0.628c-1.765,0-2.649,0.573-2.649,1.723
		c0,0.834,0.606,1.448,1.813,1.84l2.021,0.652c2.508,0.809,3.763,2.211,3.763,4.215c0,1.285-0.498,2.301-1.491,3.053
		c-0.996,0.75-2.354,1.127-4.074,1.127C86.693,33.998,85.158,33.728,83.441,33.191L83.441,33.191z"/>
	<path fill="#ECF0F0" d="M101.042,33.752c-0.517,0.164-1,0.246-1.453,0.246c-2.272,0-3.407-1.385-3.407-4.151v-8.149h-1.58v-1.89
		h1.58V17.29l2.535-0.242v2.76h2.696v1.89h-2.696v7.688c0,1.1,0.094,1.823,0.279,2.184c0.188,0.358,0.583,0.539,1.184,0.539
		c0.326,0,0.614-0.048,0.862-0.145V33.752L101.042,33.752z"/>
	<path fill="#ECF0F0" d="M116.393,33.677V19.808h2.53v2.604c0.369-0.879,0.765-1.537,1.185-1.969
		c0.608-0.629,1.332-0.943,2.172-0.943c0.164,0,0.402,0.021,0.721,0.064v2.348c-0.443-0.144-0.807-0.215-1.08-0.215
		c-0.936,0-1.936,0.945-2.999,2.834v9.146H116.393z"/>
	<path fill="#ECF0F0" d="M118.602,33.677"/>
	<path fill="#ECF0F0" d="M114.416,26.359c0.021-1.841-0.303-3.344-0.979-4.508c-0.918-1.566-2.487-2.352-4.703-2.352
		c-1.939,0-3.476,0.639-4.605,1.912c-1.141,1.279-1.708,2.996-1.708,5.147c0,2.271,0.642,4.074,1.929,5.416
		c1.283,1.345,3.021,2.022,5.207,2.022c1.446,0,3.041-0.258,4.781-0.768v-1.996c-1.551,0.564-2.967,0.842-4.242,0.842
		c-2.254,0-3.759-0.875-4.512-2.629c-0.23-0.526-0.4-1.295-0.502-2.311h9.318L114.416,26.359z M105.122,25.246
		c0.142-1.379,0.507-2.362,1.091-2.948c0.602-0.613,1.415-0.921,2.455-0.921c1.491,0,2.458,0.66,2.902,1.967
		c0.148,0.436,0.236,1.068,0.261,1.904L105.122,25.246L105.122,25.246L105.122,25.246z"/>
	<g>
		<path fill="#ECF0F0" d="M56.076,29.89v3.796h3.28c-0.716-0.168-1.341-0.461-1.854-0.916C56.717,32.08,56.25,31.115,56.076,29.89z"
			/>
		<path fill="#ECF0F0" d="M62.936,19.807h-6.858v7.883c0.189-2.023,0.872-3.797,2.113-5.289
			C59.497,20.836,61.082,19.971,62.936,19.807z"/>
		<path fill="#ECF0F0" d="M68.469,24.559v-4.752H64.08c1.312,0.083,2.369,0.486,3.135,1.253
			C68.016,21.871,68.421,23.044,68.469,24.559z"/>
		<path fill="#ECF0F0" d="M68.469,25.078c-0.047,2.436-0.771,4.494-2.203,6.164c-1.108,1.302-2.427,2.115-3.951,2.443h6.154V25.078z
			"/>
		<path fill="#ECF0F0" d="M63.332,21.607c-1.349,0-2.468,0.709-3.358,2.133c-0.898,1.422-1.346,3.146-1.346,5.172
			c0,0.986,0.227,1.748,0.686,2.295c0.456,0.539,1.072,0.807,1.845,0.807c1.182,0,2.196-0.562,3.047-1.686
			c1.099-1.463,1.647-3.338,1.647-5.62C65.854,22.64,65.012,21.607,63.332,21.607z"/>
	</g>
</g>
</svg>
